{
DisplayStrings = (
"Beata Aba Em Beata Cabaj Ftanta Dawno Edward",
t,
F,
T,
F,
"Gaba Beata Ga",
G
);
copyright = "Copyright \U00A9 2016 by Beata Kurek. All rights reserved.";
date = "2016-09-13 21:53:53 +0000";
designer = "Beata Kurek";
familyName = "Bajaderka";
fontMaster = (
{
alignmentZones = (
"{600, 10}",
"{390, 10}",
"{0, -10}",
"{-234, -10}"
);
ascender = 740;
capHeight = 700;
descender = "-260";
id = "248CDC77-21EA-41B6-93B8-E98A9208AB16";
italicAngle = 30;
xHeight = 390;
}
);
glyphs = (
{
glyphname = A;
lastChange = "2016-10-07 01:05:02 +0200";
layers = (
{
anchors = (
{
name = ogonek;
position = "{549, 10}";
},
{
name = top;
position = "{305, 700}";
}
);
layerId = "248CDC77-21EA-41B6-93B8-E98A9208AB16";
name = Regular;
paths = (
{
closed = 1;
nodes = (
"520 58 OFFCURVE",
"455 7 OFFCURVE",
"428 7 CURVE SMOOTH",
"400 7 OFFCURVE",
"459 134 OFFCURVE",
"528 268 CURVE",
"554 270 OFFCURVE",
"585 270 OFFCURVE",
"615 270 CURVE",
"633 291 OFFCURVE",
"614 293 OFFCURVE",
"540 289 CURVE",
"608 421 OFFCURVE",
"682 554 OFFCURVE",
"682 579 CURVE SMOOTH",
"682 590 OFFCURVE",
"679 607 OFFCURVE",
"672 607 CURVE",
"621 586 OFFCURVE",
"487 434 OFFCURVE",
"347 272 CURVE",
"228 257 OFFCURVE",
"217 243 OFFCURVE",
"222 238 CURVE",
"241 241 OFFCURVE",
"274 248 OFFCURVE",
"333 255 CURVE",
"220 124 OFFCURVE",
"110 8 OFFCURVE",
"53 8 CURVE SMOOTH",
"32 8 OFFCURVE",
"17 24 OFFCURVE",
"17 63 CURVE SMOOTH",
"17 180 OFFCURVE",
"169 323 OFFCURVE",
"243 308 CURVE",
"246 308 OFFCURVE",
"248 326 OFFCURVE",
"220 326 CURVE SMOOTH",
"132 326 OFFCURVE",
"2 186 OFFCURVE",
"2 70 CURVE SMOOTH",
"2 26 OFFCURVE",
"21 0 OFFCURVE",
"52 0 CURVE SMOOTH",
"130 0 OFFCURVE",
"239 123 OFFCURVE",
"356 258 CURVE",
"400 263 OFFCURVE",
"448 268 OFFCURVE",
"500 268 CURVE",
"432 130 OFFCURVE",
"379 1 OFFCURVE",
"428 1 CURVE SMOOTH",
"498 1 OFFCURVE",
"576 126 OFFCURVE",
"542 126 CURVE"
);
},
{
closed = 1;
nodes = (
"488 412 OFFCURVE",
"609 553 OFFCURVE",
"663 590 CURVE",
"648 551 OFFCURVE",
"576 419 OFFCURVE",
"510 287 CURVE",
"457 285 OFFCURVE",
"412 281 OFFCURVE",
"370 275 CURVE"
);
}
);
width = 610;
}
);
unicode = 0041;
},
{
glyphname = B;
lastChange = "2016-10-07 00:50:42 +0200";
layers = (
{
layerId = "248CDC77-21EA-41B6-93B8-E98A9208AB16";
name = Regular;
paths = (
{
closed = 1;
nodes = (
"633 556 OFFCURVE",
"518 217 OFFCURVE",
"310 217 CURVE SMOOTH",
"287 217 OFFCURVE",
"280 227 OFFCURVE",
"280 232 CURVE SMOOTH",
"280 249 OFFCURVE",
"304 263 OFFCURVE",
"343 263 CURVE SMOOTH",
"382 263 OFFCURVE",
"405 229 OFFCURVE",
"405 190 CURVE SMOOTH",
"405 115 OFFCURVE",
"333 8 OFFCURVE",
"266 8 CURVE SMOOTH",
"219 8 OFFCURVE",
"216 62 OFFCURVE",
"258 109 CURVE SMOOTH",
"305 159 OFFCURVE",
"372 200 OFFCURVE",
"444 200 CURVE SMOOTH",
"496 200 OFFCURVE",
"504 174 OFFCURVE",
"504 170 CURVE",
"517 170 OFFCURVE",
"516 208 OFFCURVE",
"448 208 CURVE SMOOTH",
"372 208 OFFCURVE",
"303 171 OFFCURVE",
"255 119 CURVE SMOOTH",
"205 65 OFFCURVE",
"205 -2 OFFCURVE",
"264 -2 CURVE SMOOTH",
"350 -2 OFFCURVE",
"427 108 OFFCURVE",
"427 188 CURVE SMOOTH",
"427 232 OFFCURVE",
"396 271 OFFCURVE",
"343 271 CURVE SMOOTH",
"298 271 OFFCURVE",
"272 252 OFFCURVE",
"272 232 CURVE SMOOTH",
"272 224 OFFCURVE",
"281 210 OFFCURVE",
"311 210 CURVE SMOOTH",
"551 210 OFFCURVE",
"666 569 OFFCURVE",
"425 569 CURVE SMOOTH",
"162 569 OFFCURVE",
"-5 314 OFFCURVE",
"-24 152 CURVE SMOOTH",
"-34 68 OFFCURVE",
"1 1 OFFCURVE",
"53 1 CURVE SMOOTH",
"206 1 OFFCURVE",
"256 450 OFFCURVE",
"433 605 CURVE SMOOTH",
"471 638 OFFCURVE",
"555 665 OFFCURVE",
"575 641 CURVE",
"582 641 OFFCURVE",
"583 662 OFFCURVE",
"555 662 CURVE SMOOTH",
"275 662 OFFCURVE",
"191 10 OFFCURVE",
"53 10 CURVE SMOOTH",
"6 10 OFFCURVE",
"-20 76 OFFCURVE",
"-8 156 CURVE SMOOTH",
"14 313 OFFCURVE",
"176 556 OFFCURVE",
"422 556 CURVE SMOOTH"
);
}
);
width = 507.229;
}
);
unicode = 0042;
},
{
glyphname = C;
lastChange = "2016-10-07 01:30:10 +0200";
layers = (
{
anchors = (
{
name = bottom;
position = "{224, 0}";
},
{
name = top;
position = "{224, 700}";
}
);
layerId = "248CDC77-21EA-41B6-93B8-E98A9208AB16";
name = Regular;
paths = (
{
closed = 1;
nodes = (
"76 0 OFFCURVE",
"38 49 OFFCURVE",
"38 128 CURVE SMOOTH",
"38 345 OFFCURVE",
"265 608 OFFCURVE",
"444 608 CURVE SMOOTH",
"649 608 OFFCURVE",
"504 232 OFFCURVE",
"165 232 CURVE SMOOTH",
"-73 232 OFFCURVE",
"-43 442 OFFCURVE",
"134 442 CURVE SMOOTH",
"297 442 OFFCURVE",
"367 323 OFFCURVE",
"322 323 CURVE",
"319 360 OFFCURVE",
"255 430 OFFCURVE",
"134 430 CURVE SMOOTH",
"-28 430 OFFCURVE",
"-65 241 OFFCURVE",
"168 241 CURVE SMOOTH",
"464 241 OFFCURVE",
"614 599 OFFCURVE",
"453 599 CURVE SMOOTH",
"286 599 OFFCURVE",
"60 320 OFFCURVE",
"60 126 CURVE SMOOTH",
"60 38 OFFCURVE",
"102 10 OFFCURVE",
"153 10 CURVE SMOOTH",
"246 10 OFFCURVE",
"376 120 OFFCURVE",
"428 205 CURVE",
"466 205 OFFCURVE",
"310 0 OFFCURVE",
"152 0 CURVE SMOOTH"
);
}
);
width = 448.853;
}
);
unicode = 0043;
},
{
glyphname = D;
lastChange = "2016-10-07 01:09:57 +0200";
layers = (
{
anchors = (
{
name = center;
position = "{293, 350}";
},
{
name = top;
position = "{293, 700}";
}
);
layerId = "248CDC77-21EA-41B6-93B8-E98A9208AB16";
name = Regular;
paths = (
{
closed = 1;
nodes = (
"-18 175 OFFCURVE",
"134 608 OFFCURVE",
"481 608 CURVE SMOOTH",
"784 608 OFFCURVE",
"605 -8 OFFCURVE",
"279 -8 CURVE SMOOTH",
"170 -8 OFFCURVE",
"136 41 OFFCURVE",
"49 47 CURVE SMOOTH",
"15 49 OFFCURVE",
"-9 42 OFFCURVE",
"-9 33 CURVE SMOOTH",
"-9 19 OFFCURVE",
"33 1 OFFCURVE",
"84 1 CURVE SMOOTH",
"280 1 OFFCURVE",
"381 674 OFFCURVE",
"645 674 CURVE SMOOTH",
"696 674 OFFCURVE",
"701 647 OFFCURVE",
"689 647 CURVE",
"652 675 OFFCURVE",
"600 671 OFFCURVE",
"556 633 CURVE",
"377 479 OFFCURVE",
"281 -8 OFFCURVE",
"83 -8 CURVE SMOOTH",
"17 -8 OFFCURVE",
"-18 15 OFFCURVE",
"-20 33 CURVE SMOOTH",
"-21 45 OFFCURVE",
"-1 62 OFFCURVE",
"43 62 CURVE SMOOTH",
"131 62 OFFCURVE",
"180 9 OFFCURVE",
"282 9 CURVE SMOOTH",
"555 9 OFFCURVE",
"764 600 OFFCURVE",
"478 600 CURVE SMOOTH",
"170 600 OFFCURVE",
"20 183 OFFCURVE",
"122 183 CURVE SMOOTH",
"233 183 OFFCURVE",
"339 439 OFFCURVE",
"322 475 CURVE",
"385 475 OFFCURVE",
"266 175 OFFCURVE",
"127 175 CURVE SMOOTH"
);
}
);
width = 586;
}
);
unicode = 0044;
},
{
glyphname = E;
lastChange = "2016-10-07 01:10:59 +0200";
layers = (
{
anchors = (
{
name = bottom;
position = "{214, 0}";
},
{
name = ogonek;
position = "{385, 10}";
},
{
name = top;
position = "{214, 700}";
}
);
layerId = "248CDC77-21EA-41B6-93B8-E98A9208AB16";
name = Regular;
paths = (
{
closed = 1;
nodes = (
"233 467 OFFCURVE",
"241 393 OFFCURVE",
"347 393 CURVE SMOOTH",
"458 393 OFFCURVE",
"522 457 OFFCURVE",
"522 514 CURVE SMOOTH",
"522 558 OFFCURVE",
"485 609 OFFCURVE",
"371 609 CURVE SMOOTH",
"223 609 OFFCURVE",
"120 517 OFFCURVE",
"120 429 CURVE SMOOTH",
"120 358 OFFCURVE",
"183 322 OFFCURVE",
"213 319 CURVE",
"94 313 OFFCURVE",
"-28 219 OFFCURVE",
"-28 117 CURVE SMOOTH",
"-28 39 OFFCURVE",
"28 -8 OFFCURVE",
"139 -8 CURVE SMOOTH",
"325 -8 OFFCURVE",
"413 128 OFFCURVE",
"413 190 CURVE SMOOTH",
"413 253 OFFCURVE",
"373 263 OFFCURVE",
"373 247 CURVE",
"382 240 OFFCURVE",
"393 219 OFFCURVE",
"393 189 CURVE SMOOTH",
"393 106 OFFCURVE",
"291 0 OFFCURVE",
"149 0 CURVE SMOOTH",
"40 0 OFFCURVE",
"0 54 OFFCURVE",
"0 115 CURVE SMOOTH",
"0 215 OFFCURVE",
"120 302 OFFCURVE",
"231 313 CURVE",
"263 306 OFFCURVE",
"380 290 OFFCURVE",
"380 329 CURVE SMOOTH",
"380 348 OFFCURVE",
"320 352 OFFCURVE",
"235 326 CURVE",
"195 332 OFFCURVE",
"143 367 OFFCURVE",
"143 429 CURVE SMOOTH",
"143 506 OFFCURVE",
"247 601 OFFCURVE",
"370 601 CURVE SMOOTH",
"481 601 OFFCURVE",
"500 544 OFFCURVE",
"500 515 CURVE SMOOTH",
"500 467 OFFCURVE",
"445 403 OFFCURVE",
"349 403 CURVE SMOOTH",
"297 403 OFFCURVE",
"262 435 OFFCURVE",
"255 467 CURVE"
);
},
{
closed = 1;
nodes = (
"370 308 OFFCURVE",
"278 317 OFFCURVE",
"252 323 CURVE",
"313 339 OFFCURVE",
"370 340 OFFCURVE",
"370 328 CURVE SMOOTH"
);
}
);
width = 427.734;
}
);
unicode = 0045;
},
{
glyphname = F;
lastChange = "2016-10-07 01:38:12 +0200";
layers = (
{
layerId = "248CDC77-21EA-41B6-93B8-E98A9208AB16";
name = Regular;
paths = (
{
closed = 1;
nodes = (
"76 163 OFFCURVE",
"76 66 CURVE SMOOTH",
"76 34 OFFCURVE",
"87 7 OFFCURVE",
"120 7 CURVE SMOOTH",
"229 7 OFFCURVE",
"375 488 OFFCURVE",
"480 501 CURVE SMOOTH",
"496 503 OFFCURVE",
"491 494 OFFCURVE",
"488 494 CURVE",
"402 483 OFFCURVE",
"264 0 OFFCURVE",
"119 0 CURVE SMOOTH",
"79 0 OFFCURVE",
"61 35 OFFCURVE",
"61 71 CURVE SMOOTH",
"61 171 OFFCURVE",
"161 284 OFFCURVE",
"230 284 CURVE SMOOTH",
"249 284 OFFCURVE",
"249 276 OFFCURVE",
"244 276 CURVE",
"184 276 OFFCURVE"
);
},
{
closed = 1;
nodes = (
"109 584 OFFCURVE",
"67 532 OFFCURVE",
"67 501 CURVE SMOOTH",
"67 450 OFFCURVE",
"132 424 OFFCURVE",
"202 423 CURVE SMOOTH",
"274 422 OFFCURVE",
"350 446 OFFCURVE",
"368 478 CURVE",
"389 478 OFFCURVE",
"354 404 OFFCURVE",
"201 404 CURVE SMOOTH",
"128 404 OFFCURVE",
"59 434 OFFCURVE",
"59 501 CURVE SMOOTH",
"59 576 OFFCURVE",
"154 605 OFFCURVE",
"262 605 CURVE SMOOTH",
"403 605 OFFCURVE",
"668 508 OFFCURVE",
"732 577 CURVE",
"744 574 OFFCURVE",
"720 538 OFFCURVE",
"654 538 CURVE SMOOTH",
"481 538 OFFCURVE",
"362 584 OFFCURVE",
"255 584 CURVE SMOOTH"
);
},
{
closed = 1;
nodes = (
"275 347 OFFCURVE",
"385 366 OFFCURVE",
"474 366 CURVE SMOOTH",
"518 366 OFFCURVE",
"517 352 OFFCURVE",
"513 347 CURVE",
"476 354 OFFCURVE",
"338 348 OFFCURVE",
"270 330 CURVE",
"265 330 OFFCURVE",
"263 333 OFFCURVE",
"266 336 CURVE SMOOTH"
);
}
);
width = 478;
}
);
unicode = 0046;
},
{
glyphname = G;
lastChange = "2016-10-07 01:50:37 +0200";
layers = (
{
layerId = "248CDC77-21EA-41B6-93B8-E98A9208AB16";
name = Regular;
paths = (
{
closed = 1;
nodes = (
);
},
{
closed = 1;
nodes = (
"909 437 OFFCURVE",
"776 0 OFFCURVE",
"639 0 CURVE SMOOTH",
"534 0 OFFCURVE",
"597 205 OFFCURVE",
"721 205 CURVE SMOOTH",
"749 205 OFFCURVE",
"746 171 OFFCURVE",
"725 171 CURVE SMOOTH",
"716 171 OFFCURVE",
"708 184 OFFCURVE",
"718 199 CURVE",
"615 178 OFFCURVE",
"562 6 OFFCURVE",
"636 6 CURVE SMOOTH",
"749 6 OFFCURVE",
"891 444 OFFCURVE",
"969 444 CURVE SMOOTH",
"1010 444 OFFCURVE",
"890 222 OFFCURVE",
"740 222 CURVE SMOOTH",
"507 222 OFFCURVE",
"729 675 OFFCURVE",
"969 675 CURVE SMOOTH",
"1021 675 OFFCURVE",
"1061 652 OFFCURVE",
"1061 606 CURVE SMOOTH",
"1061 535 OFFCURVE",
"946 422 OFFCURVE",
"772 422 CURVE SMOOTH",
"603 422 OFFCURVE",
"549 576 OFFCURVE",
"692 576 CURVE SMOOTH",
"824 576 OFFCURVE",
"881 480 OFFCURVE",
"844 480 CURVE",
"842 510 OFFCURVE",
"790 566 OFFCURVE",
"692 566 CURVE SMOOTH",
"550 566 OFFCURVE",
"625 432 OFFCURVE",
"770 432 CURVE SMOOTH",
"944 432 OFFCURVE",
"1053 542 OFFCURVE",
"1053 606 CURVE SMOOTH",
"1053 644 OFFCURVE",
"1023 661 OFFCURVE",
"983 661 CURVE SMOOTH",
"767 661 OFFCURVE",
"542 229 OFFCURVE",
"740 229 CURVE SMOOTH",
"880 229 OFFCURVE",
"986 437 OFFCURVE",
"967 437 CURVE SMOOTH"
);
}
);
width = 293.003;
}
);
unicode = 0047;
},
{
glyphname = H;
lastChange = "2016-09-22 09:21:16 +0200";
layers = (
{
layerId = "248CDC77-21EA-41B6-93B8-E98A9208AB16";
name = Regular;
paths = (
{
closed = 1;
nodes = (
"-31 653 OFFCURVE",
"-221 282 OFFCURVE",
"-72 282 CURVE SMOOTH",
"20 282 OFFCURVE",
"114 461 OFFCURVE",
"70 448 CURVE",
"75 408 OFFCURVE",
"-8 287 OFFCURVE",
"-70 287 CURVE SMOOTH",
"-193 287 OFFCURVE",
"17 646 OFFCURVE",
"144 646 CURVE SMOOTH",
"180 646 OFFCURVE",
"82 439 OFFCURVE",
"156 439 CURVE SMOOTH",
"266 439 OFFCURVE",
"420 642 OFFCURVE",
"371 642 CURVE SMOOTH",
"262 642 OFFCURVE",
"40 7 OFFCURVE",
"-72 7 CURVE SMOOTH",
"-164 7 OFFCURVE",
"-69 245 OFFCURVE",
"47 275 CURVE",
"39 256 OFFCURVE",
"49 247 OFFCURVE",
"58 247 CURVE SMOOTH",
"79 247 OFFCURVE",
"84 284 OFFCURVE",
"52 284 CURVE SMOOTH",
"-85 284 OFFCURVE",
"-191 0 OFFCURVE",
"-73 0 CURVE SMOOTH",
"80 0 OFFCURVE",
"298 636 OFFCURVE",
"370 636 CURVE SMOOTH",
"404 636 OFFCURVE",
"254 447 OFFCURVE",
"158 447 CURVE SMOOTH",
"119 447 OFFCURVE",
"209 653 OFFCURVE",
"148 653 CURVE SMOOTH"
);
},
{
closed = 1;
nodes = (
"261 356 OFFCURVE",
"123 319 OFFCURVE",
"113 307 CURVE SMOOTH",
"111 304 OFFCURVE",
"110 299 OFFCURVE",
"116 299 CURVE",
"203 327 OFFCURVE",
"380 339 OFFCURVE",
"432 329 CURVE",
"436 335 OFFCURVE",
"443 356 OFFCURVE",
"393 356 CURVE SMOOTH"
);
},
{
closed = 1;
nodes = (
"455 636 OFFCURVE",
"220 126 OFFCURVE",
"220 20 CURVE SMOOTH",
"220 6 OFFCURVE",
"223 0 OFFCURVE",
"232 5 CURVE",
"238 103 OFFCURVE",
"461 578 OFFCURVE",
"551 623 CURVE",
"553 623 OFFCURVE",
"550 636 OFFCURVE",
"534 636 CURVE SMOOTH"
);
}
);
width = 360;
}
);
unicode = 0048;
},
{
glyphname = I;
lastChange = "2016-09-22 09:21:16 +0200";
layers = (
{
layerId = "248CDC77-21EA-41B6-93B8-E98A9208AB16";
name = Regular;
paths = (
{
closed = 1;
nodes = (
"-65 0 OFFCURVE",
"41 284 OFFCURVE",
"177 284 CURVE SMOOTH",
"209 284 OFFCURVE",
"205 247 OFFCURVE",
"184 247 CURVE SMOOTH",
"174 247 OFFCURVE",
"164 256 OFFCURVE",
"172 275 CURVE",
"56 245 OFFCURVE",
"-39 7 OFFCURVE",
"53 7 CURVE SMOOTH",
"166 7 OFFCURVE",
"387 642 OFFCURVE",
"497 642 CURVE SMOOTH",
"545 642 OFFCURVE",
"391 439 OFFCURVE",
"281 439 CURVE SMOOTH",
"207 439 OFFCURVE",
"305 646 OFFCURVE",
"269 646 CURVE SMOOTH",
"143 646 OFFCURVE",
"-67 287 OFFCURVE",
"55 287 CURVE SMOOTH",
"117 287 OFFCURVE",
"201 408 OFFCURVE",
"196 448 CURVE",
"239 461 OFFCURVE",
"146 282 OFFCURVE",
"53 282 CURVE SMOOTH",
"-95 282 OFFCURVE",
"94 653 OFFCURVE",
"274 653 CURVE SMOOTH",
"334 653 OFFCURVE",
"244 447 OFFCURVE",
"284 447 CURVE SMOOTH",
"380 447 OFFCURVE",
"530 636 OFFCURVE",
"496 636 CURVE SMOOTH",
"423 636 OFFCURVE",
"206 0 OFFCURVE",
"53 0 CURVE SMOOTH"
);
}
);
width = 332;
}
);
unicode = 0049;
},
{
glyphname = J;
lastChange = "2016-09-22 09:21:16 +0200";
layers = (
{
layerId = "248CDC77-21EA-41B6-93B8-E98A9208AB16";
name = Regular;
paths = (
{
closed = 1;
nodes = (
"401 214 OFFCURVE",
"395 243 OFFCURVE",
"332 243 CURVE SMOOTH",
"69 243 OFFCURVE",
"-47 -137 OFFCURVE",
"44 -137 CURVE SMOOTH",
"167 -137 OFFCURVE",
"452 640 OFFCURVE",
"559 640 CURVE SMOOTH",
"608 640 OFFCURVE",
"454 436 OFFCURVE",
"344 436 CURVE SMOOTH",
"269 436 OFFCURVE",
"368 643 OFFCURVE",
"332 643 CURVE SMOOTH",
"205 643 OFFCURVE",
"-4 284 OFFCURVE",
"118 284 CURVE SMOOTH",
"180 284 OFFCURVE",
"263 405 OFFCURVE",
"259 446 CURVE",
"302 458 OFFCURVE",
"208 279 OFFCURVE",
"116 279 CURVE SMOOTH",
"-32 279 OFFCURVE",
"157 650 OFFCURVE",
"337 650 CURVE SMOOTH",
"397 650 OFFCURVE",
"307 444 OFFCURVE",
"346 444 CURVE SMOOTH",
"442 444 OFFCURVE",
"592 633 OFFCURVE",
"559 633 CURVE SMOOTH",
"482 633 OFFCURVE",
"196 -144 OFFCURVE",
"46 -144 CURVE SMOOTH",
"-72 -144 OFFCURVE",
"42 250 OFFCURVE",
"330 250 CURVE SMOOTH",
"406 250 OFFCURVE",
"414 209 OFFCURVE",
"401 209 CURVE"
);
}
);
width = 383;
}
);
unicode = 004A;
},
{
glyphname = K;
lastChange = "2016-09-22 09:21:16 +0200";
layers = (
{
layerId = "248CDC77-21EA-41B6-93B8-E98A9208AB16";
name = Regular;
paths = (
{
closed = 1;
nodes = (
"460 639 OFFCURVE",
"409 566 OFFCURVE",
"355 469 CURVE",
"330 454 OFFCURVE",
"305 444 OFFCURVE",
"284 444 CURVE SMOOTH",
"244 444 OFFCURVE",
"334 650 OFFCURVE",
"274 650 CURVE SMOOTH",
"94 650 OFFCURVE",
"-95 279 OFFCURVE",
"53 279 CURVE SMOOTH",
"146 279 OFFCURVE",
"239 458 OFFCURVE",
"196 445 CURVE",
"201 405 OFFCURVE",
"117 284 OFFCURVE",
"55 284 CURVE SMOOTH",
"-67 284 OFFCURVE",
"143 643 OFFCURVE",
"269 643 CURVE SMOOTH",
"306 643 OFFCURVE",
"207 436 OFFCURVE",
"281 436 CURVE SMOOTH",
"302 436 OFFCURVE",
"325 443 OFFCURVE",
"347 455 CURVE",
"243 268 OFFCURVE",
"126 4 OFFCURVE",
"53 4 CURVE SMOOTH",
"-39 4 OFFCURVE",
"56 242 OFFCURVE",
"172 272 CURVE",
"164 253 OFFCURVE",
"174 244 OFFCURVE",
"184 244 CURVE SMOOTH",
"205 244 OFFCURVE",
"210 281 OFFCURVE",
"178 281 CURVE SMOOTH",
"41 281 OFFCURVE",
"-65 -3 OFFCURVE",
"53 -3 CURVE SMOOTH",
"158 -3 OFFCURVE",
"293 295 OFFCURVE",
"391 484 CURVE",
"468 544 OFFCURVE",
"530 639 OFFCURVE",
"497 639 CURVE SMOOTH"
);
},
{
closed = 1;
nodes = (
"517 633 OFFCURVE",
"466 558 OFFCURVE",
"401 503 CURVE",
"441 579 OFFCURVE",
"475 633 OFFCURVE",
"496 633 CURVE SMOOTH"
);
},
{
closed = 1;
nodes = (
"507 91 OFFCURVE",
"437 10 OFFCURVE",
"399 10 CURVE SMOOTH",
"371 10 OFFCURVE",
"375 147 OFFCURVE",
"360 218 CURVE",
"490 300 OFFCURVE",
"628 584 OFFCURVE",
"704 584 CURVE SMOOTH",
"733 584 OFFCURVE",
"739 562 OFFCURVE",
"737 539 CURVE",
"748 539 OFFCURVE",
"754 597 OFFCURVE",
"701 597 CURVE SMOOTH",
"599 597 OFFCURVE",
"472 320 OFFCURVE",
"357 230 CURVE",
"352 247 OFFCURVE",
"346 258 OFFCURVE",
"337 258 CURVE SMOOTH",
"278 258 OFFCURVE",
"255 195 OFFCURVE",
"295 195 CURVE SMOOTH",
"309 195 OFFCURVE",
"323 199 OFFCURVE",
"337 205 CURVE",
"349 137 OFFCURVE",
"347 0 OFFCURVE",
"400 0 CURVE SMOOTH",
"475 0 OFFCURVE",
"555 145 OFFCURVE",
"524 143 CURVE"
);
},
{
closed = 1;
nodes = (
"265 202 OFFCURVE",
"289 242 OFFCURVE",
"319 242 CURVE SMOOTH",
"326 242 OFFCURVE",
"332 232 OFFCURVE",
"335 215 CURVE",
"321 207 OFFCURVE",
"307 202 OFFCURVE",
"293 202 CURVE SMOOTH"
);
}
);
width = 546;
}
);
unicode = 004B;
},
{
glyphname = L;
lastChange = "2016-10-06 02:57:04 +0200";
layers = (
{
anchors = (
{
name = bottom;
position = "{272, 0}";
},
{
name = top;
position = "{272, 700}";
}
);
layerId = "248CDC77-21EA-41B6-93B8-E98A9208AB16";
name = Regular;
paths = (
{
closed = 1;
nodes = (
"301 649 OFFCURVE",
"220 9 OFFCURVE",
"15 9 CURVE SMOOTH",
"-33 9 OFFCURVE",
"-85 24 OFFCURVE",
"-85 42 CURVE SMOOTH",
"-85 51 OFFCURVE",
"-57 58 OFFCURVE",
"-19 58 CURVE SMOOTH",
"64 58 OFFCURVE",
"205 2 OFFCURVE",
"333 2 CURVE SMOOTH",
"431 2 OFFCURVE",
"467 44 OFFCURVE",
"467 77 CURVE SMOOTH",
"467 105 OFFCURVE",
"431 124 OFFCURVE",
"395 124 CURVE SMOOTH",
"311 124 OFFCURVE",
"294 91 OFFCURVE",
"310 87 CURVE",
"318 96 OFFCURVE",
"344 112 OFFCURVE",
"395 112 CURVE SMOOTH",
"431 112 OFFCURVE",
"461 95 OFFCURVE",
"461 75 CURVE SMOOTH",
"461 48 OFFCURVE",
"423 23 OFFCURVE",
"333 23 CURVE SMOOTH",
"232 23 OFFCURVE",
"70 77 OFFCURVE",
"-17 77 CURVE SMOOTH",
"-66 77 OFFCURVE",
"-97 62 OFFCURVE",
"-97 45 CURVE SMOOTH",
"-97 25 OFFCURVE",
"-49 0 OFFCURVE",
"16 0 CURVE SMOOTH",
"248 0 OFFCURVE",
"342 641 OFFCURVE",
"444 641 CURVE SMOOTH",
"469 641 OFFCURVE",
"478 623 OFFCURVE",
"478 591 CURVE SMOOTH",
"478 536 OFFCURVE",
"445 457 OFFCURVE",
"397 383 CURVE SMOOTH",
"325 272 OFFCURVE",
"206 182 OFFCURVE",
"103 182 CURVE SMOOTH",
"49 182 OFFCURVE",
"30 209 OFFCURVE",
"30 241 CURVE SMOOTH",
"30 305 OFFCURVE",
"130 409 OFFCURVE",
"221 398 CURVE",
"227 405 OFFCURVE",
"217 413 OFFCURVE",
"200 413 CURVE SMOOTH",
"102 413 OFFCURVE",
"20 315 OFFCURVE",
"19 245 CURVE SMOOTH",
"18 206 OFFCURVE",
"43 176 OFFCURVE",
"102 176 CURVE SMOOTH",
"213 176 OFFCURVE",
"331 249 OFFCURVE",
"414 371 CURVE SMOOTH",
"460 438 OFFCURVE",
"487 520 OFFCURVE",
"488 577 CURVE SMOOTH",
"488 620 OFFCURVE",
"475 649 OFFCURVE",
"443 649 CURVE SMOOTH"
);
}
);
width = 544;
}
);
unicode = 004C;
},
{
glyphname = Lslash;
lastChange = "2016-10-06 02:34:18 +0200";
layers = (
{
layerId = "248CDC77-21EA-41B6-93B8-E98A9208AB16";
name = Regular;
paths = (
{
closed = 1;
nodes = (
"335 649 OFFCURVE",
"254 9 OFFCURVE",
"49 9 CURVE SMOOTH",
"1 9 OFFCURVE",
"-51 24 OFFCURVE",
"-51 42 CURVE SMOOTH",
"-51 51 OFFCURVE",
"-23 58 OFFCURVE",
"15 58 CURVE SMOOTH",
"98 58 OFFCURVE",
"239 2 OFFCURVE",
"367 2 CURVE SMOOTH",
"465 2 OFFCURVE",
"501 44 OFFCURVE",
"501 77 CURVE SMOOTH",
"501 105 OFFCURVE",
"465 124 OFFCURVE",
"429 124 CURVE SMOOTH",
"345 124 OFFCURVE",
"328 91 OFFCURVE",
"344 87 CURVE",
"352 96 OFFCURVE",
"378 112 OFFCURVE",
"429 112 CURVE SMOOTH",
"465 112 OFFCURVE",
"495 95 OFFCURVE",
"495 75 CURVE SMOOTH",
"495 48 OFFCURVE",
"457 23 OFFCURVE",
"367 23 CURVE SMOOTH",
"266 23 OFFCURVE",
"104 77 OFFCURVE",
"17 77 CURVE SMOOTH",
"-32 77 OFFCURVE",
"-63 62 OFFCURVE",
"-63 45 CURVE SMOOTH",
"-63 25 OFFCURVE",
"-15 0 OFFCURVE",
"50 0 CURVE SMOOTH",
"282 0 OFFCURVE",
"376 641 OFFCURVE",
"478 641 CURVE SMOOTH",
"513 641 OFFCURVE",
"524 598 OFFCURVE",
"524 565 CURVE SMOOTH",
"524 468 OFFCURVE",
"437 337 OFFCURVE",
"368 350 CURVE",
"367 339 OFFCURVE",
"378 333 OFFCURVE",
"390 333 CURVE SMOOTH",
"443 335 OFFCURVE",
"535 443 OFFCURVE",
"535 551 CURVE SMOOTH",
"535 594 OFFCURVE",
"521 649 OFFCURVE",
"477 649 CURVE SMOOTH"
);
},
{
closed = 1;
nodes = (
"235 274 OFFCURVE",
"152 255 OFFCURVE",
"125 244 CURVE SMOOTH",
"120 241 OFFCURVE",
"117 236 OFFCURVE",
"124 236 CURVE",
"245 256 OFFCURVE",
"385 259 OFFCURVE",
"445 242 CURVE",
"450 249 OFFCURVE",
"445 274 OFFCURVE",
"348 274 CURVE SMOOTH"
);
}
);
width = 600;
}
);
unicode = 0141;
},
{
glyphname = M;
lastChange = "2016-09-22 09:21:21 +0200";
layers = (
{
layerId = "248CDC77-21EA-41B6-93B8-E98A9208AB16";
name = Regular;
paths = (
{
closed = 1;
nodes = (
"137 637 OFFCURVE",
"-47 289 OFFCURVE",
"82 289 CURVE SMOOTH",
"167 289 OFFCURVE",
"261 468 OFFCURVE",
"217 455 CURVE",
"222 415 OFFCURVE",
"132 294 OFFCURVE",
"84 294 CURVE SMOOTH",
"-28 294 OFFCURVE",
"191 629 OFFCURVE",
"344 629 CURVE SMOOTH",
"409 629 OFFCURVE",
"202 333 OFFCURVE",
"84 26 CURVE",
"112 31 LINE",
"232 332 OFFCURVE",
"455 637 OFFCURVE",
"349 637 CURVE SMOOTH"
);
},
{
closed = 1;
nodes = (
"94 49 OFFCURVE",
"9 20 OFFCURVE",
"1 10 CURVE SMOOTH",
"-2 7 OFFCURVE",
"2 2 OFFCURVE",
"7 2 CURVE",
"85 32 OFFCURVE",
"189 30 OFFCURVE",
"200 25 CURVE",
"203 30 OFFCURVE",
"209 49 OFFCURVE",
"164 49 CURVE SMOOTH"
);
},
{
closed = 1;
nodes = (
"469 538 OFFCURVE",
"322 396 OFFCURVE",
"173 189 CURVE SMOOTH",
"141 148 OFFCURVE",
"112 92 OFFCURVE",
"140 122 CURVE",
"268 322 OFFCURVE",
"456 521 OFFCURVE",
"496 521 CURVE",
"473 467 OFFCURVE",
"289 146 OFFCURVE",
"254 26 CURVE",
"256 5 OFFCURVE",
"282 25 OFFCURVE",
"285 37 CURVE SMOOTH",
"303 112 OFFCURVE",
"458 389 OFFCURVE",
"518 504 CURVE SMOOTH",
"525 518 OFFCURVE",
"518 538 OFFCURVE",
"508 538 CURVE SMOOTH"
);
},
{
closed = 1;
nodes = (
"601 483 OFFCURVE",
"418 317 OFFCURVE",
"319 158 CURVE",
"287 117 OFFCURVE",
"231 17 OFFCURVE",
"259 17 CURVE",
"332 222 OFFCURVE",
"561 442 OFFCURVE",
"627 470 CURVE",
"618 453 OFFCURVE",
"350 0 OFFCURVE",
"462 0 CURVE SMOOTH",
"541 0 OFFCURVE",
"629 142 OFFCURVE",
"591 142 CURVE",
"560 63 OFFCURVE",
"487 7 OFFCURVE",
"462 7 CURVE SMOOTH",
"411 7 OFFCURVE",
"538 257 OFFCURVE",
"613 391 CURVE SMOOTH",
"641 439 OFFCURVE",
"667 483 OFFCURVE",
"640 483 CURVE SMOOTH"
);
}
);
width = 621;
}
);
unicode = 004D;
},
{
glyphname = N;
lastChange = "2016-09-22 09:21:21 +0200";
layers = (
{
layerId = "248CDC77-21EA-41B6-93B8-E98A9208AB16";
name = Regular;
paths = (
{
closed = 1;
nodes = (
"493 535 OFFCURVE",
"296 374 OFFCURVE",
"197 215 CURVE",
"165 174 OFFCURVE",
"100 69 OFFCURVE",
"127 69 CURVE",
"212 275 OFFCURVE",
"452 494 OFFCURVE",
"518 522 CURVE",
"509 505 OFFCURVE",
"205 5 OFFCURVE",
"321 5 CURVE SMOOTH",
"400 5 OFFCURVE",
"488 146 OFFCURVE",
"449 146 CURVE",
"419 68 OFFCURVE",
"346 12 OFFCURVE",
"321 12 CURVE SMOOTH",
"270 12 OFFCURVE",
"430 309 OFFCURVE",
"505 443 CURVE SMOOTH",
"532 491 OFFCURVE",
"558 535 OFFCURVE",
"531 535 CURVE SMOOTH"
);
},
{
closed = 1;
nodes = (
"94 47 OFFCURVE",
"9 18 OFFCURVE",
"1 7 CURVE SMOOTH",
"-2 4 OFFCURVE",
"2 0 OFFCURVE",
"7 0 CURVE",
"85 29 OFFCURVE",
"189 28 OFFCURVE",
"200 23 CURVE",
"203 28 OFFCURVE",
"209 47 OFFCURVE",
"164 47 CURVE SMOOTH"
);
},
{
closed = 1;
nodes = (
"138 634 OFFCURVE",
"-47 286 OFFCURVE",
"82 286 CURVE SMOOTH",
"167 286 OFFCURVE",
"261 466 OFFCURVE",
"217 453 CURVE",
"223 412 OFFCURVE",
"132 291 OFFCURVE",
"84 291 CURVE SMOOTH",
"-28 291 OFFCURVE",
"191 626 OFFCURVE",
"344 626 CURVE SMOOTH",
"409 626 OFFCURVE",
"202 330 OFFCURVE",
"84 24 CURVE",
"112 29 LINE",
"232 329 OFFCURVE",
"455 634 OFFCURVE",
"349 634 CURVE SMOOTH"
);
}
);
width = 488;
}
);
unicode = 004E;
},
{
glyphname = O;
lastChange = "2016-09-22 09:21:21 +0200";
layers = (
{
layerId = "248CDC77-21EA-41B6-93B8-E98A9208AB16";
name = Regular;
paths = (
{
closed = 1;
nodes = (
"28 571 OFFCURVE",
"-104 0 OFFCURVE",
"136 0 CURVE SMOOTH",
"430 0 OFFCURVE",
"577 571 OFFCURVE",
"349 571 CURVE SMOOTH"
);
},
{
closed = 1;
nodes = (
"-73 8 OFFCURVE",
"80 563 OFFCURVE",
"345 563 CURVE SMOOTH",
"545 563 OFFCURVE",
"383 8 OFFCURVE",
"139 8 CURVE SMOOTH"
);
}
);
width = 431;
}
);
leftMetricsKey = o;
unicode = 004F;
},
{
glyphname = P;
lastChange = "2016-09-22 09:21:21 +0200";
layers = (
{
layerId = "248CDC77-21EA-41B6-93B8-E98A9208AB16";
name = Regular;
paths = (
{
closed = 1;
nodes = (
"536 665 OFFCURVE",
"481 629 OFFCURVE",
"437 583 CURVE",
"434 582 LINE",
"283 428 OFFCURVE",
"179 7 OFFCURVE",
"54 7 CURVE SMOOTH",
"-38 7 OFFCURVE",
"47 219 OFFCURVE",
"162 249 CURVE",
"154 229 OFFCURVE",
"164 221 OFFCURVE",
"173 221 CURVE SMOOTH",
"194 221 OFFCURVE",
"200 257 OFFCURVE",
"167 257 CURVE SMOOTH",
"31 257 OFFCURVE",
"-65 0 OFFCURVE",
"53 0 CURVE SMOOTH",
"209 0 OFFCURVE",
"345 493 OFFCURVE",
"443 578 CURVE",
"494 635 OFFCURVE",
"577 670 OFFCURVE",
"617 643 CURVE",
"625 643 OFFCURVE",
"625 665 OFFCURVE",
"598 665 CURVE SMOOTH"
);
},
{
closed = 1;
nodes = (
"189 586 OFFCURVE",
"11 284 OFFCURVE",
"122 284 CURVE SMOOTH",
"215 284 OFFCURVE",
"312 411 OFFCURVE",
"280 411 CURVE",
"264 387 OFFCURVE",
"190 290 OFFCURVE",
"122 290 CURVE SMOOTH",
"46 290 OFFCURVE",
"212 578 OFFCURVE",
"456 578 CURVE SMOOTH",
"518 578 OFFCURVE",
"571 535 OFFCURVE",
"571 472 CURVE SMOOTH",
"571 262 OFFCURVE",
"290 136 OFFCURVE",
"290 214 CURVE SMOOTH",
"290 273 OFFCURVE",
"380 362 OFFCURVE",
"474 334 CURVE",
"481 339 OFFCURVE",
"472 347 OFFCURVE",
"443 347 CURVE SMOOTH",
"372 347 OFFCURVE",
"284 284 OFFCURVE",
"284 214 CURVE SMOOTH",
"284 123 OFFCURVE",
"601 242 OFFCURVE",
"601 472 CURVE SMOOTH",
"601 540 OFFCURVE",
"540 586 OFFCURVE",
"459 586 CURVE SMOOTH"
);
}
);
width = 496;
}
);
unicode = 0050;
},
{
glyphname = Q;
lastChange = "2016-09-22 09:21:21 +0200";
layers = (
{
layerId = "248CDC77-21EA-41B6-93B8-E98A9208AB16";
name = Regular;
paths = (
{
closed = 1;
nodes = (
"15 576 OFFCURVE",
"-116 5 OFFCURVE",
"123 5 CURVE",
"417 5 OFFCURVE",
"565 576 OFFCURVE",
"337 576 CURVE"
);
},
{
closed = 1;
nodes = (
"173 68 OFFCURVE",
"286 -46 OFFCURVE",
"307 -67 CURVE",
"322 -80 OFFCURVE",
"331 -74 OFFCURVE",
"329 -73 CURVE SMOOTH",
"314 -59 OFFCURVE",
"223 46 OFFCURVE",
"182 82 CURVE",
"165 98 OFFCURVE",
"140 97 OFFCURVE",
"145 88 CURVE SMOOTH"
);
},
{
closed = 1;
nodes = (
"532 568 OFFCURVE",
"370 13 OFFCURVE",
"126 13 CURVE",
"-86 13 OFFCURVE",
"67 568 OFFCURVE",
"332 568 CURVE"
);
}
);
width = 414;
}
);
unicode = 0051;
},
{
glyphname = R;
lastChange = "2016-09-22 09:21:21 +0200";
layers = (
{
layerId = "248CDC77-21EA-41B6-93B8-E98A9208AB16";
name = Regular;
paths = (
{
closed = 1;
nodes = (
"158 236 OFFCURVE",
"132 2 OFFCURVE",
"202 2 CURVE SMOOTH",
"277 2 OFFCURVE",
"357 147 OFFCURVE",
"325 145 CURVE",
"309 93 OFFCURVE",
"239 13 OFFCURVE",
"200 13 CURVE SMOOTH",
"164 13 OFFCURVE",
"182 252 OFFCURVE",
"139 252 CURVE SMOOTH",
"79 252 OFFCURVE",
"56 190 OFFCURVE",
"97 190 CURVE SMOOTH",
"242 190 OFFCURVE",
"373 306 OFFCURVE",
"392 407 CURVE SMOOTH",
"404 475 OFFCURVE",
"377 559 OFFCURVE",
"265 559 CURVE SMOOTH",
"2 559 OFFCURVE",
"-155 310 OFFCURVE",
"-174 148 CURVE SMOOTH",
"-184 64 OFFCURVE",
"-159 -7 OFFCURVE",
"-107 -7 CURVE SMOOTH",
"46 -7 OFFCURVE",
"87 445 OFFCURVE",
"264 599 CURVE SMOOTH",
"302 633 OFFCURVE",
"386 658 OFFCURVE",
"406 634 CURVE",
"413 634 OFFCURVE",
"414 655 OFFCURVE",
"386 655 CURVE SMOOTH",
"106 655 OFFCURVE",
"31 3 OFFCURVE",
"-106 3 CURVE SMOOTH",
"-154 3 OFFCURVE",
"-179 69 OFFCURVE",
"-167 149 CURVE SMOOTH",
"-145 305 OFFCURVE",
"16 551 OFFCURVE",
"262 551 CURVE SMOOTH",
"353 551 OFFCURVE",
"376 472 OFFCURVE",
"364 409 CURVE SMOOTH",
"346 311 OFFCURVE",
"214 197 OFFCURVE",
"95 197 CURVE SMOOTH",
"67 197 OFFCURVE",
"91 236 OFFCURVE",
"121 236 CURVE SMOOTH"
);
}
);
width = 360;
}
);
unicode = 0052;
},
{
glyphname = S;
lastChange = "2016-09-22 09:21:21 +0200";
layers = (
{
layerId = "248CDC77-21EA-41B6-93B8-E98A9208AB16";
name = Regular;
paths = (
{
closed = 1;
nodes = (
"587 660 OFFCURVE",
"521 430 OFFCURVE",
"405 430 CURVE SMOOTH",
"384 430 OFFCURVE",
"376 440 OFFCURVE",
"376 445 CURVE",
"490 444 OFFCURVE",
"561 652 OFFCURVE",
"447 652 CURVE SMOOTH",
"271 652 OFFCURVE",
"334 347 OFFCURVE",
"273 157 CURVE SMOOTH",
"247 77 OFFCURVE",
"197 0 OFFCURVE",
"110 0 CURVE SMOOTH",
"-64 0 OFFCURVE",
"34 328 OFFCURVE",
"207 328 CURVE SMOOTH",
"251 328 OFFCURVE",
"233 278 OFFCURVE",
"212 278 CURVE SMOOTH",
"193 278 OFFCURVE",
"189 301 OFFCURVE",
"203 314 CURVE",
"62 300 OFFCURVE",
"-32 10 OFFCURVE",
"112 10 CURVE SMOOTH",
"186 10 OFFCURVE",
"233 83 OFFCURVE",
"252 169 CURVE SMOOTH",
"295 359 OFFCURVE",
"244 660 OFFCURVE",
"446 660 CURVE SMOOTH"
);
}
);
width = 360;
}
);
unicode = 0053;
},
{
glyphname = T;
lastChange = "2016-10-07 01:39:32 +0200";
layers = (
{
layerId = "248CDC77-21EA-41B6-93B8-E98A9208AB16";
name = Regular;
paths = (
{
closed = 1;
nodes = (
"183 276 OFFCURVE",
"75 163 OFFCURVE",
"75 66 CURVE SMOOTH",
"75 34 OFFCURVE",
"86 7 OFFCURVE",
"119 7 CURVE SMOOTH",
"228 7 OFFCURVE",
"374 488 OFFCURVE",
"479 501 CURVE SMOOTH",
"495 503 OFFCURVE",
"490 494 OFFCURVE",
"487 494 CURVE",
"401 483 OFFCURVE",
"263 0 OFFCURVE",
"118 0 CURVE SMOOTH",
"78 0 OFFCURVE",
"60 35 OFFCURVE",
"60 71 CURVE SMOOTH",
"60 171 OFFCURVE",
"160 284 OFFCURVE",
"229 284 CURVE SMOOTH",
"248 284 OFFCURVE",
"248 276 OFFCURVE",
"243 276 CURVE"
);
},
{
closed = 1;
nodes = (
"108 584 OFFCURVE",
"66 532 OFFCURVE",
"66 501 CURVE SMOOTH",
"66 450 OFFCURVE",
"131 424 OFFCURVE",
"201 423 CURVE SMOOTH",
"273 422 OFFCURVE",
"349 446 OFFCURVE",
"367 478 CURVE",
"388 478 OFFCURVE",
"353 404 OFFCURVE",
"200 404 CURVE SMOOTH",
"127 404 OFFCURVE",
"58 434 OFFCURVE",
"58 501 CURVE SMOOTH",
"58 576 OFFCURVE",
"153 605 OFFCURVE",
"261 605 CURVE SMOOTH",
"402 605 OFFCURVE",
"667 508 OFFCURVE",
"731 577 CURVE",
"743 574 OFFCURVE",
"719 538 OFFCURVE",
"653 538 CURVE SMOOTH",
"480 538 OFFCURVE",
"361 584 OFFCURVE",
"254 584 CURVE SMOOTH"
);
},
{
closed = 1;
nodes = (
);
}
);
width = 360;
}
);
unicode = 0054;
},
{
glyphname = U;
lastChange = "2016-09-22 09:21:21 +0200";
layers = (
{
layerId = "248CDC77-21EA-41B6-93B8-E98A9208AB16";
name = Regular;
paths = (
{
closed = 1;
nodes = (
"557 578 OFFCURVE",
"461 414 OFFCURVE",
"348 262 CURVE SMOOTH",
"253 133 OFFCURVE",
"132 13 OFFCURVE",
"83 13 CURVE SMOOTH",
"5 13 OFFCURVE",
"430 655 OFFCURVE",
"299 655 CURVE SMOOTH",
"88 655 OFFCURVE",
"-85 307 OFFCURVE",
"44 307 CURVE SMOOTH",
"129 307 OFFCURVE",
"209 487 OFFCURVE",
"166 474 CURVE",
"171 433 OFFCURVE",
"94 312 OFFCURVE",
"46 312 CURVE SMOOTH",
"-65 312 OFFCURVE",
"142 647 OFFCURVE",
"295 647 CURVE SMOOTH",
"382 647 OFFCURVE",
"-49 2 OFFCURVE",
"79 2 CURVE SMOOTH",
"221 2 OFFCURVE",
"612 591 OFFCURVE",
"536 591 CURVE SMOOTH",
"458 591 OFFCURVE",
"182 -3 OFFCURVE",
"295 -3 CURVE SMOOTH",
"373 -3 OFFCURVE",
"461 139 OFFCURVE",
"423 139 CURVE",
"392 60 OFFCURVE",
"320 4 OFFCURVE",
"294 4 CURVE SMOOTH",
"230 4 OFFCURVE",
"490 578 OFFCURVE",
"535 578 CURVE SMOOTH"
);
}
);
width = 473;
}
);
unicode = 0055;
},
{
glyphname = V;
lastChange = "2016-09-22 09:21:21 +0200";
layers = (
{
layerId = "248CDC77-21EA-41B6-93B8-E98A9208AB16";
name = Regular;
paths = (
{
closed = 1;
nodes = (
"364 616 OFFCURVE",
"86 5 OFFCURVE",
"133 5 CURVE",
"175 164 OFFCURVE",
"292 376 OFFCURVE",
"446 526 CURVE SMOOTH",
"516 593 OFFCURVE",
"593 620 OFFCURVE",
"621 595 CURVE",
"629 595 OFFCURVE",
"629 616 OFFCURVE",
"602 616 CURVE SMOOTH"
);
},
{
closed = 1;
nodes = (
"14 600 OFFCURVE",
"-124 228 OFFCURVE",
"11 228 CURVE SMOOTH",
"103 228 OFFCURVE",
"197 428 OFFCURVE",
"154 416 CURVE",
"158 376 OFFCURVE",
"74 233 OFFCURVE",
"13 233 CURVE SMOOTH",
"-109 233 OFFCURVE",
"69 592 OFFCURVE",
"248 592 CURVE SMOOTH",
"347 592 OFFCURVE",
"85 195 OFFCURVE",
"114 19 CURVE SMOOTH",
"115 11 OFFCURVE",
"122 -7 OFFCURVE",
"133 3 CURVE",
"130 26 LINE",
"133 223 OFFCURVE",
"380 600 OFFCURVE",
"252 600 CURVE SMOOTH"
);
}
);
width = 360;
}
);
unicode = 0056;
},
{
glyphname = W;
lastChange = "2016-09-22 09:21:21 +0200";
layers = (
{
layerId = "248CDC77-21EA-41B6-93B8-E98A9208AB16";
name = Regular;
paths = (
{
closed = 1;
nodes = (
"813 589 OFFCURVE",
"820 601 OFFCURVE",
"794 601 CURVE SMOOTH",
"713 601 OFFCURVE",
"521 359 OFFCURVE",
"383 28 CURVE",
"392 251 OFFCURVE",
"433 401 OFFCURVE",
"463 466 CURVE",
"459 473 OFFCURVE",
"442 470 OFFCURVE",
"436 452 CURVE",
"362 367 OFFCURVE",
"264 229 OFFCURVE",
"144 28 CURVE",
"158 100 OFFCURVE",
"199 272 OFFCURVE",
"253 403 CURVE",
"346 481 OFFCURVE",
"432 643 OFFCURVE",
"393 643 CURVE SMOOTH",
"343 643 OFFCURVE",
"286 544 OFFCURVE",
"233 410 CURVE",
"213 397 OFFCURVE",
"194 388 OFFCURVE",
"176 388 CURVE SMOOTH",
"129 388 OFFCURVE",
"284 654 OFFCURVE",
"214 654 CURVE SMOOTH",
"97 654 OFFCURVE",
"0 476 OFFCURVE",
"0 368 CURVE SMOOTH",
"0 285 OFFCURVE",
"57 286 OFFCURVE",
"57 299 CURVE",
"37 308 OFFCURVE",
"28 332 OFFCURVE",
"28 365 CURVE SMOOTH",
"28 491 OFFCURVE",
"133 646 OFFCURVE",
"210 646 CURVE SMOOTH",
"257 646 OFFCURVE",
"91 379 OFFCURVE",
"174 379 CURVE SMOOTH",
"191 379 OFFCURVE",
"209 386 OFFCURVE",
"227 397 CURVE",
"161 238 OFFCURVE",
"121 35 OFFCURVE",
"122 19 CURVE",
"123 5 OFFCURVE",
"137 -4 OFFCURVE",
"143 2 CURVE",
"227 152 OFFCURVE",
"342 319 OFFCURVE",
"425 424 CURVE",
"386 316 OFFCURVE",
"361 143 OFFCURVE",
"362 18 CURVE SMOOTH",
"362 10 OFFCURVE",
"376 -3 OFFCURVE",
"383 5 CURVE",
"617 528 OFFCURVE",
"775 607 OFFCURVE",
"813 589 CURVE"
);
},
{
closed = 1;
nodes = (
"416 637 OFFCURVE",
"337 497 OFFCURVE",
"256 420 CURVE",
"303 538 OFFCURVE",
"358 637 OFFCURVE",
"392 637 CURVE SMOOTH"
);
}
);
width = 598;
}
);
unicode = 0057;
},
{
glyphname = X;
lastChange = "2016-09-22 09:21:21 +0200";
layers = (
{
layerId = "248CDC77-21EA-41B6-93B8-E98A9208AB16";
name = Regular;
paths = (
{
closed = 1;
nodes = (
"42 667 OFFCURVE",
"-102 272 OFFCURVE",
"85 272 CURVE SMOOTH",
"304 272 OFFCURVE",
"412 559 OFFCURVE",
"341 553 CURVE",
"376 523 OFFCURVE",
"248 281 OFFCURVE",
"85 281 CURVE SMOOTH",
"-87 281 OFFCURVE",
"110 661 OFFCURVE",
"401 661 CURVE SMOOTH",
"588 661 OFFCURVE",
"440 343 OFFCURVE",
"348 230 CURVE SMOOTH",
"232 87 OFFCURVE",
"135 7 OFFCURVE",
"81 7 CURVE SMOOTH",
"-11 7 OFFCURVE",
"85 215 OFFCURVE",
"200 245 CURVE",
"192 225 OFFCURVE",
"202 217 OFFCURVE",
"211 217 CURVE SMOOTH",
"232 217 OFFCURVE",
"238 253 OFFCURVE",
"205 253 CURVE SMOOTH",
"68 253 OFFCURVE",
"-38 0 OFFCURVE",
"81 0 CURVE SMOOTH",
"155 0 OFFCURVE",
"239 75 OFFCURVE",
"339 186 CURVE SMOOTH",
"354 202 OFFCURVE",
"430 311 OFFCURVE",
"455 361 CURVE SMOOTH",
"524 495 OFFCURVE",
"562 667 OFFCURVE",
"395 667 CURVE SMOOTH"
);
},
{
closed = 1;
nodes = (
"571 529 OFFCURVE",
"429 374 OFFCURVE",
"334 194 CURVE SMOOTH",
"285 101 OFFCURVE",
"266 0 OFFCURVE",
"319 0 CURVE SMOOTH",
"428 0 OFFCURVE",
"613 248 OFFCURVE",
"577 248 CURVE",
"553 182 OFFCURVE",
"377 7 OFFCURVE",
"323 7 CURVE SMOOTH",
"280 7 OFFCURVE",
"311 111 OFFCURVE",
"357 194 CURVE SMOOTH",
"452 365 OFFCURVE",
"604 521 OFFCURVE",
"689 521 CURVE SMOOTH",
"727 521 OFFCURVE",
"708 417 OFFCURVE",
"605 364 CURVE",
"623 356 OFFCURVE",
"664 386 OFFCURVE",
"688 420 CURVE SMOOTH",
"721 467 OFFCURVE",
"735 529 OFFCURVE",
"682 529 CURVE SMOOTH"
);
}
);
width = 579;
}
);
unicode = 0058;
},
{
glyphname = Y;
lastChange = "2016-09-22 09:21:21 +0200";
layers = (
{
layerId = "248CDC77-21EA-41B6-93B8-E98A9208AB16";
name = Regular;
paths = (
{
closed = 1;
nodes = (
"8 0 OFFCURVE",
"71 205 OFFCURVE",
"195 205 CURVE SMOOTH",
"224 205 OFFCURVE",
"220 170 OFFCURVE",
"199 170 CURVE SMOOTH",
"190 170 OFFCURVE",
"182 184 OFFCURVE",
"192 199 CURVE",
"89 178 OFFCURVE",
"36 5 OFFCURVE",
"111 5 CURVE SMOOTH",
"250 5 OFFCURVE",
"410 649 OFFCURVE",
"533 649 CURVE SMOOTH",
"582 649 OFFCURVE",
"285 261 OFFCURVE",
"175 261 CURVE SMOOTH",
"87 261 OFFCURVE",
"354 652 OFFCURVE",
"303 652 CURVE SMOOTH",
"150 652 OFFCURVE",
"-67 316 OFFCURVE",
"45 316 CURVE SMOOTH",
"93 316 OFFCURVE",
"170 438 OFFCURVE",
"165 478 CURVE",
"208 491 OFFCURVE",
"128 311 OFFCURVE",
"43 311 CURVE SMOOTH",
"-86 311 OFFCURVE",
"97 659 OFFCURVE",
"308 659 CURVE SMOOTH",
"396 659 OFFCURVE",
"131 270 OFFCURVE",
"178 270 CURVE SMOOTH",
"274 270 OFFCURVE",
"566 642 OFFCURVE",
"532 642 CURVE SMOOTH",
"448 642 OFFCURVE",
"276 0 OFFCURVE",
"113 0 CURVE SMOOTH"
);
}
);
width = 334;
}
);
unicode = 0059;
},
{
glyphname = Z;
lastChange = "2016-09-22 09:21:21 +0200";
layers = (
{
layerId = "248CDC77-21EA-41B6-93B8-E98A9208AB16";
name = Regular;
paths = (
{
closed = 1;
nodes = (
"-13 436 OFFCURVE",
"17 472 OFFCURVE",
"83 472 CURVE SMOOTH",
"255 472 OFFCURVE",
"190 217 OFFCURVE",
"80 217 CURVE SMOOTH",
"-46 217 OFFCURVE",
"141 633 OFFCURVE",
"316 633 CURVE SMOOTH",
"367 633 OFFCURVE",
"286 403 OFFCURVE",
"326 403 CURVE SMOOTH",
"419 403 OFFCURVE",
"514 517 OFFCURVE",
"482 517 CURVE SMOOTH",
"416 517 OFFCURVE",
"158 3 OFFCURVE",
"69 3 CURVE SMOOTH",
"-7 3 OFFCURVE",
"165 244 OFFCURVE",
"301 244 CURVE SMOOTH",
"379 244 OFFCURVE",
"228 8 OFFCURVE",
"259 8 CURVE SMOOTH",
"289 8 OFFCURVE",
"344 71 OFFCURVE",
"352 95 CURVE",
"381 95 OFFCURVE",
"305 0 OFFCURVE",
"252 0 CURVE SMOOTH",
"187 0 OFFCURVE",
"340 234 OFFCURVE",
"295 234 CURVE SMOOTH",
"168 234 OFFCURVE",
"17 12 OFFCURVE",
"66 12 CURVE SMOOTH",
"124 12 OFFCURVE",
"399 523 OFFCURVE",
"483 523 CURVE SMOOTH",
"528 523 OFFCURVE",
"433 395 OFFCURVE",
"323 395 CURVE SMOOTH",
"249 395 OFFCURVE",
"350 623 OFFCURVE",
"314 623 CURVE SMOOTH",
"183 623 OFFCURVE",
"-19 224 OFFCURVE",
"84 224 CURVE SMOOTH",
"180 224 OFFCURVE",
"242 465 OFFCURVE",
"80 465 CURVE SMOOTH",
"48 465 OFFCURVE",
"16 451 OFFCURVE",
"5 436 CURVE"
);
}
);
width = 398;
}
);
unicode = 005A;
},
{
glyphname = Zacute;
lastChange = "2016-10-06 02:38:59 +0200";
layers = (
{
layerId = "248CDC77-21EA-41B6-93B8-E98A9208AB16";
name = Regular;
paths = (
{
closed = 1;
nodes = (
"-13 439.009 OFFCURVE",
"17.7201 474.027 OFFCURVE",
"83.4996 474.027 CURVE SMOOTH",
"256.458 474.027 OFFCURVE",
"191.572 218.285 OFFCURVE",
"80.2854 218.285 CURVE SMOOTH",
"-46 218.285 OFFCURVE",
"141.926 636.45 OFFCURVE",
"317.778 636.45 CURVE SMOOTH",
"369.133 636.45 OFFCURVE",
"287.875 405.543 OFFCURVE",
"327.467 405.543 CURVE SMOOTH",
"421.837 405.543 OFFCURVE",
"516.473 520.045 OFFCURVE",
"484.763 520.045 CURVE SMOOTH",
"418.396 520.045 OFFCURVE",
"158.988 3.21338 OFFCURVE",
"69.5848 3.21338 CURVE SMOOTH",
"-7 3.21338 OFFCURVE",
"165.891 245.041 OFFCURVE",
"302.856 245.041 CURVE SMOOTH",
"380.971 245.041 OFFCURVE",
"229.025 8.56055 OFFCURVE",
"260.057 8.56055 CURVE SMOOTH",
"291.085 8.56055 OFFCURVE",
"345.662 71.6982 OFFCURVE",
"354.219 95.2393 CURVE",
"383.111 95.2393 OFFCURVE",
"306.332 0 OFFCURVE",
"253.636 0 CURVE SMOOTH",
"188.362 0 OFFCURVE",
"341.374 235.414 OFFCURVE",
"296.435 235.414 CURVE SMOOTH",
"169.097 235.414 OFFCURVE",
"17.6334 11.7739 OFFCURVE",
"66.3786 11.7739 CURVE SMOOTH",
"124.162 11.7739 OFFCURVE",
"401.298 526.465 OFFCURVE",
"485.731 526.465 CURVE SMOOTH",
"530.772 526.465 OFFCURVE",
"435.54 396.991 OFFCURVE",
"325.327 396.991 CURVE SMOOTH",
"250.423 396.991 OFFCURVE",
"352.016 626.166 OFFCURVE",
"315.634 626.166 CURVE SMOOTH",
"183.851 626.166 OFFCURVE",
"-19 225.779 OFFCURVE",
"84.5656 225.779 CURVE SMOOTH",
"180.868 225.779 OFFCURVE",
"244.005 467.615 OFFCURVE",
"80.2854 467.615 CURVE SMOOTH",
"48.3794 467.615 OFFCURVE",
"15.7719 453.371 OFFCURVE",
"5.38828 438.719 CURVE"
);
},
{
closed = 1;
nodes = (
"431.13 583.25 OFFCURVE",
"429.746 604.698 OFFCURVE",
"413.232 604.119 CURVE SMOOTH",
"388.771 603.254 OFFCURVE",
"385.634 560.252 OFFCURVE",
"418.67 566.506 CURVE SMOOTH",
"456.234 573.625 OFFCURVE",
"456.234 611.108 OFFCURVE",
"446.091 612.138 CURVE",
"449.067 598.898 OFFCURVE",
"437.492 578.946 OFFCURVE",
"419.467 577.538 CURVE"
);
}
);
width = 398;
}
);
leftMetricsKey = Z;
rightMetricsKey = Z;
unicode = 0179;
},
{
glyphname = Zdotaccent;
lastChange = "2016-10-06 02:38:30 +0200";
layers = (
{
layerId = "248CDC77-21EA-41B6-93B8-E98A9208AB16";
name = Regular;
paths = (
{
closed = 1;
nodes = (
"-13 439.009 OFFCURVE",
"17.7201 474.027 OFFCURVE",
"83.4996 474.027 CURVE SMOOTH",
"256.458 474.027 OFFCURVE",
"191.572 218.285 OFFCURVE",
"80.2854 218.285 CURVE SMOOTH",
"-46 218.285 OFFCURVE",
"141.926 636.45 OFFCURVE",
"317.778 636.45 CURVE SMOOTH",
"369.133 636.45 OFFCURVE",
"287.875 405.543 OFFCURVE",
"327.467 405.543 CURVE SMOOTH",
"421.837 405.543 OFFCURVE",
"516.473 520.045 OFFCURVE",
"484.763 520.045 CURVE SMOOTH",
"418.396 520.045 OFFCURVE",
"158.988 3.21338 OFFCURVE",
"69.5848 3.21338 CURVE SMOOTH",
"-7 3.21338 OFFCURVE",
"165.891 245.041 OFFCURVE",
"302.856 245.041 CURVE SMOOTH",
"380.971 245.041 OFFCURVE",
"229.025 8.56055 OFFCURVE",
"260.057 8.56055 CURVE SMOOTH",
"291.085 8.56055 OFFCURVE",
"345.662 71.6982 OFFCURVE",
"354.219 95.2393 CURVE",
"383.111 95.2393 OFFCURVE",
"306.332 0 OFFCURVE",
"253.636 0 CURVE SMOOTH",
"188.362 0 OFFCURVE",
"341.374 235.414 OFFCURVE",
"296.435 235.414 CURVE SMOOTH",
"169.097 235.414 OFFCURVE",
"17.6334 11.7739 OFFCURVE",
"66.3785 11.7739 CURVE SMOOTH",
"124.162 11.7739 OFFCURVE",
"401.298 526.465 OFFCURVE",
"485.731 526.465 CURVE SMOOTH",
"530.772 526.465 OFFCURVE",
"435.54 396.991 OFFCURVE",
"325.327 396.991 CURVE SMOOTH",
"250.423 396.991 OFFCURVE",
"352.016 626.166 OFFCURVE",
"315.634 626.166 CURVE SMOOTH",
"183.851 626.166 OFFCURVE",
"-19 225.779 OFFCURVE",
"84.5655 225.779 CURVE SMOOTH",
"180.868 225.779 OFFCURVE",
"244.005 467.615 OFFCURVE",
"80.2854 467.615 CURVE SMOOTH",
"48.3794 467.615 OFFCURVE",
"15.7718 453.371 OFFCURVE",
"5.38829 438.719 CURVE"
);
},
{
closed = 1;
nodes = (
"459.588 636.45 OFFCURVE",
"464.278 630.65 OFFCURVE",
"461.913 618.336 CURVE SMOOTH",
"455.542 585.151 OFFCURVE",
"385.891 515.911 OFFCURVE",
"368.549 515.911 CURVE SMOOTH",
"355.004 515.911 OFFCURVE",
"408.277 550.298 OFFCURVE",
"450.386 636.45 CURVE"
);
}
);
width = 398;
}
);
leftMetricsKey = Z;
rightMetricsKey = Z;
unicode = 017B;
},
{
glyphname = a;
lastChange = "2016-10-07 01:12:58 +0200";
layers = (
{
anchors = (
{
name = ogonek;
position = "{332, 10}";
},
{
name = top;
position = "{183, 390}";
}
);
layerId = "248CDC77-21EA-41B6-93B8-E98A9208AB16";
name = Regular;
paths = (
{
closed = 1;
nodes = (
"293 107 OFFCURVE",
"201 14 OFFCURVE",
"170 10 CURVE SMOOTH",
"155 7 OFFCURVE",
"184 81 OFFCURVE",
"224 165 CURVE",
"323 272 OFFCURVE",
"418 398 OFFCURVE",
"369 398 CURVE SMOOTH",
"344 398 OFFCURVE",
"299 341 OFFCURVE",
"255 269 CURVE",
"276 325 OFFCURVE",
"291 398 OFFCURVE",
"253 398 CURVE SMOOTH",
"205 398 OFFCURVE",
"123 319 OFFCURVE",
"64 216 CURVE SMOOTH",
"12 124 OFFCURVE",
"-14 7 OFFCURVE",
"24 7 CURVE SMOOTH",
"52 7 OFFCURVE",
"113 45 OFFCURVE",
"177 118 CURVE",
"149 52 OFFCURVE",
"138 0 OFFCURVE",
"163 0 CURVE SMOOTH",
"228 0 OFFCURVE",
"357 158 OFFCURVE",
"334 158 CURVE"
);
},
{
closed = 1;
nodes = (
"396 392 OFFCURVE",
"322 284 OFFCURVE",
"238 194 CURVE",
"286 290 OFFCURVE",
"345 389 OFFCURVE",
"368 391 CURVE SMOOTH"
);
},
{
closed = 1;
nodes = (
"10 17 OFFCURVE",
"41 122 OFFCURVE",
"88 203 CURVE SMOOTH",
"145 303 OFFCURVE",
"218 388 OFFCURVE",
"252 388 CURVE SMOOTH",
"281 388 OFFCURVE",
"257 289 OFFCURVE",
"235 235 CURVE",
"218 204 OFFCURVE",
"202 172 OFFCURVE",
"188 143 CURVE",
"111 61 OFFCURVE",
"50 17 OFFCURVE",
"31 17 CURVE SMOOTH"
);
}
);
width = 362;
}
);
unicode = 0061;
},
{
glyphname = aogonek;
lastChange = "2016-09-22 09:21:31 +0200";
layers = (
{
layerId = "248CDC77-21EA-41B6-93B8-E98A9208AB16";
name = Regular;
paths = (
{
closed = 1;
nodes = (
"242 -7 OFFCURVE",
"229 -9 OFFCURVE",
"220 -14 CURVE SMOOTH",
"153 -52 OFFCURVE",
"98 -152 OFFCURVE",
"154 -152 CURVE SMOOTH",
"194 -152 OFFCURVE",
"229 -88 OFFCURVE",
"214 -88 CURVE",
"203 -107 OFFCURVE",
"173 -146 OFFCURVE",
"153 -146 CURVE SMOOTH",
"122 -146 OFFCURVE",
"175 -58 OFFCURVE",
"243 -11 CURVE"
);
},
{
closed = 1;
nodes = (
"299 100 OFFCURVE",
"207 8 OFFCURVE",
"176 2 CURVE SMOOTH",
"161 0 OFFCURVE",
"190 74 OFFCURVE",
"230 158 CURVE",
"329 265 OFFCURVE",
"424 392 OFFCURVE",
"375 392 CURVE SMOOTH",
"350 392 OFFCURVE",
"305 334 OFFCURVE",
"261 262 CURVE",
"282 319 OFFCURVE",
"297 392 OFFCURVE",
"259 392 CURVE SMOOTH",
"211 392 OFFCURVE",
"129 312 OFFCURVE",
"70 209 CURVE SMOOTH",
"17 117 OFFCURVE",
"-8 0 OFFCURVE",
"29 0 CURVE SMOOTH",
"58 0 OFFCURVE",
"119 38 OFFCURVE",
"183 111 CURVE",
"155 45 OFFCURVE",
"143 -7 OFFCURVE",
"169 -7 CURVE SMOOTH",
"234 -7 OFFCURVE",
"362 151 OFFCURVE",
"340 151 CURVE"
);
},
{
closed = 1;
nodes = (
"402 385 OFFCURVE",
"328 277 OFFCURVE",
"244 187 CURVE",
"292 284 OFFCURVE",
"350 382 OFFCURVE",
"374 383 CURVE SMOOTH"
);
},
{
closed = 1;
nodes = (
"16 10 OFFCURVE",
"47 116 OFFCURVE",
"93 196 CURVE SMOOTH",
"151 296 OFFCURVE",
"224 381 OFFCURVE",
"258 381 CURVE SMOOTH",
"287 381 OFFCURVE",
"263 281 OFFCURVE",
"241 227 CURVE",
"224 197 OFFCURVE",
"208 166 OFFCURVE",
"194 136 CURVE",
"117 55 OFFCURVE",
"55 10 OFFCURVE",
"37 10 CURVE SMOOTH"
);
}
);
width = 375;
}
);
unicode = 0105;
},
{
glyphname = b;
lastChange = "2016-09-22 09:27:12 +0200";
layers = (
{
layerId = "248CDC77-21EA-41B6-93B8-E98A9208AB16";
name = Regular;
paths = (
{
closed = 1;
nodes = (
"13 123 OFFCURVE",
"-27 0 OFFCURVE",
"28 0 CURVE SMOOTH",
"136 0 OFFCURVE",
"258 194 OFFCURVE",
"280 257 CURVE",
"344 251 OFFCURVE",
"388 283 OFFCURVE",
"381 292 CURVE",
"359 274 OFFCURVE",
"311 264 OFFCURVE",
"286 268 CURVE",
"310 332 OFFCURVE",
"316 406 OFFCURVE",
"292 406 CURVE SMOOTH",
"260 406 OFFCURVE",
"218 341 OFFCURVE",
"218 308 CURVE SMOOTH",
"218 287 OFFCURVE",
"234 270 OFFCURVE",
"258 260 CURVE",
"226 173 OFFCURVE",
"93 10 OFFCURVE",
"29 10 CURVE SMOOTH",
"-2 10 OFFCURVE",
"32 108 OFFCURVE",
"82 197 CURVE SMOOTH",
"107 241 OFFCURVE",
"133 286 OFFCURVE",
"158 330 CURVE",
"308 478 OFFCURVE",
"370 600 OFFCURVE",
"329 600 CURVE SMOOTH",
"295 600 OFFCURVE",
"187 444 OFFCURVE",
"76 239 CURVE SMOOTH"
);
},
{
closed = 1;
nodes = (
"345 584 OFFCURVE",
"289 484 OFFCURVE",
"179 367 CURVE",
"254 496 OFFCURVE",
"313 584 OFFCURVE",
"329 584 CURVE SMOOTH"
);
},
{
closed = 1;
nodes = (
"227 341 OFFCURVE",
"273 397 OFFCURVE",
"288 397 CURVE SMOOTH",
"299 397 OFFCURVE",
"284 317 OFFCURVE",
"264 274 CURVE",
"249 277 OFFCURVE",
"233 291 OFFCURVE",
"232 304 CURVE SMOOTH"
);
}
);
width = 321;
}
);
unicode = 0062;
},
{
glyphname = c;
lastChange = "2016-09-27 02:47:16 +0200";
layers = (
{
anchors = (
{
name = bottom;
position = "{138, 0}";
},
{
name = top;
position = "{138, 390}";
}
);
layerId = "248CDC77-21EA-41B6-93B8-E98A9208AB16";
name = Regular;
paths = (
{
closed = 1;
nodes = (
"157 257 OFFCURVE",
"165 236 OFFCURVE",
"182 236 CURVE SMOOTH",
"246 236 OFFCURVE",
"328 396 OFFCURVE",
"250 396 CURVE SMOOTH",
"117 396 OFFCURVE",
"-65 0 OFFCURVE",
"47 0 CURVE SMOOTH",
"154 0 OFFCURVE",
"284 206 OFFCURVE",
"254 206 CURVE",
"230 160 OFFCURVE",
"122 10 OFFCURVE",
"47 10 CURVE SMOOTH",
"-34 10 OFFCURVE",
"159 386 OFFCURVE",
"250 386 CURVE SMOOTH",
"286 386 OFFCURVE",
"242 266 OFFCURVE",
"185 246 CURVE",
"200 259 OFFCURVE",
"183 278 OFFCURVE",
"170 267 CURVE SMOOTH"
);
}
);
width = 276;
}
);
unicode = 0063;
},
{
glyphname = cacute;
lastChange = "2016-09-22 09:21:31 +0200";
layers = (
{
layerId = "248CDC77-21EA-41B6-93B8-E98A9208AB16";
name = Regular;
paths = (
{
closed = 1;
nodes = (
"163 254 OFFCURVE",
"167 236 OFFCURVE",
"185 236 CURVE SMOOTH",
"247 236 OFFCURVE",
"330 396 OFFCURVE",
"253 396 CURVE SMOOTH",
"119 396 OFFCURVE",
"-62 0 OFFCURVE",
"44 0 CURVE SMOOTH",
"151 0 OFFCURVE",
"290 206 OFFCURVE",
"260 206 CURVE",
"241 171 OFFCURVE",
"120 10 OFFCURVE",
"45 10 CURVE SMOOTH",
"-33 10 OFFCURVE",
"164 386 OFFCURVE",
"253 386 CURVE SMOOTH",
"289 386 OFFCURVE",
"240 268 OFFCURVE",
"190 248 CURVE",
"208 265 OFFCURVE",
"190 291 OFFCURVE",
"172 267 CURVE SMOOTH"
);
},
{
closed = 1;
nodes = (
"311 475 OFFCURVE",
"278 438 OFFCURVE",
"268 427 CURVE",
"281 416 OFFCURVE",
"331 473 OFFCURVE",
"337 502 CURVE SMOOTH",
"340 514 OFFCURVE",
"332 517 OFFCURVE",
"327 517 CURVE"
);
}
);
width = 296;
}
);
unicode = 0107;
},
{
glyphname = d;
lastChange = "2016-10-07 01:02:01 +0200";
layers = (
{
anchors = (
{
name = center;
position = "{208, 195}";
}
);
layerId = "248CDC77-21EA-41B6-93B8-E98A9208AB16";
name = Regular;
paths = (
{
closed = 1;
nodes = (
"345 131 OFFCURVE",
"213 11 OFFCURVE",
"174 11 CURVE SMOOTH",
"156 11 OFFCURVE",
"191 104 OFFCURVE",
"242 197 CURVE SMOOTH",
"261 230 OFFCURVE",
"281 265 OFFCURVE",
"300 298 CURVE",
"437 430 OFFCURVE",
"550 601 OFFCURVE",
"499 601 CURVE SMOOTH",
"466 601 OFFCURVE",
"358 452 OFFCURVE",
"261 282 CURVE",
"281 338 OFFCURVE",
"283 391 OFFCURVE",
"246 391 CURVE SMOOTH",
"198 391 OFFCURVE",
"115 328 OFFCURVE",
"57 225 CURVE SMOOTH",
"-9 107 OFFCURVE",
"-24 -1 OFFCURVE",
"20 -1 CURVE SMOOTH",
"57 -1 OFFCURVE",
"119 47 OFFCURVE",
"177 120 CURVE",
"145 47 OFFCURVE",
"147 0 OFFCURVE",
"169 0 CURVE SMOOTH",
"265 0 OFFCURVE",
"447 245 OFFCURVE",
"413 245 CURVE"
);
},
{
closed = 1;
nodes = (
"516 582 OFFCURVE",
"436 447 OFFCURVE",
"315 323 CURVE",
"400 465 OFFCURVE",
"478 582 OFFCURVE",
"496 582 CURVE SMOOTH"
);
},
{
closed = 1;
nodes = (
"3 10 OFFCURVE",
"22 109 OFFCURVE",
"81 212 CURVE SMOOTH",
"138 311 OFFCURVE",
"211 381 OFFCURVE",
"245 381 CURVE SMOOTH",
"276 381 OFFCURVE",
"258 287 OFFCURVE",
"235 235 CURVE",
"231 229 OFFCURVE",
"227 221 OFFCURVE",
"223 215 CURVE",
"223 214 OFFCURVE",
"223 214 OFFCURVE",
"223 214 CURVE",
"223 214 OFFCURVE",
"223 214 OFFCURVE",
"223 214 CURVE",
"221 209 OFFCURVE",
"218 205 OFFCURVE",
"216 200 CURVE SMOOTH",
"208 184 OFFCURVE",
"199 172 OFFCURVE",
"192 156 CURVE",
"132 74 OFFCURVE",
"52 10 OFFCURVE",
"24 10 CURVE SMOOTH"
);
}
);
width = 416;
}
);
unicode = 0064;
},
{
glyphname = e;
lastChange = "2016-10-07 01:12:28 +0200";
layers = (
{
anchors = (
{
name = bottom;
position = "{153, 0}";
},
{
name = ogonek;
position = "{266, 10}";
},
{
name = top;
position = "{153, 390}";
}
);
layerId = "248CDC77-21EA-41B6-93B8-E98A9208AB16";
name = Regular;
paths = (
{
closed = 1;
nodes = (
"84 187 OFFCURVE",
"84 158 OFFCURVE",
"108 158 CURVE SMOOTH",
"207 158 OFFCURVE",
"346 394 OFFCURVE",
"253 394 CURVE SMOOTH",
"113 394 OFFCURVE",
"-74 -1 OFFCURVE",
"46 -1 CURVE SMOOTH",
"153 -1 OFFCURVE",
"292 205 OFFCURVE",
"262 205 CURVE",
"244 170 OFFCURVE",
"122 9 OFFCURVE",
"47 9 CURVE SMOOTH",
"-44 9 OFFCURVE",
"151 384 OFFCURVE",
"253 384 CURVE SMOOTH",
"309 384 OFFCURVE",
"180 170 OFFCURVE",
"109 170 CURVE SMOOTH",
"102 170 OFFCURVE",
"93 177 OFFCURVE",
"92 191 CURVE"
);
}
);
width = 279;
}
);
unicode = 0065;
},
{
glyphname = eogonek;
lastChange = "2016-09-22 09:21:31 +0200";
layers = (
{
layerId = "248CDC77-21EA-41B6-93B8-E98A9208AB16";
name = Regular;
paths = (
{
closed = 1;
nodes = (
"123 1 OFFCURVE",
"109 -2 OFFCURVE",
"101 -7 CURVE SMOOTH",
"34 -44 OFFCURVE",
"-21 -145 OFFCURVE",
"35 -145 CURVE SMOOTH",
"75 -145 OFFCURVE",
"110 -80 OFFCURVE",
"95 -80 CURVE",
"85 -100 OFFCURVE",
"53 -138 OFFCURVE",
"34 -138 CURVE SMOOTH",
"3 -138 OFFCURVE",
"56 -51 OFFCURVE",
"124 -4 CURVE"
);
},
{
closed = 1;
nodes = (
"88 187 OFFCURVE",
"88 158 OFFCURVE",
"112 158 CURVE SMOOTH",
"211 158 OFFCURVE",
"350 394 OFFCURVE",
"257 394 CURVE SMOOTH",
"117 394 OFFCURVE",
"-70 -1 OFFCURVE",
"50 -1 CURVE SMOOTH",
"157 -1 OFFCURVE",
"296 205 OFFCURVE",
"266 205 CURVE",
"248 170 OFFCURVE",
"126 9 OFFCURVE",
"51 9 CURVE SMOOTH",
"-40 9 OFFCURVE",
"155 384 OFFCURVE",
"257 384 CURVE SMOOTH",
"313 384 OFFCURVE",
"184 170 OFFCURVE",
"113 170 CURVE SMOOTH",
"106 170 OFFCURVE",
"97 177 OFFCURVE",
"96 191 CURVE"
);
}
);
width = 292;
}
);
unicode = 0119;
},
{
glyphname = f;
lastChange = "2016-09-22 09:21:31 +0200";
layers = (
{
layerId = "248CDC77-21EA-41B6-93B8-E98A9208AB16";
name = Regular;
paths = (
{
closed = 1;
nodes = (
"241 331 OFFCURVE",
"185 311 OFFCURVE",
"159 296 CURVE SMOOTH",
"151 292 OFFCURVE",
"151 287 OFFCURVE",
"155 287 CURVE",
"162 290 OFFCURVE",
"169 292 OFFCURVE",
"175 295 CURVE",
"163 127 OFFCURVE",
"-25 -181 OFFCURVE",
"-62 -181 CURVE SMOOTH",
"-92 -181 OFFCURVE",
"49 146 OFFCURVE",
"152 319 CURVE",
"248 386 OFFCURVE",
"391 600 OFFCURVE",
"331 600 CURVE SMOOTH",
"247 600 OFFCURVE",
"-165 -191 OFFCURVE",
"-61 -191 CURVE SMOOTH",
"-4 -191 OFFCURVE",
"193 140 OFFCURVE",
"184 297 CURVE",
"236 314 OFFCURVE",
"284 320 OFFCURVE",
"307 314 CURVE",
"310 317 OFFCURVE",
"315 331 OFFCURVE",
"278 331 CURVE SMOOTH"
);
},
{
closed = 1;
nodes = (
"350 592 OFFCURVE",
"303 470 OFFCURVE",
"159 332 CURVE",
"197 410 OFFCURVE",
"313 592 OFFCURVE",
"329 592 CURVE SMOOTH"
);
}
);
width = 253;
}
);
unicode = 0066;
},
{
glyphname = g;
lastChange = "2016-09-22 09:21:31 +0200";
layers = (
{
layerId = "248CDC77-21EA-41B6-93B8-E98A9208AB16";
name = Regular;
paths = (
{
closed = 1;
nodes = (
"325 382 OFFCURVE",
"299 328 OFFCURVE",
"264 258 CURVE",
"282 313 OFFCURVE",
"295 392 OFFCURVE",
"255 392 CURVE SMOOTH",
"207 392 OFFCURVE",
"125 313 OFFCURVE",
"67 210 CURVE SMOOTH",
"14 118 OFFCURVE",
"-11 1 OFFCURVE",
"26 1 CURVE SMOOTH",
"67 1 OFFCURVE",
"171 88 OFFCURVE",
"206 146 CURVE",
"183 100 OFFCURVE",
"159 55 OFFCURVE",
"138 19 CURVE",
"-18 -53 OFFCURVE",
"-117 -238 OFFCURVE",
"-39 -238 CURVE SMOOTH",
"47 -238 OFFCURVE",
"288 248 OFFCURVE",
"340 360 CURVE SMOOTH",
"344 370 OFFCURVE",
"337 392 OFFCURVE",
"328 388 CURVE"
);
},
{
closed = 1;
nodes = (
"-83 -230 OFFCURVE",
"-11 -76 OFFCURVE",
"132 5 CURVE",
"130 1 OFFCURVE",
"2 -230 OFFCURVE",
"-40 -230 CURVE SMOOTH"
);
},
{
closed = 1;
nodes = (
"12 11 OFFCURVE",
"44 116 OFFCURVE",
"89 196 CURVE SMOOTH",
"147 297 OFFCURVE",
"221 382 OFFCURVE",
"254 382 CURVE SMOOTH",
"291 382 OFFCURVE",
"256 235 OFFCURVE",
"237 206 CURVE",
"237 206 OFFCURVE",
"238 206 OFFCURVE",
"238 206 CURVE",
"231 193 OFFCURVE",
"224 179 OFFCURVE",
"217 166 CURVE",
"156 90 OFFCURVE",
"52 11 OFFCURVE",
"33 11 CURVE SMOOTH"
);
}
);
width = 308;
}
);
unicode = 0067;
},
{
glyphname = h;
lastChange = "2016-09-22 09:21:31 +0200";
layers = (
{
layerId = "248CDC77-21EA-41B6-93B8-E98A9208AB16";
name = Regular;
paths = (
{
closed = 1;
nodes = (
"301 409 OFFCURVE",
"209 335 OFFCURVE",
"115 220 CURVE",
"138 262 OFFCURVE",
"162 302 OFFCURVE",
"185 341 CURVE",
"326 476 OFFCURVE",
"410 602 OFFCURVE",
"360 602 CURVE SMOOTH",
"321 602 OFFCURVE",
"181 401 OFFCURVE",
"74 199 CURVE SMOOTH",
"57 167 OFFCURVE",
"8 58 OFFCURVE",
"-5 25 CURVE",
"-43 17 OFFCURVE",
"-75 5 OFFCURVE",
"-80 -1 CURVE SMOOTH",
"-82 -3 OFFCURVE",
"-79 -7 OFFCURVE",
"-74 -7 CURVE",
"-13 16 OFFCURVE",
"70 15 OFFCURVE",
"79 11 CURVE",
"81 15 OFFCURVE",
"86 31 OFFCURVE",
"50 31 CURVE SMOOTH",
"40 31 OFFCURVE",
"29 29 OFFCURVE",
"19 28 CURVE",
"33 57 OFFCURVE",
"65 124 OFFCURVE",
"86 167 CURVE",
"182 292 OFFCURVE",
"300 392 OFFCURVE",
"320 392 CURVE SMOOTH",
"323 392 OFFCURVE",
"306 357 OFFCURVE",
"275 295 CURVE SMOOTH",
"215 181 OFFCURVE",
"131 1 OFFCURVE",
"182 1 CURVE SMOOTH",
"262 1 OFFCURVE",
"338 119 OFFCURVE",
"304 119 CURVE",
"259 47 OFFCURVE",
"205 11 OFFCURVE",
"184 11 CURVE SMOOTH",
"143 11 OFFCURVE",
"343 351 OFFCURVE",
"343 393 CURVE SMOOTH",
"343 401 OFFCURVE",
"337 409 OFFCURVE",
"325 409 CURVE SMOOTH"
);
},
{
closed = 1;
nodes = (
"376 584 OFFCURVE",
"313 482 OFFCURVE",
"202 369 CURVE",
"276 490 OFFCURVE",
"341 584 OFFCURVE",
"357 584 CURVE SMOOTH"
);
}
);
width = 359;
}
);
unicode = 0068;
},
{
glyphname = i;
lastChange = "2016-09-22 09:21:31 +0200";
layers = (
{
layerId = "248CDC77-21EA-41B6-93B8-E98A9208AB16";
name = Regular;
paths = (
{
closed = 1;
nodes = (
"163 371 OFFCURVE",
"102 270 OFFCURVE",
"64 197 CURVE SMOOTH",
"11 97 OFFCURVE",
"-34 0 OFFCURVE",
"7 0 CURVE SMOOTH",
"71 0 OFFCURVE",
"202 155 OFFCURVE",
"178 155 CURVE",
"127 93 OFFCURVE",
"37 10 OFFCURVE",
"13 10 CURVE SMOOTH",
"-4 10 OFFCURVE",
"26 82 OFFCURVE",
"74 169 CURVE SMOOTH",
"112 238 OFFCURVE",
"176 352 OFFCURVE",
"181 362 CURVE SMOOTH",
"187 371 OFFCURVE",
"179 393 OFFCURVE",
"170 389 CURVE"
);
},
{
closed = 1;
nodes = (
"235 456 OFFCURVE",
"234 477 OFFCURVE",
"218 476 CURVE SMOOTH",
"194 476 OFFCURVE",
"191 433 OFFCURVE",
"223 440 CURVE SMOOTH",
"260 446 OFFCURVE",
"260 484 OFFCURVE",
"250 484 CURVE",
"253 472 OFFCURVE",
"242 452 OFFCURVE",
"224 451 CURVE"
);
}
);
width = 210;
}
);
unicode = 0069;
},
{
glyphname = j;
lastChange = "2016-09-22 09:21:31 +0200";
layers = (
{
layerId = "248CDC77-21EA-41B6-93B8-E98A9208AB16";
name = Regular;
paths = (
{
closed = 1;
nodes = (
"226 448 OFFCURVE",
"215 428 OFFCURVE",
"197 427 CURVE",
"209 433 OFFCURVE",
"207 454 OFFCURVE",
"191 453 CURVE SMOOTH",
"167 452 OFFCURVE",
"164 410 OFFCURVE",
"196 416 CURVE SMOOTH",
"233 423 OFFCURVE",
"233 460 OFFCURVE",
"223 461 CURVE"
);
},
{
closed = 1;
nodes = (
"109 326 OFFCURVE",
"-3 49 OFFCURVE",
"-120 -130 CURVE SMOOTH",
"-183 -227 OFFCURVE",
"-253 -294 OFFCURVE",
"-308 -294 CURVE SMOOTH",
"-374 -294 OFFCURVE",
"-322 -149 OFFCURVE",
"-257 -132 CURVE",
"-270 -144 OFFCURVE",
"-268 -163 OFFCURVE",
"-256 -163 CURVE SMOOTH",
"-230 -163 OFFCURVE",
"-224 -124 OFFCURVE",
"-248 -124 CURVE SMOOTH",
"-338 -124 OFFCURVE",
"-400 -301 OFFCURVE",
"-310 -301 CURVE SMOOTH",
"-113 -301 OFFCURVE",
"94 253 OFFCURVE",
"163 350 CURVE",
"167 358 OFFCURVE",
"151 365 OFFCURVE",
"134 350 CURVE"
);
}
);
width = 130;
}
);
unicode = 006A;
},
{
glyphname = k;
lastChange = "2016-09-22 09:13:06 +0200";
layers = (
{
layerId = "248CDC77-21EA-41B6-93B8-E98A9208AB16";
name = Regular;
paths = (
{
closed = 1;
nodes = (
"301 398 OFFCURVE",
"155 259 OFFCURVE",
"76 164 CURVE",
"173 342 OFFCURVE",
"293 527 OFFCURVE",
"341 584 CURVE",
"344 594 OFFCURVE",
"318 595 OFFCURVE",
"304 577 CURVE SMOOTH",
"297 569 OFFCURVE",
"110 314 OFFCURVE",
"-20 10 CURVE SMOOTH",
"-24 4 OFFCURVE",
"-6 3 OFFCURVE",
"-1 15 CURVE SMOOTH",
"17 53 OFFCURVE",
"38 94 OFFCURVE",
"60 134 CURVE",
"108 180 OFFCURVE",
"197 252 OFFCURVE",
"211 252 CURVE SMOOTH",
"226 252 OFFCURVE",
"88 8 OFFCURVE",
"152 8 CURVE SMOOTH",
"203 8 OFFCURVE",
"344 172 OFFCURVE",
"315 170 CURVE",
"290 148 OFFCURVE",
"181 18 OFFCURVE",
"151 18 CURVE SMOOTH",
"126 18 OFFCURVE",
"266 264 OFFCURVE",
"221 264 CURVE SMOOTH",
"202 264 OFFCURVE",
"158 232 OFFCURVE",
"119 196 CURVE",
"195 286 OFFCURVE",
"299 369 OFFCURVE",
"349 380 CURVE",
"345 373 OFFCURVE",
"343 357 OFFCURVE",
"355 357 CURVE SMOOTH",
"375 357 OFFCURVE",
"395 398 OFFCURVE",
"367 398 CURVE SMOOTH"
);
}
);
width = 354;
}
);
unicode = 006B;
},
{
glyphname = l;
lastChange = "2016-09-22 09:25:59 +0200";
layers = (
{
guideLines = (
{
angle = 60.9284;
position = "{120, 277}";
}
);
layerId = "248CDC77-21EA-41B6-93B8-E98A9208AB16";
name = Regular;
paths = (
{
closed = 1;
nodes = (
"236 191 OFFCURVE",
"52 10 OFFCURVE",
"13 10 CURVE SMOOTH",
"-5 10 OFFCURVE",
"35 104 OFFCURVE",
"86 196 CURVE SMOOTH",
"105 230 OFFCURVE",
"125 264 OFFCURVE",
"144 297 CURVE",
"281 429 OFFCURVE",
"394 600 OFFCURVE",
"343 600 CURVE SMOOTH",
"304 600 OFFCURVE",
"166 402 OFFCURVE",
"60 200 CURVE SMOOTH",
"4 94 OFFCURVE",
"-31 -1 OFFCURVE",
"6 -1 CURVE SMOOTH",
"102 -1 OFFCURVE",
"305 265 OFFCURVE",
"277 265 CURVE"
);
},
{
closed = 1;
nodes = (
"360 581 OFFCURVE",
"280 446 OFFCURVE",
"159 322 CURVE",
"244 464 OFFCURVE",
"322 581 OFFCURVE",
"340 581 CURVE SMOOTH"
);
}
);
width = 260;
}
);
unicode = 006C;
},
{
glyphname = lslash;
lastChange = "2016-10-06 01:23:19 +0200";
layers = (
{
layerId = "248CDC77-21EA-41B6-93B8-E98A9208AB16";
name = Regular;
paths = (
{
closed = 1;
nodes = (
"488 615 OFFCURVE",
"346 410 OFFCURVE",
"238 204 CURVE SMOOTH",
"181 96 OFFCURVE",
"148 0 OFFCURVE",
"186 0 CURVE SMOOTH",
"284 0 OFFCURVE",
"491 270 OFFCURVE",
"462 270 CURVE",
"421 195 OFFCURVE",
"233 11 OFFCURVE",
"193 11 CURVE SMOOTH",
"175 11 OFFCURVE",
"211 95 OFFCURVE",
"263 190 CURVE SMOOTH",
"372 385 OFFCURVE",
"501 596 OFFCURVE",
"525 596 CURVE SMOOTH",
"547 596 OFFCURVE",
"489 491 OFFCURVE",
"341 355 CURVE",
"339 339 LINE",
"490 475 OFFCURVE",
"583 615 OFFCURVE",
"528 615 CURVE SMOOTH"
);
},
{
closed = 1;
nodes = (
"674 610 OFFCURVE",
"662 585 OFFCURVE",
"587 585 CURVE SMOOTH",
"517 585 OFFCURVE",
"459 600 OFFCURVE",
"391 600 CURVE SMOOTH",
"328 600 OFFCURVE",
"304 569 OFFCURVE",
"313 563 CURVE",
"325 576 OFFCURVE",
"349 582 OFFCURVE",
"383 582 CURVE SMOOTH",
"437 582 OFFCURVE",
"482 564 OFFCURVE",
"583 564 CURVE SMOOTH",
"661 564 OFFCURVE",
"680 595 OFFCURVE",
"680 607 CURVE SMOOTH",
"680 611 OFFCURVE",
"676 613 OFFCURVE",
"674 610 CURVE"
);
}
);
width = 600;
}
);
unicode = 0142;
},
{
glyphname = m;
lastChange = "2016-09-22 09:21:35 +0200";
layers = (
{
layerId = "248CDC77-21EA-41B6-93B8-E98A9208AB16";
name = Regular;
paths = (
{
closed = 1;
nodes = (
"391 46 OFFCURVE",
"337 11 OFFCURVE",
"316 11 CURVE SMOOTH",
"287 11 OFFCURVE",
"383 191 OFFCURVE",
"439 292 CURVE SMOOTH",
"459 328 OFFCURVE",
"485 371 OFFCURVE",
"451 371 CURVE SMOOTH",
"429 371 OFFCURVE",
"343 310 OFFCURVE",
"254 209 CURVE",
"298 292 OFFCURVE",
"341 373 OFFCURVE",
"341 392 CURVE SMOOTH",
"341 401 OFFCURVE",
"336 407 OFFCURVE",
"324 407 CURVE SMOOTH",
"297 407 OFFCURVE",
"186 316 OFFCURVE",
"81 178 CURVE",
"129 268 OFFCURVE",
"183 360 OFFCURVE",
"216 406 CURVE",
"216 406 OFFCURVE",
"214 438 OFFCURVE",
"199 427 CURVE",
"196 423 OFFCURVE",
"71 235 OFFCURVE",
"-13 25 CURVE",
"-38 20 OFFCURVE",
"-73 7 OFFCURVE",
"-77 1 CURVE SMOOTH",
"-79 -1 OFFCURVE",
"-76 -5 OFFCURVE",
"-72 -5 CURVE",
"-10 18 OFFCURVE",
"72 17 OFFCURVE",
"81 13 CURVE",
"83 17 OFFCURVE",
"88 33 OFFCURVE",
"58 33 CURVE SMOOTH",
"32 33 OFFCURVE",
"16 29 OFFCURVE",
"8 28 CURVE",
"17 51 OFFCURVE",
"31 80 OFFCURVE",
"44 107 CURVE",
"145 263 OFFCURVE",
"296 391 OFFCURVE",
"319 391 CURVE SMOOTH",
"326 391 OFFCURVE",
"281 311 OFFCURVE",
"214 166 CURVE",
"136 67 OFFCURVE",
"128 -4 OFFCURVE",
"160 13 CURVE",
"163 24 OFFCURVE",
"195 100 OFFCURVE",
"227 156 CURVE",
"310 268 OFFCURVE",
"421 348 OFFCURVE",
"443 349 CURVE",
"437 337 OFFCURVE",
"238 0 OFFCURVE",
"314 0 CURVE SMOOTH",
"394 0 OFFCURVE",
"471 118 OFFCURVE",
"437 118 CURVE"
);
}
);
width = 479;
}
);
unicode = 006D;
},
{
glyphname = n;
lastChange = "2016-10-06 02:57:04 +0200";
layers = (
{
anchors = (
{
name = bottom;
position = "{182, 0}";
},
{
name = top;
position = "{182, 390}";
}
);
layerId = "248CDC77-21EA-41B6-93B8-E98A9208AB16";
name = Regular;
paths = (
{
closed = 1;
nodes = (
"259 37 OFFCURVE",
"206 1 OFFCURVE",
"185 1 CURVE SMOOTH",
"144 1 OFFCURVE",
"352 341 OFFCURVE",
"352 382 CURVE SMOOTH",
"352 391 OFFCURVE",
"346 398 OFFCURVE",
"334 398 CURVE SMOOTH",
"307 398 OFFCURVE",
"196 307 OFFCURVE",
"91 169 CURVE",
"139 259 OFFCURVE",
"193 351 OFFCURVE",
"226 396 CURVE",
"226 396 OFFCURVE",
"224 429 OFFCURVE",
"209 417 CURVE",
"206 414 OFFCURVE",
"82 228 OFFCURVE",
"-2 17 CURVE",
"-29 12 OFFCURVE",
"-58 1 OFFCURVE",
"-64 -5 CURVE SMOOTH",
"-66 -7 OFFCURVE",
"-63 -11 OFFCURVE",
"-59 -11 CURVE",
"3 12 OFFCURVE",
"85 8 OFFCURVE",
"94 4 CURVE",
"97 8 OFFCURVE",
"99 25 OFFCURVE",
"72 25 CURVE SMOOTH",
"47 25 OFFCURVE",
"29 22 OFFCURVE",
"18 21 CURVE",
"29 46 OFFCURVE",
"43 75 OFFCURVE",
"59 106 CURVE",
"158 254 OFFCURVE",
"306 381 OFFCURVE",
"329 381 CURVE SMOOTH",
"332 381 OFFCURVE",
"315 346 OFFCURVE",
"284 285 CURVE SMOOTH",
"226 170 OFFCURVE",
"132 -9 OFFCURVE",
"183 -9 CURVE SMOOTH",
"263 -9 OFFCURVE",
"340 109 OFFCURVE",
"305 109 CURVE"
);
}
);
width = 363;
}
);
unicode = 006E;
},
{
glyphname = nacute;
lastChange = "2016-09-22 09:21:36 +0200";
layers = (
{
layerId = "248CDC77-21EA-41B6-93B8-E98A9208AB16";
name = Regular;
paths = (
{
closed = 1;
nodes = (
"301 402 OFFCURVE",
"175 297 OFFCURVE",
"64 143 CURVE SMOOTH",
"40 112 OFFCURVE",
"18 65 OFFCURVE",
"39 88 CURVE",
"139 245 OFFCURVE",
"300 385 OFFCURVE",
"324 385 CURVE SMOOTH",
"327 385 OFFCURVE",
"310 351 OFFCURVE",
"279 289 CURVE SMOOTH",
"219 175 OFFCURVE",
"127 -5 OFFCURVE",
"178 -5 CURVE SMOOTH",
"258 -5 OFFCURVE",
"335 113 OFFCURVE",
"300 113 CURVE",
"254 41 OFFCURVE",
"201 5 OFFCURVE",
"180 5 CURVE SMOOTH",
"139 5 OFFCURVE",
"347 345 OFFCURVE",
"347 387 CURVE SMOOTH",
"347 395 OFFCURVE",
"341 402 OFFCURVE",
"329 402 CURVE SMOOTH"
);
},
{
closed = 1;
nodes = (
"-8 27 OFFCURVE",
"-76 4 OFFCURVE",
"-82 -4 CURVE SMOOTH",
"-84 -7 OFFCURVE",
"-81 -10 OFFCURVE",
"-77 -10 CURVE",
"-15 13 OFFCURVE",
"67 12 OFFCURVE",
"76 8 CURVE",
"79 12 OFFCURVE",
"83 27 OFFCURVE",
"48 27 CURVE SMOOTH"
);
},
{
closed = 1;
nodes = (
"201 418 OFFCURVE",
"74 228 OFFCURVE",
"-10 14 CURVE",
"10 18 LINE",
"58 130 OFFCURVE",
"168 326 OFFCURVE",
"221 400 CURVE",
"221 400 OFFCURVE",
"219 432 OFFCURVE",
"205 421 CURVE"
);
},
{
closed = 1;
nodes = (
"317 475 OFFCURVE",
"284 438 OFFCURVE",
"274 427 CURVE",
"287 416 OFFCURVE",
"337 473 OFFCURVE",
"343 502 CURVE SMOOTH",
"346 514 OFFCURVE",
"338 517 OFFCURVE",
"333 517 CURVE"
);
}
);
width = 360;
}
);
leftMetricsKey = n;
rightMetricsKey = n;
unicode = 0144;
},
{
glyphname = o;
lastChange = "2016-10-06 02:57:04 +0200";
layers = (
{
anchors = (
{
name = top;
position = "{141, 390}";
}
);
layerId = "248CDC77-21EA-41B6-93B8-E98A9208AB16";
name = Regular;
paths = (
{
closed = 1;
nodes = (
"105 397 OFFCURVE",
"-77 1 OFFCURVE",
"46 1 CURVE SMOOTH",
"187 1 OFFCURVE",
"369 397 OFFCURVE",
"249 397 CURVE SMOOTH"
);
},
{
closed = 1;
nodes = (
"-43 10 OFFCURVE",
"149 386 OFFCURVE",
"249 386 CURVE SMOOTH",
"337 386 OFFCURVE",
"146 10 OFFCURVE",
"46 10 CURVE SMOOTH"
);
}
);
width = 282;
}
);
unicode = 006F;
},
{
glyphname = oacute;
lastChange = "2016-09-22 09:21:40 +0200";
layers = (
{
layerId = "248CDC77-21EA-41B6-93B8-E98A9208AB16";
name = Regular;
paths = (
{
closed = 1;
nodes = (
"112 395 OFFCURVE",
"-70 -1 OFFCURVE",
"53 -1 CURVE SMOOTH",
"194 -1 OFFCURVE",
"376 395 OFFCURVE",
"256 395 CURVE SMOOTH"
);
},
{
closed = 1;
nodes = (
"-35 9 OFFCURVE",
"157 385 OFFCURVE",
"256 385 CURVE SMOOTH",
"344 385 OFFCURVE",
"154 9 OFFCURVE",
"53 9 CURVE SMOOTH"
);
},
{
closed = 1;
nodes = (
"318 475 OFFCURVE",
"285 438 OFFCURVE",
"275 427 CURVE",
"288 416 OFFCURVE",
"338 473 OFFCURVE",
"344 502 CURVE SMOOTH",
"347 514 OFFCURVE",
"339 517 OFFCURVE",
"334 517 CURVE"
);
}
);
width = 335;
}
);
unicode = 00F3;
},
{
glyphname = p;
lastChange = "2016-09-22 09:21:40 +0200";
layers = (
{
layerId = "248CDC77-21EA-41B6-93B8-E98A9208AB16";
name = Regular;
paths = (
{
closed = 1;
nodes = (
"257 391 OFFCURVE",
"196 339 OFFCURVE",
"147 280 CURVE",
"173 325 OFFCURVE",
"194 359 OFFCURVE",
"209 376 CURVE",
"214 391 OFFCURVE",
"185 388 OFFCURVE",
"172 370 CURVE SMOOTH",
"166 360 OFFCURVE",
"-22 43 OFFCURVE",
"-131 -245 CURVE",
"-135 -252 OFFCURVE",
"-119 -252 OFFCURVE",
"-113 -241 CURVE",
"-73 -142 OFFCURVE",
"30 67 OFFCURVE",
"112 217 CURVE",
"155 284 OFFCURVE",
"246 380 OFFCURVE",
"286 380 CURVE SMOOTH",
"315 380 OFFCURVE",
"296 272 OFFCURVE",
"238 173 CURVE SMOOTH",
"184 80 OFFCURVE",
"110 12 OFFCURVE",
"82 12 CURVE SMOOTH",
"52 12 OFFCURVE",
"136 174 OFFCURVE",
"234 210 CURVE",
"233 214 OFFCURVE",
"226 215 OFFCURVE",
"210 209 CURVE SMOOTH",
"116 167 OFFCURVE",
"24 0 OFFCURVE",
"87 0 CURVE SMOOTH",
"125 0 OFFCURVE",
"210 75 OFFCURVE",
"256 152 CURVE SMOOTH",
"326 267 OFFCURVE",
"338 391 OFFCURVE",
"288 391 CURVE SMOOTH"
);
}
);
width = 321;
}
);
unicode = 0070;
},
{
glyphname = q;
lastChange = "2016-09-22 09:21:40 +0200";
layers = (
{
layerId = "248CDC77-21EA-41B6-93B8-E98A9208AB16";
name = Regular;
paths = (
{
closed = 1;
nodes = (
"316 368 OFFCURVE",
"293 329 OFFCURVE",
"259 268 CURVE",
"275 322 OFFCURVE",
"285 392 OFFCURVE",
"247 392 CURVE SMOOTH",
"199 392 OFFCURVE",
"117 312 OFFCURVE",
"58 209 CURVE SMOOTH",
"6 117 OFFCURVE",
"-20 0 OFFCURVE",
"18 0 CURVE SMOOTH",
"53 0 OFFCURVE",
"134 64 OFFCURVE",
"179 119 CURVE",
"124 11 OFFCURVE",
"62 -119 OFFCURVE",
"15 -244 CURVE",
"11 -251 OFFCURVE",
"27 -251 OFFCURVE",
"33 -239 CURVE",
"93 -92 OFFCURVE",
"295 305 OFFCURVE",
"355 378 CURVE",
"361 392 OFFCURVE",
"331 390 OFFCURVE",
"319 371 CURVE SMOOTH"
);
},
{
closed = 1;
nodes = (
"4 10 OFFCURVE",
"35 116 OFFCURVE",
"82 196 CURVE SMOOTH",
"139 296 OFFCURVE",
"212 381 OFFCURVE",
"246 381 CURVE SMOOTH",
"275 381 OFFCURVE",
"259 290 OFFCURVE",
"242 237 CURVE",
"227 210 OFFCURVE",
"212 181 OFFCURVE",
"195 148 CURVE",
"133 78 OFFCURVE",
"42 10 OFFCURVE",
"25 10 CURVE SMOOTH"
);
}
);
width = 284;
}
);
unicode = 0071;
},
{
glyphname = r;
lastChange = "2016-10-07 01:09:19 +0200";
layers = (
{
anchors = (
{
name = bottom;
position = "{126, 0}";
}
);
layerId = "248CDC77-21EA-41B6-93B8-E98A9208AB16";
name = Regular;
paths = (
{
closed = 1;
nodes = (
"305 310 OFFCURVE",
"263 263 OFFCURVE",
"236 263 CURVE SMOOTH",
"221 263 OFFCURVE",
"217 290 OFFCURVE",
"221 308 CURVE",
"314 399 OFFCURVE",
"350 467 OFFCURVE",
"314 467 CURVE SMOOTH",
"283 467 OFFCURVE",
"210 379 OFFCURVE",
"202 307 CURVE",
"169 274 OFFCURVE",
"106 212 OFFCURVE",
"60 147 CURVE",
"102 237 OFFCURVE",
"151 325 OFFCURVE",
"193 378 CURVE",
"200 389 OFFCURVE",
"176 394 OFFCURVE",
"161 376 CURVE",
"152 361 OFFCURVE",
"40 186 OFFCURVE",
"-14 15 CURVE",
"-46 8 OFFCURVE",
"-71 1 OFFCURVE",
"-74 -4 CURVE SMOOTH",
"-76 -6 OFFCURVE",
"-73 -10 OFFCURVE",
"-69 -10 CURVE",
"-13 6 OFFCURVE",
"75 8 OFFCURVE",
"84 4 CURVE",
"86 8 OFFCURVE",
"91 24 OFFCURVE",
"55 24 CURVE SMOOTH",
"38 24 OFFCURVE",
"20 22 OFFCURVE",
"4 19 CURVE",
"14 45 OFFCURVE",
"25 70 OFFCURVE",
"37 95 CURVE",
"85 171 OFFCURVE",
"155 246 OFFCURVE",
"203 291 CURVE",
"202 277 OFFCURVE",
"213 253 OFFCURVE",
"231 253 CURVE SMOOTH",
"282 253 OFFCURVE",
"332 331 OFFCURVE",
"319 331 CURVE"
);
},
{
closed = 1;
nodes = (
"332 457 OFFCURVE",
"284 386 OFFCURVE",
"223 325 CURVE",
"244 389 OFFCURVE",
"296 457 OFFCURVE",
"314 457 CURVE SMOOTH"
);
}
);
width = 251;
}
);
unicode = 0072;
},
{
glyphname = s;
lastChange = "2016-09-22 09:21:40 +0200";
layers = (
{
layerId = "248CDC77-21EA-41B6-93B8-E98A9208AB16";
name = Regular;
paths = (
{
closed = 1;
nodes = (
"175 397 OFFCURVE",
"161 272 OFFCURVE",
"148 160 CURVE SMOOTH",
"139 78 OFFCURVE",
"106 8 OFFCURVE",
"55 8 CURVE SMOOTH",
"-20 8 OFFCURVE",
"24 170 OFFCURVE",
"121 170 CURVE",
"124 175 OFFCURVE",
"115 180 OFFCURVE",
"103 180 CURVE SMOOTH",
"6 180 OFFCURVE",
"-49 -2 OFFCURVE",
"58 -2 CURVE SMOOTH",
"126 -2 OFFCURVE",
"162 73 OFFCURVE",
"172 160 CURVE SMOOTH",
"185 268 OFFCURVE",
"203 387 OFFCURVE",
"270 387 CURVE SMOOTH",
"323 387 OFFCURVE",
"292 279 OFFCURVE",
"245 258 CURVE",
"258 269 OFFCURVE",
"255 287 OFFCURVE",
"244 287 CURVE SMOOTH",
"222 287 OFFCURVE",
"213 248 OFFCURVE",
"235 248 CURVE SMOOTH",
"297 248 OFFCURVE",
"354 397 OFFCURVE",
"270 397 CURVE SMOOTH"
);
}
);
width = 279;
}
);
unicode = 0073;
},
{
glyphname = sacute;
lastChange = "2016-09-22 09:21:40 +0200";
layers = (
{
layerId = "248CDC77-21EA-41B6-93B8-E98A9208AB16";
name = Regular;
paths = (
{
closed = 1;
nodes = (
"175 397 OFFCURVE",
"161 272 OFFCURVE",
"148 160 CURVE SMOOTH",
"139 79 OFFCURVE",
"106 8 OFFCURVE",
"55 8 CURVE SMOOTH",
"-20 8 OFFCURVE",
"23 170 OFFCURVE",
"121 170 CURVE",
"124 175 OFFCURVE",
"115 180 OFFCURVE",
"103 180 CURVE SMOOTH",
"6 180 OFFCURVE",
"-49 -2 OFFCURVE",
"58 -2 CURVE SMOOTH",
"125 -2 OFFCURVE",
"162 73 OFFCURVE",
"172 160 CURVE SMOOTH",
"185 268 OFFCURVE",
"203 387 OFFCURVE",
"270 387 CURVE SMOOTH",
"323 387 OFFCURVE",
"292 279 OFFCURVE",
"245 258 CURVE",
"258 269 OFFCURVE",
"255 287 OFFCURVE",
"244 287 CURVE SMOOTH",
"222 287 OFFCURVE",
"213 248 OFFCURVE",
"235 248 CURVE SMOOTH",
"297 248 OFFCURVE",
"354 397 OFFCURVE",
"270 397 CURVE SMOOTH"
);
},
{
closed = 1;
nodes = (
"355 517 OFFCURVE",
"363 511 OFFCURVE",
"361 499 CURVE SMOOTH",
"354 466 OFFCURVE",
"299 419 OFFCURVE",
"284 419 CURVE SMOOTH",
"274 419 OFFCURVE",
"316 448 OFFCURVE",
"346 517 CURVE"
);
}
);
width = 277;
}
);
leftMetricsKey = s;
unicode = 015B;
},
{
glyphname = t;
lastChange = "2016-10-07 01:38:04 +0200";
layers = (
{
anchors = (
{
name = bottom;
position = "{130, 0}";
}
);
layerId = "248CDC77-21EA-41B6-93B8-E98A9208AB16";
name = Regular;
paths = (
{
closed = 1;
nodes = (
"223 191 OFFCURVE",
"46 5 OFFCURVE",
"6 5 CURVE SMOOTH",
"-13 5 OFFCURVE",
"38 131 OFFCURVE",
"91 227 CURVE SMOOTH",
"98 238 OFFCURVE",
"104 249 OFFCURVE",
"110 260 CURVE",
"181 330 OFFCURVE",
"234 390 OFFCURVE",
"271 449 CURVE",
"301 453 OFFCURVE",
"357 452 OFFCURVE",
"376 449 CURVE",
"380 454 OFFCURVE",
"378 467 OFFCURVE",
"350 467 CURVE",
"324 467 OFFCURVE",
"302 467 OFFCURVE",
"278 465 CURVE",
"306 511 OFFCURVE",
"315 539 OFFCURVE",
"293 539 CURVE SMOOTH",
"276 539 OFFCURVE",
"244 509 OFFCURVE",
"207 460 CURVE",
"165 457 OFFCURVE",
"129 449 OFFCURVE",
"112 444 CURVE SMOOTH",
"102 441 OFFCURVE",
"99 434 OFFCURVE",
"108 434 CURVE",
"136 440 OFFCURVE",
"179 444 OFFCURVE",
"195 445 CURVE",
"158 394 OFFCURVE",
"126 344 OFFCURVE",
"85 267 CURVE SMOOTH",
"4 113 OFFCURVE",
"-36 -5 OFFCURVE",
"-1 -5 CURVE SMOOTH",
"97 -5 OFFCURVE",
"294 268 OFFCURVE",
"265 268 CURVE"
);
},
{
closed = 1;
nodes = (
"300 524 OFFCURVE",
"292 503 OFFCURVE",
"268 465 CURVE",
"256 464 OFFCURVE",
"244 463 OFFCURVE",
"235 462 CURVE",
"264 503 OFFCURVE",
"283 524 OFFCURVE",
"292 524 CURVE SMOOTH"
);
},
{
closed = 1;
nodes = (
"233 447 OFFCURVE",
"246 449 OFFCURVE",
"259 449 CURVE",
"227 399 OFFCURVE",
"182 346 OFFCURVE",
"120 281 CURVE",
"163 356 OFFCURVE",
"194 403 OFFCURVE",
"224 446 CURVE"
);
}
);
width = 261;
}
);
unicode = 0074;
},
{
glyphname = u;
lastChange = "2016-09-22 09:21:40 +0200";
layers = (
{
layerId = "248CDC77-21EA-41B6-93B8-E98A9208AB16";
name = Regular;
paths = (
{
closed = 1;
nodes = (
"287 98 OFFCURVE",
"220 11 OFFCURVE",
"181 11 CURVE SMOOTH",
"164 11 OFFCURVE",
"217 125 OFFCURVE",
"266 221 CURVE",
"295 270 OFFCURVE",
"340 335 OFFCURVE",
"344 367 CURVE SMOOTH",
"346 380 OFFCURVE",
"341 394 OFFCURVE",
"332 394 CURVE SMOOTH",
"323 394 OFFCURVE",
"279 292 OFFCURVE",
"236 206 CURVE",
"200 161 OFFCURVE",
"67 13 OFFCURVE",
"31 13 CURVE SMOOTH",
"-7 13 OFFCURVE",
"264 409 OFFCURVE",
"181 394 CURVE",
"172 316 OFFCURVE",
"-44 2 OFFCURVE",
"26 2 CURVE SMOOTH",
"82 2 OFFCURVE",
"161 94 OFFCURVE",
"207 154 CURVE",
"181 102 OFFCURVE",
"141 1 OFFCURVE",
"176 1 CURVE SMOOTH",
"246 1 OFFCURVE",
"332 116 OFFCURVE",
"296 116 CURVE"
);
}
);
width = 357;
}
);
unicode = 0075;
},
{
glyphname = v;
lastChange = "2016-09-22 09:21:40 +0200";
layers = (
{
layerId = "248CDC77-21EA-41B6-93B8-E98A9208AB16";
name = Regular;
paths = (
{
closed = 1;
nodes = (
"257 340 OFFCURVE",
"72 111 OFFCURVE",
"24 23 CURVE",
"76 167 OFFCURVE",
"124 260 OFFCURVE",
"180 394 CURVE",
"180 409 OFFCURVE",
"148 392 OFFCURVE",
"148 392 CURVE SMOOTH",
"148 392 OFFCURVE",
"53 193 OFFCURVE",
"0 3 CURVE",
"0 -7 OFFCURVE",
"21 2 OFFCURVE",
"24 4 CURVE",
"84 101 OFFCURVE",
"232 285 OFFCURVE",
"323 386 CURVE",
"323 386 OFFCURVE",
"330 396 OFFCURVE",
"314 395 CURVE"
);
}
);
width = 250;
}
);
unicode = 0076;
},
{
glyphname = w;
lastChange = "2016-10-07 01:05:45 +0200";
layers = (
{
anchors = (
{
name = top;
position = "{187, 390}";
}
);
layerId = "248CDC77-21EA-41B6-93B8-E98A9208AB16";
name = Regular;
paths = (
{
closed = 1;
nodes = (
"398 201 OFFCURVE",
"406 212 OFFCURVE",
"400 216 CURVE",
"384 216 OFFCURVE",
"364 232 OFFCURVE",
"361 271 CURVE",
"398 376 OFFCURVE",
"422 468 OFFCURVE",
"391 468 CURVE SMOOTH",
"353 468 OFFCURVE",
"332 341 OFFCURVE",
"343 266 CURVE",
"275 121 OFFCURVE",
"172 3 OFFCURVE",
"144 3 CURVE SMOOTH",
"97 3 OFFCURVE",
"205 256 OFFCURVE",
"236 297 CURVE",
"232 313 OFFCURVE",
"213 301 OFFCURVE",
"200 286 CURVE",
"142 218 OFFCURVE",
"40 108 OFFCURVE",
"-7 23 CURVE",
"53 161 OFFCURVE",
"149 332 OFFCURVE",
"205 393 CURVE",
"208 405 OFFCURVE",
"186 406 OFFCURVE",
"173 393 CURVE SMOOTH",
"173 393 OFFCURVE",
"27 185 OFFCURVE",
"-29 13 CURVE",
"-46 9 OFFCURVE",
"-73 1 OFFCURVE",
"-77 -4 CURVE SMOOTH",
"-80 -6 OFFCURVE",
"-76 -11 OFFCURVE",
"-72 -11 CURVE",
"-23 6 OFFCURVE",
"64 6 OFFCURVE",
"73 2 CURVE",
"75 6 OFFCURVE",
"79 22 OFFCURVE",
"43 22 CURVE SMOOTH",
"30 22 OFFCURVE",
"15 20 OFFCURVE",
"2 18 CURVE",
"51 96 OFFCURVE",
"109 162 OFFCURVE",
"177 240 CURVE",
"136 151 OFFCURVE",
"82 -9 OFFCURVE",
"139 -9 CURVE SMOOTH",
"200 -9 OFFCURVE",
"292 121 OFFCURVE",
"348 241 CURVE",
"353 217 OFFCURVE",
"368 201 OFFCURVE",
"386 201 CURVE SMOOTH"
);
},
{
closed = 1;
nodes = (
"404 457 OFFCURVE",
"390 386 OFFCURVE",
"358 301 CURVE",
"356 367 OFFCURVE",
"372 457 OFFCURVE",
"389 457 CURVE SMOOTH"
);
}
);
width = 374;
}
);
unicode = 0077;
},
{
glyphname = x;
lastChange = "2016-09-22 09:21:40 +0200";
layers = (
{
layerId = "248CDC77-21EA-41B6-93B8-E98A9208AB16";
name = Regular;
paths = (
{
closed = 1;
nodes = (
"298 386 OFFCURVE",
"298 400 OFFCURVE",
"281 390 CURVE",
"268 380 OFFCURVE",
"203 313 OFFCURVE",
"134 236 CURVE",
"136 309 OFFCURVE",
"138 374 OFFCURVE",
"138 385 CURVE SMOOTH",
"139 410 OFFCURVE",
"106 385 OFFCURVE",
"106 385 CURVE",
"108 206 LINE",
"40 127 OFFCURVE",
"-26 44 OFFCURVE",
"-39 5 CURVE",
"-39 -2 OFFCURVE",
"-34 -6 OFFCURVE",
"-31 -1 CURVE",
"-16 31 OFFCURVE",
"43 106 OFFCURVE",
"109 182 CURVE",
"110 3 LINE",
"110 3 OFFCURVE",
"130 -14 OFFCURVE",
"130 4 CURVE",
"130 18 OFFCURVE",
"132 118 OFFCURVE",
"134 211 CURVE",
"200 287 OFFCURVE",
"266 359 OFFCURVE",
"298 386 CURVE"
);
}
);
width = 226;
}
);
unicode = 0078;
},
{
glyphname = y;
lastChange = "2016-09-22 09:11:31 +0200";
layers = (
{
layerId = "248CDC77-21EA-41B6-93B8-E98A9208AB16";
name = Regular;
paths = (
{
closed = 1;
nodes = (
"295 392 OFFCURVE",
"256 293 OFFCURVE",
"213 207 CURVE",
"178 162 OFFCURVE",
"34 10 OFFCURVE",
"-2 10 CURVE SMOOTH",
"-40 10 OFFCURVE",
"231 407 OFFCURVE",
"148 391 CURVE",
"139 313 OFFCURVE",
"-77 0 OFFCURVE",
"-7 0 CURVE SMOOTH",
"56 0 OFFCURVE",
"172 139 OFFCURVE",
"199 176 CURVE",
"193 160 OFFCURVE",
"119 26 OFFCURVE",
"68 -54 CURVE SMOOTH",
"-8 -169 OFFCURVE",
"-76 -235 OFFCURVE",
"-124 -235 CURVE SMOOTH",
"-206 -235 OFFCURVE",
"-159 -72 OFFCURVE",
"-58 -44 CURVE",
"-63 -53 OFFCURVE",
"-66 -67 OFFCURVE",
"-53 -67 CURVE SMOOTH",
"-32 -67 OFFCURVE",
"-19 -32 OFFCURVE",
"-41 -32 CURVE SMOOTH",
"-170 -32 OFFCURVE",
"-234 -244 OFFCURVE",
"-123 -244 CURVE SMOOTH",
"-55 -244 OFFCURVE",
"5 -173 OFFCURVE",
"83 -64 CURVE SMOOTH",
"155 40 OFFCURVE",
"304 331 OFFCURVE",
"317 370 CURVE",
"316 384 OFFCURVE",
"310 392 OFFCURVE",
"304 392 CURVE SMOOTH"
);
}
);
width = 275;
}
);
unicode = 0079;
},
{
glyphname = z;
lastChange = "2016-09-22 09:21:42 +0200";
layers = (
{
layerId = "248CDC77-21EA-41B6-93B8-E98A9208AB16";
name = Regular;
paths = (
{
closed = 1;
nodes = (
"302 386 OFFCURVE",
"278 361 OFFCURVE",
"249 322 CURVE",
"227 307 OFFCURVE",
"206 295 OFFCURVE",
"196 295 CURVE SMOOTH",
"175 295 OFFCURVE",
"248 416 OFFCURVE",
"194 416 CURVE SMOOTH",
"119 416 OFFCURVE",
"31 245 OFFCURVE",
"56 249 CURVE",
"56 249 OFFCURVE",
"152 406 OFFCURVE",
"194 406 CURVE SMOOTH",
"211 406 OFFCURVE",
"154 284 OFFCURVE",
"191 284 CURVE SMOOTH",
"203 284 OFFCURVE",
"215 288 OFFCURVE",
"229 294 CURVE",
"204 259 OFFCURVE",
"177 218 OFFCURVE",
"151 177 CURVE",
"56 139 OFFCURVE",
"-37 -11 OFFCURVE",
"15 -11 CURVE SMOOTH",
"43 -11 OFFCURVE",
"102 77 OFFCURVE",
"161 169 CURVE",
"172 174 OFFCURVE",
"182 176 OFFCURVE",
"191 176 CURVE SMOOTH",
"215 176 OFFCURVE",
"102 0 OFFCURVE",
"169 0 CURVE SMOOTH",
"218 0 OFFCURVE",
"299 103 OFFCURVE",
"265 103 CURVE",
"257 88 OFFCURVE",
"193 8 OFFCURVE",
"169 8 CURVE SMOOTH",
"134 8 OFFCURVE",
"250 185 OFFCURVE",
"191 185 CURVE SMOOTH",
"184 185 OFFCURVE",
"177 185 OFFCURVE",
"170 183 CURVE",
"198 227 OFFCURVE",
"226 271 OFFCURVE",
"250 305 CURVE",
"299 335 OFFCURVE",
"341 386 OFFCURVE",
"316 386 CURVE SMOOTH"
);
},
{
closed = 1;
nodes = (
"-8 -4 OFFCURVE",
"65 109 OFFCURVE",
"137 156 CURVE",
"82 71 OFFCURVE",
"31 -4 OFFCURVE",
"14 -4 CURVE SMOOTH"
);
}
);
width = 308;
}
);
unicode = 007A;
},
{
glyphname = zacute;
lastChange = "2016-09-22 09:21:42 +0200";
layers = (
{
layerId = "248CDC77-21EA-41B6-93B8-E98A9208AB16";
name = Regular;
paths = (
{
closed = 1;
nodes = (
"304 475 OFFCURVE",
"271 438 OFFCURVE",
"261 427 CURVE",
"274 416 OFFCURVE",
"324 473 OFFCURVE",
"331 502 CURVE SMOOTH",
"334 514 OFFCURVE",
"325 517 OFFCURVE",
"320 517 CURVE"
);
},
{
closed = 1;
nodes = (
"302 386 OFFCURVE",
"278 361 OFFCURVE",
"249 322 CURVE",
"227 307 OFFCURVE",
"206 295 OFFCURVE",
"196 295 CURVE SMOOTH",
"175 295 OFFCURVE",
"248 416 OFFCURVE",
"194 416 CURVE SMOOTH",
"119 416 OFFCURVE",
"31 245 OFFCURVE",
"56 249 CURVE",
"56 249 OFFCURVE",
"152 406 OFFCURVE",
"194 406 CURVE SMOOTH",
"211 406 OFFCURVE",
"154 284 OFFCURVE",
"191 284 CURVE SMOOTH",
"203 284 OFFCURVE",
"215 288 OFFCURVE",
"229 294 CURVE",
"204 259 OFFCURVE",
"177 218 OFFCURVE",
"151 177 CURVE",
"56 139 OFFCURVE",
"-37 -11 OFFCURVE",
"15 -11 CURVE SMOOTH",
"43 -11 OFFCURVE",
"102 77 OFFCURVE",
"161 169 CURVE",
"172 174 OFFCURVE",
"182 176 OFFCURVE",
"191 176 CURVE SMOOTH",
"215 176 OFFCURVE",
"102 0 OFFCURVE",
"169 0 CURVE SMOOTH",
"218 0 OFFCURVE",
"299 103 OFFCURVE",
"265 103 CURVE",
"257 88 OFFCURVE",
"193 8 OFFCURVE",
"169 8 CURVE SMOOTH",
"134 8 OFFCURVE",
"250 185 OFFCURVE",
"191 185 CURVE SMOOTH",
"184 185 OFFCURVE",
"177 185 OFFCURVE",
"170 183 CURVE",
"198 227 OFFCURVE",
"226 271 OFFCURVE",
"250 305 CURVE",
"299 335 OFFCURVE",
"341 386 OFFCURVE",
"316 386 CURVE SMOOTH"
);
},
{
closed = 1;
nodes = (
"-8 -4 OFFCURVE",
"65 109 OFFCURVE",
"137 156 CURVE",
"82 71 OFFCURVE",
"31 -4 OFFCURVE",
"14 -4 CURVE SMOOTH"
);
}
);
width = 308;
}
);
leftMetricsKey = z;
rightMetricsKey = z;
unicode = 017A;
},
{
glyphname = zdotaccent;
lastChange = "2016-09-22 09:21:42 +0200";
layers = (
{
layerId = "248CDC77-21EA-41B6-93B8-E98A9208AB16";
name = Regular;
paths = (
{
closed = 1;
nodes = (
"302 386 OFFCURVE",
"278 361 OFFCURVE",
"249 322 CURVE",
"227 307 OFFCURVE",
"206 295 OFFCURVE",
"196 295 CURVE SMOOTH",
"175 295 OFFCURVE",
"248 416 OFFCURVE",
"194 416 CURVE SMOOTH",
"119 416 OFFCURVE",
"31 245 OFFCURVE",
"56 249 CURVE",
"56 249 OFFCURVE",
"152 406 OFFCURVE",
"194 406 CURVE SMOOTH",
"211 406 OFFCURVE",
"154 284 OFFCURVE",
"191 284 CURVE SMOOTH",
"203 284 OFFCURVE",
"215 288 OFFCURVE",
"229 294 CURVE",
"204 259 OFFCURVE",
"177 218 OFFCURVE",
"151 177 CURVE",
"56 139 OFFCURVE",
"-37 -11 OFFCURVE",
"15 -11 CURVE SMOOTH",
"43 -11 OFFCURVE",
"102 77 OFFCURVE",
"161 169 CURVE",
"172 174 OFFCURVE",
"182 176 OFFCURVE",
"191 176 CURVE SMOOTH",
"215 176 OFFCURVE",
"102 0 OFFCURVE",
"169 0 CURVE SMOOTH",
"218 0 OFFCURVE",
"299 103 OFFCURVE",
"265 103 CURVE",
"257 88 OFFCURVE",
"193 8 OFFCURVE",
"169 8 CURVE SMOOTH",
"134 8 OFFCURVE",
"250 185 OFFCURVE",
"191 185 CURVE SMOOTH",
"184 185 OFFCURVE",
"177 185 OFFCURVE",
"170 183 CURVE",
"198 227 OFFCURVE",
"226 271 OFFCURVE",
"250 305 CURVE",
"299 335 OFFCURVE",
"341 386 OFFCURVE",
"316 386 CURVE SMOOTH"
);
},
{
closed = 1;
nodes = (
"-8 -4 OFFCURVE",
"65 109 OFFCURVE",
"137 156 CURVE",
"82 71 OFFCURVE",
"31 -4 OFFCURVE",
"14 -4 CURVE SMOOTH"
);
},
{
closed = 1;
nodes = (
"302 456 OFFCURVE",
"301 477 OFFCURVE",
"285 476 CURVE SMOOTH",
"261 476 OFFCURVE",
"258 433 OFFCURVE",
"290 440 CURVE SMOOTH",
"327 446 OFFCURVE",
"327 484 OFFCURVE",
"317 484 CURVE",
"320 472 OFFCURVE",
"309 452 OFFCURVE",
"291 451 CURVE"
);
}
);
width = 308;
}
);
leftMetricsKey = z;
rightMetricsKey = z;
unicode = 017C;
},
{
glyphname = zero;
lastChange = "2016-09-28 02:09:36 +0200";
layers = (
{
layerId = "248CDC77-21EA-41B6-93B8-E98A9208AB16";
name = Regular;
paths = (
{
closed = 1;
nodes = (
"158 502 OFFCURVE",
"-34 -8 OFFCURVE",
"202 -8 CURVE SMOOTH",
"445 -8 OFFCURVE",
"642 502 OFFCURVE",
"404 502 CURVE SMOOTH"
);
},
{
closed = 1;
nodes = (
"-11 5 OFFCURVE",
"205 489 OFFCURVE",
"409 489 CURVE SMOOTH",
"612 489 OFFCURVE",
"406 5 OFFCURVE",
"204 5 CURVE SMOOTH"
);
}
);
width = 600;
}
);
unicode = 0030;
},
{
glyphname = one;
lastChange = "2016-09-27 02:44:42 +0200";
layers = (
{
layerId = "248CDC77-21EA-41B6-93B8-E98A9208AB16";
name = Regular;
paths = (
{
closed = 1;
nodes = (
"484 522 OFFCURVE",
"456 499 OFFCURVE",
"456 499 CURVE SMOOTH",
"456 499 OFFCURVE",
"419 454 OFFCURVE",
"364 367 CURVE",
"286 295 OFFCURVE",
"156 198 OFFCURVE",
"62 181 CURVE",
"52 176 OFFCURVE",
"69 164 OFFCURVE",
"81 164 CURVE SMOOTH",
"138 164 OFFCURVE",
"260 250 OFFCURVE",
"336 318 CURVE",
"292 246 OFFCURVE",
"219 145 OFFCURVE",
"189 44 CURVE SMOOTH",
"186 33 OFFCURVE",
"188 10 OFFCURVE",
"199 18 CURVE",
"239 147 OFFCURVE",
"344 286 OFFCURVE",
"394 371 CURVE",
"455 439 OFFCURVE",
"521 522 OFFCURVE",
"501 522 CURVE SMOOTH"
);
},
{
closed = 1;
nodes = (
"182 27 OFFCURVE",
"101 -2 OFFCURVE",
"88 -12 CURVE SMOOTH",
"81 -17 OFFCURVE",
"80 -24 OFFCURVE",
"86 -24 CURVE",
"206 17 OFFCURVE",
"305 6 OFFCURVE",
"318 0 CURVE",
"323 6 OFFCURVE",
"325 27 OFFCURVE",
"269 27 CURVE SMOOTH"
);
}
);
width = 600;
}
);
unicode = 0031;
},
{
glyphname = two;
lastChange = "2016-09-27 02:42:34 +0200";
layers = (
{
layerId = "248CDC77-21EA-41B6-93B8-E98A9208AB16";
name = Regular;
paths = (
{
closed = 1;
nodes = (
"283 496 OFFCURVE",
"150 373 OFFCURVE",
"150 277 CURVE SMOOTH",
"150 258 OFFCURVE",
"156 210 OFFCURVE",
"213 210 CURVE SMOOTH",
"300 210 OFFCURVE",
"372 284 OFFCURVE",
"372 326 CURVE SMOOTH",
"372 333 OFFCURVE",
"371 337 OFFCURVE",
"368 341 CURVE SMOOTH",
"365 344 OFFCURVE",
"361 345 OFFCURVE",
"356 346 CURVE",
"350 289 OFFCURVE",
"271 220 OFFCURVE",
"211 220 CURVE SMOOTH",
"195 220 OFFCURVE",
"183 224 OFFCURVE",
"175 232 CURVE SMOOTH",
"168 239 OFFCURVE",
"164 250 OFFCURVE",
"164 263 CURVE SMOOTH",
"164 348 OFFCURVE",
"304 483 OFFCURVE",
"437 483 CURVE SMOOTH",
"505 483 OFFCURVE",
"546 453 OFFCURVE",
"547 392 CURVE SMOOTH",
"549 241 OFFCURVE",
"127 82 OFFCURVE",
"86 -14 CURVE",
"102 -9 LINE",
"188 92 OFFCURVE",
"568 214 OFFCURVE",
"568 391 CURVE SMOOTH",
"568 453 OFFCURVE",
"520 496 OFFCURVE",
"435 496 CURVE SMOOTH"
);
},
{
closed = 1;
nodes = (
"210 26 OFFCURVE",
"105 -1 OFFCURVE",
"76 -16 CURVE SMOOTH",
"61 -24 OFFCURVE",
"64 -29 OFFCURVE",
"69 -29 CURVE",
"197 17 OFFCURVE",
"341 6 OFFCURVE",
"355 -3 CURVE",
"359 3 OFFCURVE",
"359 26 OFFCURVE",
"296 26 CURVE SMOOTH"
);
}
);
width = 600;
}
);
unicode = 0032;
},
{
glyphname = three;
lastChange = "2016-09-28 01:35:41 +0200";
layers = (
{
layerId = "248CDC77-21EA-41B6-93B8-E98A9208AB16";
name = Regular;
paths = (
{
closed = 1;
nodes = (
"517 491 LINE",
"335 352 LINE",
"266 323 OFFCURVE",
"244 302 OFFCURVE",
"244 302 CURVE SMOOTH",
"244 302 OFFCURVE",
"237 286 OFFCURVE",
"262 286 CURVE SMOOTH",
"271 286 OFFCURVE",
"306 310 OFFCURVE",
"347 341 CURVE",
"431 374 OFFCURVE",
"479 325 OFFCURVE",
"479 269 CURVE SMOOTH",
"479 166 OFFCURVE",
"376 11 OFFCURVE",
"242 11 CURVE SMOOTH",
"120 11 OFFCURVE",
"141 170 OFFCURVE",
"203 193 CURVE",
"196 217 OFFCURVE",
"130 187 OFFCURVE",
"130 103 CURVE SMOOTH",
"130 48 OFFCURVE",
"176 0 OFFCURVE",
"235 0 CURVE SMOOTH",
"402 0 OFFCURVE",
"503 161 OFFCURVE",
"503 270 CURVE SMOOTH",
"502 324 OFFCURVE",
"459 382 OFFCURVE",
"368 361 CURVE",
"446 421 OFFCURVE",
"546 499 OFFCURVE",
"546 499 CURVE"
);
},
{
closed = 1;
nodes = (
"444 483 OFFCURVE",
"268 502 OFFCURVE",
"255 509 CURVE",
"250 503 OFFCURVE",
"244 481 OFFCURVE",
"304 477 CURVE SMOOTH",
"480 466 OFFCURVE",
"572 504 OFFCURVE",
"587 511 CURVE SMOOTH",
"599 517 OFFCURVE",
"604 525 OFFCURVE",
"598 525 CURVE"
);
}
);
width = 600;
}
);
unicode = 0033;
},
{
glyphname = four;
lastChange = "2016-09-27 02:45:06 +0200";
layers = (
{
layerId = "248CDC77-21EA-41B6-93B8-E98A9208AB16";
name = Regular;
paths = (
{
closed = 1;
nodes = (
"303 509 OFFCURVE",
"187 295 OFFCURVE",
"16 122 CURVE SMOOTH",
"16 122 OFFCURVE",
"7 118 OFFCURVE",
"4 115 CURVE",
"-2 110 OFFCURVE",
"0 105 OFFCURVE",
"4 105 CURVE SMOOTH",
"92 137 OFFCURVE",
"173 149 OFFCURVE",
"211 152 CURVE SMOOTH",
"211 152 OFFCURVE",
"138 18 OFFCURVE",
"151 11 CURVE SMOOTH",
"158 12 LINE SMOOTH",
"183 66 OFFCURVE",
"215 125 OFFCURVE",
"238 155 CURVE SMOOTH",
"262 158 OFFCURVE",
"288 152 OFFCURVE",
"305 147 CURVE SMOOTH",
"314 155 OFFCURVE",
"312 180 OFFCURVE",
"248 175 CURVE SMOOTH",
"273 219 OFFCURVE",
"326 300 OFFCURVE",
"391 364 CURVE SMOOTH",
"392 374 OFFCURVE",
"371 371 OFFCURVE",
"363 364 CURVE SMOOTH",
"307 319 OFFCURVE",
"223 173 OFFCURVE",
"223 173 CURVE",
"223 173 OFFCURVE",
"138 165 OFFCURVE",
"39 130 CURVE SMOOTH",
"176 248 OFFCURVE",
"316 474 OFFCURVE",
"329 506 CURVE SMOOTH",
"337 534 OFFCURVE",
"327 555 OFFCURVE",
"319 547 CURVE SMOOTH"
);
},
{
closed = 1;
nodes = (
"147 27 OFFCURVE",
"55 0 OFFCURVE",
"27 -15 CURVE",
"12 -23 OFFCURVE",
"15 -28 OFFCURVE",
"19 -28 CURVE SMOOTH",
"137 14 OFFCURVE",
"271 7 OFFCURVE",
"284 -2 CURVE SMOOTH",
"289 4 OFFCURVE",
"290 27 OFFCURVE",
"234 27 CURVE"
);
}
);
width = 600;
}
);
unicode = 0034;
},
{
glyphname = five;
lastChange = "2016-09-28 02:14:45 +0200";
layers = (
{
layerId = "248CDC77-21EA-41B6-93B8-E98A9208AB16";
name = Regular;
paths = (
{
closed = 1;
nodes = (
"357 393 OFFCURVE",
"311 374 OFFCURVE",
"278 351 CURVE",
"316 404 OFFCURVE",
"371 493 OFFCURVE",
"371 503 CURVE SMOOTH",
"371 512 OFFCURVE",
"361 503 OFFCURVE",
"353 494 CURVE",
"345 476 OFFCURVE",
"286 384 OFFCURVE",
"253 337 CURVE",
"243 327 OFFCURVE",
"225 306 OFFCURVE",
"223 305 CURVE SMOOTH",
"222 304 OFFCURVE",
"211 275 OFFCURVE",
"225 275 CURVE SMOOTH",
"234 275 OFFCURVE",
"237 285 OFFCURVE",
"270 333 CURVE",
"300 351 OFFCURVE",
"342 376 OFFCURVE",
"387 376 CURVE SMOOTH",
"570 376 OFFCURVE",
"417 11 OFFCURVE",
"210 11 CURVE SMOOTH",
"86 11 OFFCURVE",
"156 231 OFFCURVE",
"327 208 CURVE",
"342 261 OFFCURVE",
"130 224 OFFCURVE",
"130 78 CURVE SMOOTH",
"130 39 OFFCURVE",
"160 0 OFFCURVE",
"212 0 CURVE SMOOTH",
"457 0 OFFCURVE",
"599 393 OFFCURVE",
"391 393 CURVE SMOOTH"
);
},
{
closed = 1;
nodes = (
"284 511 OFFCURVE",
"289 495 OFFCURVE",
"308 490 CURVE",
"325 488 OFFCURVE",
"355 483 OFFCURVE",
"380 483 CURVE SMOOTH",
"512 483 OFFCURVE",
"612 500 OFFCURVE",
"601 518 CURVE",
"530 505 OFFCURVE",
"389 498 OFFCURVE",
"290 515 CURVE"
);
}
);
width = 600;
}
);
unicode = 0035;
},
{
glyphname = six;
lastChange = "2016-09-28 01:10:25 +0200";
layers = (
{
layerId = "248CDC77-21EA-41B6-93B8-E98A9208AB16";
name = Regular;
paths = (
{
closed = 1;
nodes = (
"591 431 OFFCURVE",
"591 449 CURVE SMOOTH",
"591 481 OFFCURVE",
"564 530 OFFCURVE",
"490 530 CURVE SMOOTH",
"308 530 OFFCURVE",
"149 318 OFFCURVE",
"149 130 CURVE SMOOTH",
"149 91 OFFCURVE",
"163 0 OFFCURVE",
"250 0 CURVE SMOOTH",
"388 0 OFFCURVE",
"490 169 OFFCURVE",
"490 275 CURVE SMOOTH",
"490 306 OFFCURVE",
"481 372 OFFCURVE",
"392 372 CURVE SMOOTH",
"290 372 OFFCURVE",
"219 272 OFFCURVE",
"219 239 CURVE SMOOTH",
"219 228 OFFCURVE",
"226 225 OFFCURVE",
"232 226 CURVE",
"242 280 OFFCURVE",
"322 359 OFFCURVE",
"397 359 CURVE SMOOTH",
"442 359 OFFCURVE",
"468 332 OFFCURVE",
"468 278 CURVE SMOOTH",
"468 174 OFFCURVE",
"363 11 OFFCURVE",
"250 11 CURVE SMOOTH",
"187 11 OFFCURVE",
"172 84 OFFCURVE",
"172 125 CURVE SMOOTH",
"172 345 OFFCURVE",
"358 517 OFFCURVE",
"495 517 CURVE SMOOTH",
"567 517 OFFCURVE",
"584 458 OFFCURVE",
"571 427 CURVE",
"581 419 OFFCURVE"
);
}
);
width = 600;
}
);
unicode = 0036;
},
{
glyphname = seven;
lastChange = "2016-09-28 02:23:36 +0200";
layers = (
{
layerId = "248CDC77-21EA-41B6-93B8-E98A9208AB16";
name = Regular;
paths = (
{
closed = 1;
nodes = (
"577 482 OFFCURVE",
"554 494 OFFCURVE",
"554 494 CURVE SMOOTH",
"554 494 OFFCURVE",
"325 320 OFFCURVE",
"174 2 CURVE SMOOTH",
"169 -8 OFFCURVE",
"180 -10 OFFCURVE",
"190 2 CURVE",
"345 302 OFFCURVE",
"542 447 OFFCURVE",
"559 464 CURVE SMOOTH"
);
},
{
closed = 1;
nodes = (
"300 273 OFFCURVE",
"244 278 CURVE",
"239 266 OFFCURVE",
"252 260 OFFCURVE",
"270 258 CURVE SMOOTH",
"306 254 OFFCURVE",
"381 256 OFFCURVE",
"426 264 CURVE SMOOTH",
"441 267 OFFCURVE",
"443 276 OFFCURVE",
"441 278 CURVE",
"367 273 OFFCURVE"
);
},
{
closed = 1;
nodes = (
"371 463 OFFCURVE",
"242 480 OFFCURVE",
"229 487 CURVE",
"224 482 OFFCURVE",
"211 455 OFFCURVE",
"271 452 CURVE SMOOTH",
"440 443 OFFCURVE",
"522 468 OFFCURVE",
"547 476 CURVE SMOOTH",
"552 478 OFFCURVE",
"558 484 OFFCURVE",
"551 485 CURVE"
);
}
);
width = 600;
}
);
unicode = 0037;
},
{
glyphname = eight;
lastChange = "2016-09-28 01:56:38 +0200";
layers = (
{
layerId = "248CDC77-21EA-41B6-93B8-E98A9208AB16";
name = Regular;
paths = (
{
closed = 1;
nodes = (
"367 539 OFFCURVE",
"321 476 OFFCURVE",
"321 419 CURVE SMOOTH",
"321 383 OFFCURVE",
"334 356 OFFCURVE",
"358 317 CURVE",
"198 264 OFFCURVE",
"133 182 OFFCURVE",
"133 101 CURVE SMOOTH",
"133 38 OFFCURVE",
"183 -9 OFFCURVE",
"257 -9 CURVE SMOOTH",
"364 -9 OFFCURVE",
"443 77 OFFCURVE",
"443 166 CURVE SMOOTH",
"443 205 OFFCURVE",
"435 256 OFFCURVE",
"389 316 CURVE",
"506 360 OFFCURVE",
"542 416 OFFCURVE",
"544 464 CURVE SMOOTH",
"545 501 OFFCURVE",
"515 539 OFFCURVE",
"457 539 CURVE SMOOTH"
);
},
{
closed = 1;
nodes = (
"192 2 OFFCURVE",
"153 43 OFFCURVE",
"153 101 CURVE SMOOTH",
"153 176 OFFCURVE",
"220 259 OFFCURVE",
"366 306 CURVE",
"407 253 OFFCURVE",
"418 204 OFFCURVE",
"418 167 CURVE SMOOTH",
"418 82 OFFCURVE",
"344 2 OFFCURVE",
"252 2 CURVE SMOOTH"
);
},
{
closed = 1;
nodes = (
"355 365 OFFCURVE",
"343 395 OFFCURVE",
"343 426 CURVE SMOOTH",
"343 487 OFFCURVE",
"397 528 OFFCURVE",
"455 528 CURVE SMOOTH",
"502 528 OFFCURVE",
"527 501 OFFCURVE",
"527 463 CURVE SMOOTH",
"527 415 OFFCURVE",
"480 363 OFFCURVE",
"381 327 CURVE"
);
}
);
width = 600;
}
);
unicode = 0038;
},
{
glyphname = nine;
lastChange = "2016-09-28 01:02:36 +0200";
layers = (
{
layerId = "248CDC77-21EA-41B6-93B8-E98A9208AB16";
name = Regular;
paths = (
{
closed = 1;
nodes = (
"234 530 OFFCURVE",
"118 148 OFFCURVE",
"295 148 CURVE SMOOTH",
"378 148 OFFCURVE",
"452 222 OFFCURVE",
"489 276 CURVE",
"458 173 OFFCURVE",
"339 11 OFFCURVE",
"242 11 CURVE SMOOTH",
"176 11 OFFCURVE",
"165 93 OFFCURVE",
"182 124 CURVE",
"137 144 OFFCURVE",
"134 0 OFFCURVE",
"245 0 CURVE SMOOTH",
"453 0 OFFCURVE",
"675 530 OFFCURVE",
"458 530 CURVE SMOOTH"
);
},
{
closed = 1;
nodes = (
"459 246 OFFCURVE",
"370 161 OFFCURVE",
"295 161 CURVE",
"149 161 OFFCURVE",
"278 517 OFFCURVE",
"456 517 CURVE SMOOTH",
"556 517 OFFCURVE",
"532 366 OFFCURVE",
"496 305 CURVE"
);
}
);
width = 600;
}
);
unicode = 0039;
},
{
glyphname = asterisk;
lastChange = "2016-09-28 02:32:04 +0200";
layers = (
{
layerId = "248CDC77-21EA-41B6-93B8-E98A9208AB16";
name = Regular;
paths = (
{
closed = 1;
nodes = (
"613 540 OFFCURVE",
"587 541 OFFCURVE",
"544 531 CURVE",
"559 558 OFFCURVE",
"575 581 OFFCURVE",
"589 596 CURVE",
"594 605 OFFCURVE",
"575 603 OFFCURVE",
"575 603 CURVE SMOOTH",
"575 603 OFFCURVE",
"555 578 OFFCURVE",
"531 533 CURVE",
"517 559 OFFCURVE",
"508 577 OFFCURVE",
"501 595 CURVE",
"496 603 OFFCURVE",
"488 586 OFFCURVE",
"488 586 CURVE SMOOTH",
"488 586 OFFCURVE",
"496 566 OFFCURVE",
"520 527 CURVE",
"499 522 OFFCURVE",
"486 519 OFFCURVE",
"461 511 CURVE SMOOTH",
"455 509 OFFCURVE",
"461 504 OFFCURVE",
"465 502 CURVE",
"488 509 OFFCURVE",
"500 512 OFFCURVE",
"522 517 CURVE",
"512 495 OFFCURVE",
"505 479 OFFCURVE",
"495 451 CURVE SMOOTH",
"493 446 OFFCURVE",
"498 447 OFFCURVE",
"503 450 CURVE",
"513 474 OFFCURVE",
"521 489 OFFCURVE",
"532 510 CURVE",
"544 492 OFFCURVE",
"557 475 OFFCURVE",
"575 454 CURVE SMOOTH",
"579 450 OFFCURVE",
"581 454 OFFCURVE",
"581 460 CURVE",
"563 483 OFFCURVE",
"551 498 OFFCURVE",
"540 519 CURVE",
"578 525 OFFCURVE",
"599 528 OFFCURVE",
"623 526 CURVE",
"628 530 OFFCURVE",
"619 540 OFFCURVE",
"616 540 CURVE SMOOTH"
);
}
);
width = 600;
}
);
unicode = 002A;
},
{
glyphname = backslash;
lastChange = "2016-09-28 02:31:01 +0200";
layers = (
{
layerId = "248CDC77-21EA-41B6-93B8-E98A9208AB16";
name = Regular;
paths = (
{
closed = 1;
nodes = (
"335 513 OFFCURVE",
"372 301 OFFCURVE",
"360 18 CURVE",
"360 6 OFFCURVE",
"353 -5 OFFCURVE",
"350 2 CURVE",
"343 63 OFFCURVE",
"355 332 OFFCURVE",
"300 525 CURVE",
"300 533 OFFCURVE",
"312 536 OFFCURVE",
"327 521 CURVE SMOOTH"
);
}
);
width = 600;
}
);
unicode = 005C;
},
{
glyphname = colon;
lastChange = "2016-09-28 02:30:24 +0200";
layers = (
{
layerId = "248CDC77-21EA-41B6-93B8-E98A9208AB16";
name = Regular;
paths = (
{
closed = 1;
nodes = (
"222 43 OFFCURVE",
"215 40 OFFCURVE",
"209 30 CURVE SMOOTH",
"200 13 OFFCURVE",
"196 0 OFFCURVE",
"205 0 CURVE SMOOTH",
"222 0 OFFCURVE",
"249 43 OFFCURVE",
"228 43 CURVE SMOOTH"
);
},
{
closed = 1;
nodes = (
"337 315 OFFCURVE",
"330 312 OFFCURVE",
"325 302 CURVE SMOOTH",
"316 285 OFFCURVE",
"311 272 OFFCURVE",
"320 272 CURVE SMOOTH",
"337 272 OFFCURVE",
"364 315 OFFCURVE",
"343 315 CURVE SMOOTH"
);
}
);
width = 600;
}
);
unicode = 003A;
},
{
glyphname = comma;
lastChange = "2016-09-28 02:30:43 +0200";
layers = (
{
layerId = "248CDC77-21EA-41B6-93B8-E98A9208AB16";
name = Regular;
paths = (
{
closed = 1;
nodes = (
"249 65 OFFCURVE",
"257 60 OFFCURVE",
"254 47 CURVE SMOOTH",
"248 14 OFFCURVE",
"183 -70 OFFCURVE",
"170 -59 CURVE",
"198 -23 OFFCURVE",
"224 15 OFFCURVE",
"240 65 CURVE"
);
}
);
width = 600;
}
);
unicode = 002C;
},
{
glyphname = exclam;
lastChange = "2016-09-28 02:36:37 +0200";
layers = (
{
layerId = "248CDC77-21EA-41B6-93B8-E98A9208AB16";
name = Regular;
paths = (
{
closed = 1;
nodes = (
"473 516 OFFCURVE",
"346 339 OFFCURVE",
"259 135 CURVE SMOOTH",
"257 130 OFFCURVE",
"268 129 OFFCURVE",
"275 138 CURVE",
"345 272 OFFCURVE",
"419 399 OFFCURVE",
"517 525 CURVE",
"525 539 OFFCURVE",
"498 541 OFFCURVE",
"481 525 CURVE SMOOTH"
);
},
{
closed = 1;
nodes = (
"228 42 OFFCURVE",
"221 39 OFFCURVE",
"216 29 CURVE SMOOTH",
"207 13 OFFCURVE",
"209 0 OFFCURVE",
"217 0 CURVE SMOOTH",
"234 0 OFFCURVE",
"254 42 OFFCURVE",
"234 42 CURVE SMOOTH"
);
}
);
width = 600;
}
);
unicode = 0021;
},
{
glyphname = numbersign;
lastChange = "2016-10-03 01:15:46 +0200";
layers = (
{
layerId = "248CDC77-21EA-41B6-93B8-E98A9208AB16";
name = Regular;
paths = (
{
closed = 1;
nodes = (
"393 356 OFFCURVE",
"375 357 OFFCURVE",
"364 347 CURVE SMOOTH",
"359 341 OFFCURVE",
"290 232 OFFCURVE",
"247 122 CURVE SMOOTH",
"245 119 OFFCURVE",
"253 118 OFFCURVE",
"257 124 CURVE",
"299 209 OFFCURVE",
"332 272 OFFCURVE",
"387 347 CURVE"
);
},
{
closed = 1;
nodes = (
"226 192 OFFCURVE",
"214 176 OFFCURVE",
"225 176 CURVE",
"301 185 OFFCURVE",
"341 186 OFFCURVE",
"439 182 CURVE",
"447 183 OFFCURVE",
"450 190 OFFCURVE",
"446 191 CURVE SMOOTH",
"321 204 OFFCURVE",
"244 194 OFFCURVE",
"237 193 CURVE SMOOTH"
);
},
{
closed = 1;
nodes = (
"469 344 OFFCURVE",
"452 346 OFFCURVE",
"441 335 CURVE SMOOTH",
"436 330 OFFCURVE",
"381 250 OFFCURVE",
"329 119 CURVE SMOOTH",
"328 116 OFFCURVE",
"335 115 OFFCURVE",
"340 121 CURVE",
"381 209 OFFCURVE",
"410 263 OFFCURVE",
"464 336 CURVE"
);
},
{
closed = 1;
nodes = (
"237 266 OFFCURVE",
"231 255 OFFCURVE",
"242 256 CURVE",
"342 265 OFFCURVE",
"386 264 OFFCURVE",
"484 260 CURVE",
"492 261 OFFCURVE",
"495 268 OFFCURVE",
"491 269 CURVE SMOOTH",
"357 283 OFFCURVE",
"265 272 OFFCURVE",
"250 271 CURVE"
);
}
);
width = 600;
}
);
unicode = 0023;
},
{
glyphname = period;
lastChange = "2016-09-28 02:31:23 +0200";
layers = (
{
layerId = "248CDC77-21EA-41B6-93B8-E98A9208AB16";
name = Regular;
paths = (
{
closed = 1;
nodes = (
"202 43 OFFCURVE",
"195 40 OFFCURVE",
"189 30 CURVE SMOOTH",
"180 13 OFFCURVE",
"176 0 OFFCURVE",
"185 0 CURVE SMOOTH",
"202 0 OFFCURVE",
"229 43 OFFCURVE",
"208 43 CURVE SMOOTH"
);
}
);
width = 600;
}
);
unicode = 002E;
},
{
glyphname = question;
lastChange = "2016-09-28 02:36:49 +0200";
layers = (
{
layerId = "248CDC77-21EA-41B6-93B8-E98A9208AB16";
name = Regular;
paths = (
{
closed = 1;
nodes = (
"228 42 OFFCURVE",
"221 39 OFFCURVE",
"216 29 CURVE SMOOTH",
"207 13 OFFCURVE",
"209 0 OFFCURVE",
"217 0 CURVE SMOOTH",
"234 0 OFFCURVE",
"254 42 OFFCURVE",
"234 42 CURVE SMOOTH"
);
},
{
closed = 1;
nodes = (
"156 259 OFFCURVE",
"228 516 OFFCURVE",
"426 516 CURVE SMOOTH",
"502 516 OFFCURVE",
"536 460 OFFCURVE",
"536 415 CURVE SMOOTH",
"536 269 OFFCURVE",
"275 184 OFFCURVE",
"259 109 CURVE",
"250 109 OFFCURVE",
"248 116 OFFCURVE",
"248 122 CURVE SMOOTH",
"248 179 OFFCURVE",
"510 293 OFFCURVE",
"510 412 CURVE SMOOTH",
"510 453 OFFCURVE",
"490 502 OFFCURVE",
"424 502 CURVE SMOOTH",
"272 502 OFFCURVE",
"172 270 OFFCURVE",
"273 270 CURVE SMOOTH",
"339 270 OFFCURVE",
"397 362 OFFCURVE",
"389 398 CURVE",
"433 398 OFFCURVE",
"378 259 OFFCURVE",
"276 259 CURVE SMOOTH"
);
}
);
width = 600;
}
);
unicode = 003F;
},
{
glyphname = semicolon;
lastChange = "2016-09-28 02:34:15 +0200";
layers = (
{
layerId = "248CDC77-21EA-41B6-93B8-E98A9208AB16";
name = Regular;
paths = (
{
closed = 1;
nodes = (
"321 338 OFFCURVE",
"314 335 OFFCURVE",
"309 325 CURVE SMOOTH",
"300 308 OFFCURVE",
"295 295 OFFCURVE",
"304 295 CURVE SMOOTH",
"321 295 OFFCURVE",
"348 338 OFFCURVE",
"327 338 CURVE SMOOTH"
);
},
{
closed = 1;
nodes = (
"199 46 OFFCURVE",
"207 41 OFFCURVE",
"204 28 CURVE SMOOTH",
"198 -5 OFFCURVE",
"133 -89 OFFCURVE",
"120 -78 CURVE",
"148 -42 OFFCURVE",
"174 -4 OFFCURVE",
"190 46 CURVE"
);
}
);
width = 600;
}
);
unicode = 003B;
},
{
glyphname = slash;
lastChange = "2016-09-28 02:36:19 +0200";
layers = (
{
layerId = "248CDC77-21EA-41B6-93B8-E98A9208AB16";
name = Regular;
paths = (
{
closed = 1;
nodes = (
"451 506 OFFCURVE",
"313 288 OFFCURVE",
"161 5 CURVE",
"157 -1 OFFCURVE",
"169 -3 OFFCURVE",
"177 7 CURVE",
"258 147 OFFCURVE",
"396 389 OFFCURVE",
"494 515 CURVE",
"503 529 OFFCURVE",
"475 531 OFFCURVE",
"459 514 CURVE SMOOTH"
);
}
);
width = 600;
}
);
unicode = 002F;
},
{
glyphname = underscore;
lastChange = "2016-09-28 02:47:37 +0200";
layers = (
{
layerId = "248CDC77-21EA-41B6-93B8-E98A9208AB16";
name = Regular;
paths = (
{
closed = 1;
nodes = (
"81 6 OFFCURVE",
"159 20 OFFCURVE",
"284 20 CURVE SMOOTH",
"324 20 OFFCURVE",
"318 4 OFFCURVE",
"315 0 CURVE",
"250 4 OFFCURVE",
"124 -2 OFFCURVE",
"84 -5 CURVE",
"78 -4 OFFCURVE",
"71 3 OFFCURVE",
"76 5 CURVE"
);
}
);
width = 600;
}
);
unicode = 005F;
},
{
glyphname = parenleft;
lastChange = "2016-10-03 01:15:02 +0200";
layers = (
{
layerId = "248CDC77-21EA-41B6-93B8-E98A9208AB16";
name = Regular;
paths = (
{
closed = 1;
nodes = (
"498 726 OFFCURVE",
"228 385 OFFCURVE",
"228 92 CURVE SMOOTH",
"228 -7 OFFCURVE",
"269 -37 OFFCURVE",
"303 -43 CURVE",
"301 -50 OFFCURVE",
"291 -50 OFFCURVE",
"284 -50 CURVE SMOOTH",
"245 -50 OFFCURVE",
"200 -1 OFFCURVE",
"200 98 CURVE SMOOTH",
"200 377 OFFCURVE",
"463 739 OFFCURVE",
"654 739 CURVE SMOOTH",
"683 739 OFFCURVE",
"680 727 OFFCURVE",
"675 726 CURVE"
);
}
);
width = 600;
}
);
unicode = 0028;
},
{
glyphname = parenright;
lastChange = "2016-10-03 01:15:19 +0200";
layers = (
{
layerId = "248CDC77-21EA-41B6-93B8-E98A9208AB16";
name = Regular;
paths = (
{
closed = 1;
nodes = (
"284 -36 OFFCURVE",
"513 315 OFFCURVE",
"513 585 CURVE SMOOTH",
"513 674 OFFCURVE",
"495 719 OFFCURVE",
"466 732 CURVE SMOOTH",
"463 734 OFFCURVE",
"462 741 OFFCURVE",
"475 741 CURVE SMOOTH",
"514 741 OFFCURVE",
"542 678 OFFCURVE",
"542 579 CURVE SMOOTH",
"542 323 OFFCURVE",
"307 -60 OFFCURVE",
"134 -60 CURVE SMOOTH",
"118 -60 OFFCURVE",
"118 -51 OFFCURVE",
"123 -50 CURVE"
);
}
);
width = 600;
}
);
unicode = 0029;
},
{
glyphname = emdash;
lastChange = "2016-09-28 02:35:21 +0200";
layers = (
{
layerId = "248CDC77-21EA-41B6-93B8-E98A9208AB16";
name = Regular;
paths = (
{
closed = 1;
nodes = (
"287 375 OFFCURVE",
"365 389 OFFCURVE",
"490 389 CURVE SMOOTH",
"530 389 OFFCURVE",
"524 373 OFFCURVE",
"521 369 CURVE",
"456 373 OFFCURVE",
"330 367 OFFCURVE",
"290 364 CURVE",
"284 365 OFFCURVE",
"277 372 OFFCURVE",
"282 374 CURVE"
);
}
);
width = 600;
}
);
unicode = 2014;
},
{
glyphname = endash;
lastChange = "2016-09-28 02:35:42 +0200";
layers = (
{
layerId = "248CDC77-21EA-41B6-93B8-E98A9208AB16";
name = Regular;
paths = (
{
closed = 1;
nodes = (
"324 381 OFFCURVE",
"392 390 OFFCURVE",
"454 390 CURVE SMOOTH",
"493 390 OFFCURVE",
"488 373 OFFCURVE",
"485 369 CURVE",
"420 373 OFFCURVE",
"361 369 OFFCURVE",
"320 367 CURVE",
"313 368 OFFCURVE",
"307 374 OFFCURVE",
"311 377 CURVE"
);
}
);
width = 600;
}
);
unicode = 2013;
},
{
glyphname = hyphen;
lastChange = "2016-09-28 02:36:02 +0200";
layers = (
{
layerId = "248CDC77-21EA-41B6-93B8-E98A9208AB16";
name = Regular;
paths = (
{
closed = 1;
nodes = (
"324 384 OFFCURVE",
"378 392 OFFCURVE",
"413 392 CURVE SMOOTH",
"452 392 OFFCURVE",
"447 377 OFFCURVE",
"444 373 CURVE",
"379 377 OFFCURVE",
"361 372 OFFCURVE",
"320 370 CURVE",
"313 371 OFFCURVE",
"307 377 OFFCURVE",
"311 380 CURVE"
);
}
);
width = 600;
}
);
unicode = 002D;
},
{
glyphname = guillemotleft;
lastChange = "2016-09-28 02:46:07 +0200";
layers = (
{
layerId = "248CDC77-21EA-41B6-93B8-E98A9208AB16";
name = Regular;
paths = (
{
closed = 1;
nodes = (
"403 388 OFFCURVE",
"334 357 OFFCURVE",
"290 319 CURVE",
"286 315 OFFCURVE",
"284 304 OFFCURVE",
"290 302 CURVE SMOOTH",
"338 282 OFFCURVE",
"382 262 OFFCURVE",
"425 236 CURVE",
"432 236 OFFCURVE",
"431 244 OFFCURVE",
"425 248 CURVE SMOOTH",
"399 269 OFFCURVE",
"339 300 OFFCURVE",
"307 313 CURVE",
"347 342 OFFCURVE",
"399 361 OFFCURVE",
"427 373 CURVE",
"433 378 OFFCURVE",
"425 388 OFFCURVE",
"412 388 CURVE SMOOTH"
);
},
{
closed = 1;
nodes = (
"307 387 OFFCURVE",
"248 351 OFFCURVE",
"204 313 CURVE",
"200 309 OFFCURVE",
"196 296 OFFCURVE",
"203 295 CURVE SMOOTH",
"253 280 OFFCURVE",
"298 260 OFFCURVE",
"343 234 CURVE",
"351 234 OFFCURVE",
"350 242 OFFCURVE",
"345 247 CURVE",
"324 260 OFFCURVE",
"252 298 OFFCURVE",
"221 306 CURVE",
"261 335 OFFCURVE",
"304 360 OFFCURVE",
"331 372 CURVE",
"338 376 OFFCURVE",
"329 387 OFFCURVE",
"316 387 CURVE SMOOTH"
);
}
);
width = 600;
}
);
unicode = 00AB;
},
{
glyphname = guillemotright;
lastChange = "2016-09-28 02:46:25 +0200";
layers = (
{
layerId = "248CDC77-21EA-41B6-93B8-E98A9208AB16";
name = Regular;
paths = (
{
closed = 1;
nodes = (
"280 392 OFFCURVE",
"357 361 OFFCURVE",
"402 323 CURVE",
"405 319 OFFCURVE",
"408 308 OFFCURVE",
"402 306 CURVE SMOOTH",
"353 285 OFFCURVE",
"313 267 OFFCURVE",
"270 242 CURVE",
"263 241 OFFCURVE",
"257 245 OFFCURVE",
"263 250 CURVE SMOOTH",
"289 270 OFFCURVE",
"352 304 OFFCURVE",
"385 316 CURVE",
"344 345 OFFCURVE",
"302 359 OFFCURVE",
"274 371 CURVE",
"268 376 OFFCURVE",
"258 392 OFFCURVE",
"271 392 CURVE SMOOTH"
);
},
{
closed = 1;
nodes = (
"376 391 OFFCURVE",
"443 354 OFFCURVE",
"487 317 CURVE",
"491 313 OFFCURVE",
"495 300 OFFCURVE",
"489 298 CURVE SMOOTH",
"438 284 OFFCURVE",
"397 265 OFFCURVE",
"352 240 CURVE",
"344 240 OFFCURVE",
"337 243 OFFCURVE",
"343 248 CURVE",
"363 261 OFFCURVE",
"439 302 OFFCURVE",
"471 310 CURVE",
"430 339 OFFCURVE",
"398 358 OFFCURVE",
"370 370 CURVE",
"364 374 OFFCURVE",
"354 390 OFFCURVE",
"367 391 CURVE SMOOTH"
);
}
);
width = 600;
}
);
unicode = 00BB;
},
{
glyphname = guilsinglleft;
lastChange = "2016-09-28 02:32:54 +0200";
layers = (
{
layerId = "248CDC77-21EA-41B6-93B8-E98A9208AB16";
name = Regular;
paths = (
{
closed = 1;
nodes = (
"384 389 OFFCURVE",
"298 353 OFFCURVE",
"254 315 CURVE",
"250 311 OFFCURVE",
"248 299 OFFCURVE",
"254 298 CURVE SMOOTH",
"300 287 OFFCURVE",
"348 264 OFFCURVE",
"393 238 CURVE",
"401 237 OFFCURVE",
"407 242 OFFCURVE",
"401 246 CURVE SMOOTH",
"375 267 OFFCURVE",
"302 300 OFFCURVE",
"271 308 CURVE",
"312 338 OFFCURVE",
"362 356 OFFCURVE",
"390 368 CURVE",
"396 373 OFFCURVE",
"406 389 OFFCURVE",
"393 389 CURVE SMOOTH"
);
}
);
width = 600;
}
);
unicode = 2039;
},
{
glyphname = guilsinglright;
lastChange = "2016-09-28 02:33:14 +0200";
layers = (
{
layerId = "248CDC77-21EA-41B6-93B8-E98A9208AB16";
name = Regular;
paths = (
{
closed = 1;
nodes = (
"319 389 OFFCURVE",
"406 353 OFFCURVE",
"450 315 CURVE",
"454 311 OFFCURVE",
"456 299 OFFCURVE",
"450 298 CURVE SMOOTH",
"404 287 OFFCURVE",
"356 264 OFFCURVE",
"311 238 CURVE",
"303 237 OFFCURVE",
"296 242 OFFCURVE",
"302 246 CURVE SMOOTH",
"328 267 OFFCURVE",
"401 300 OFFCURVE",
"433 308 CURVE",
"392 338 OFFCURVE",
"341 356 OFFCURVE",
"314 368 CURVE",
"307 373 OFFCURVE",
"298 389 OFFCURVE",
"311 389 CURVE SMOOTH"
);
}
);
width = 600;
}
);
unicode = 203A;
},
{
glyphname = cent;
lastChange = "2016-10-03 01:17:23 +0200";
layers = (
{
layerId = "248CDC77-21EA-41B6-93B8-E98A9208AB16";
name = Regular;
paths = (
{
closed = 1;
nodes = (
"208 345 OFFCURVE",
"96 70 OFFCURVE",
"214 70 CURVE SMOOTH",
"302 70 OFFCURVE",
"353 166 OFFCURVE",
"322 166 CURVE",
"314 138 OFFCURVE",
"268 77 OFFCURVE",
"214 77 CURVE SMOOTH",
"127 77 OFFCURVE",
"241 338 OFFCURVE",
"351 338 CURVE SMOOTH",
"402 338 OFFCURVE",
"386 266 OFFCURVE",
"359 246 CURVE",
"356 243 OFFCURVE",
"365 239 OFFCURVE",
"373 243 CURVE SMOOTH",
"406 260 OFFCURVE",
"418 345 OFFCURVE",
"351 345 CURVE SMOOTH"
);
},
{
closed = 1;
nodes = (
"414 422 OFFCURVE",
"395 418 OFFCURVE",
"390 408 CURVE SMOOTH",
"384 399 OFFCURVE",
"164 18 OFFCURVE",
"157 6 CURVE SMOOTH",
"151 -3 OFFCURVE",
"162 -2 OFFCURVE",
"167 6 CURVE SMOOTH",
"172 14 OFFCURVE",
"403 402 OFFCURVE",
"408 412 CURVE SMOOTH"
);
}
);
width = 600;
}
);
unicode = 00A2;
},
{
glyphname = dollar;
lastChange = "2016-10-03 01:17:37 +0200";
layers = (
{
layerId = "248CDC77-21EA-41B6-93B8-E98A9208AB16";
name = Regular;
paths = (
{
closed = 1;
nodes = (
"471 302 OFFCURVE",
"509 343 OFFCURVE",
"509 385 CURVE SMOOTH",
"509 426 OFFCURVE",
"469 459 OFFCURVE",
"394 459 CURVE SMOOTH",
"304 459 OFFCURVE",
"257 402 OFFCURVE",
"257 357 CURVE SMOOTH",
"257 263 OFFCURVE",
"376 246 OFFCURVE",
"376 162 CURVE SMOOTH",
"376 101 OFFCURVE",
"320 58 OFFCURVE",
"244 58 CURVE SMOOTH",
"177 58 OFFCURVE",
"144 94 OFFCURVE",
"144 138 CURVE SMOOTH",
"144 179 OFFCURVE",
"195 224 OFFCURVE",
"252 224 CURVE",
"255 231 OFFCURVE",
"249 237 OFFCURVE",
"234 237 CURVE SMOOTH",
"175 237 OFFCURVE",
"124 187 OFFCURVE",
"124 138 CURVE SMOOTH",
"124 92 OFFCURVE",
"164 47 OFFCURVE",
"243 47 CURVE SMOOTH",
"335 47 OFFCURVE",
"395 97 OFFCURVE",
"395 164 CURVE SMOOTH",
"395 249 OFFCURVE",
"279 284 OFFCURVE",
"279 355 CURVE SMOOTH",
"279 397 OFFCURVE",
"316 451 OFFCURVE",
"396 451 CURVE SMOOTH",
"453 451 OFFCURVE",
"492 424 OFFCURVE",
"492 386 CURVE SMOOTH",
"492 355 OFFCURVE",
"457 316 OFFCURVE",
"406 316 CURVE",
"402 314 OFFCURVE",
"406 302 OFFCURVE",
"424 302 CURVE SMOOTH"
);
},
{
closed = 1;
nodes = (
"473 514 OFFCURVE",
"455 510 OFFCURVE",
"449 500 CURVE SMOOTH",
"443 491 OFFCURVE",
"166 18 OFFCURVE",
"159 6 CURVE SMOOTH",
"154 -3 OFFCURVE",
"165 -2 OFFCURVE",
"170 6 CURVE SMOOTH",
"175 14 OFFCURVE",
"462 494 OFFCURVE",
"468 504 CURVE SMOOTH"
);
}
);
width = 600;
}
);
unicode = 0024;
},
{
glyphname = euro;
lastChange = "2016-10-03 01:18:21 +0200";
layers = (
{
layerId = "248CDC77-21EA-41B6-93B8-E98A9208AB16";
name = Regular;
paths = (
{
closed = 1;
nodes = (
"326 417 OFFCURVE",
"148 275 OFFCURVE",
"148 111 CURVE SMOOTH",
"148 55 OFFCURVE",
"188 0 OFFCURVE",
"263 0 CURVE SMOOTH",
"423 0 OFFCURVE",
"510 136 OFFCURVE",
"485 133 CURVE",
"423 58 OFFCURVE",
"338 12 OFFCURVE",
"265 12 CURVE SMOOTH",
"206 12 OFFCURVE",
"173 53 OFFCURVE",
"173 111 CURVE SMOOTH",
"173 238 OFFCURVE",
"332 405 OFFCURVE",
"473 405 CURVE SMOOTH",
"578 405 OFFCURVE",
"557 292 OFFCURVE",
"532 270 CURVE",
"583 258 OFFCURVE",
"618 417 OFFCURVE",
"464 417 CURVE SMOOTH"
);
},
{
closed = 1;
nodes = (
"382 188 OFFCURVE",
"94 188 OFFCURVE",
"94 188 CURVE",
"79 188 OFFCURVE",
"99 166 OFFCURVE",
"116 166 CURVE SMOOTH",
"133 166 OFFCURVE",
"368 176 OFFCURVE",
"378 176 CURVE SMOOTH",
"389 176 OFFCURVE",
"399 188 OFFCURVE",
"390 188 CURVE SMOOTH"
);
},
{
closed = 1;
nodes = (
"68 257 OFFCURVE",
"90 233 OFFCURVE",
"107 233 CURVE SMOOTH",
"125 233 OFFCURVE",
"406 237 OFFCURVE",
"417 237 CURVE SMOOTH",
"428 237 OFFCURVE",
"439 249 OFFCURVE",
"430 249 CURVE SMOOTH",
"421 249 OFFCURVE",
"84 257 OFFCURVE",
"84 257 CURVE"
);
}
);
width = 600;
}
);
unicode = 20AC;
},
{
glyphname = asciitilde;
lastChange = "2016-10-03 02:42:54 +0200";
layers = (
{
layerId = "248CDC77-21EA-41B6-93B8-E98A9208AB16";
name = Regular;
paths = (
{
closed = 1;
nodes = (
"206 261 OFFCURVE",
"207 277 OFFCURVE",
"220 290 CURVE",
"236 301 OFFCURVE",
"266 312 OFFCURVE",
"302 312 CURVE SMOOTH",
"351 312 OFFCURVE",
"388 286 OFFCURVE",
"426 286 CURVE SMOOTH",
"462 286 OFFCURVE",
"479 296 OFFCURVE",
"489 303 CURVE SMOOTH",
"491 305 OFFCURVE",
"497 298 OFFCURVE",
"485 285 CURVE",
"471 277 OFFCURVE",
"455 269 OFFCURVE",
"421 269 CURVE SMOOTH",
"381 269 OFFCURVE",
"350 289 OFFCURVE",
"303 289 CURVE SMOOTH",
"243 289 OFFCURVE",
"214 261 OFFCURVE",
"214 261 CURVE SMOOTH"
);
}
);
width = 600;
}
);
unicode = 007E;
},
{
glyphname = divide;
lastChange = "2016-09-30 03:01:27 +0200";
layers = (
{
layerId = "248CDC77-21EA-41B6-93B8-E98A9208AB16";
name = Regular;
paths = (
{
closed = 1;
nodes = (
"267 299 OFFCURVE",
"335 308 OFFCURVE",
"397 308 CURVE SMOOTH",
"436 308 OFFCURVE",
"431 291 OFFCURVE",
"428 287 CURVE",
"363 291 OFFCURVE",
"304 287 OFFCURVE",
"263 285 CURVE",
"256 286 OFFCURVE",
"250 292 OFFCURVE",
"254 295 CURVE"
);
},
{
closed = 1;
nodes = (
"321 251 OFFCURVE",
"314 248 OFFCURVE",
"308 238 CURVE SMOOTH",
"299 221 OFFCURVE",
"295 208 OFFCURVE",
"304 208 CURVE SMOOTH",
"321 208 OFFCURVE",
"348 251 OFFCURVE",
"327 251 CURVE SMOOTH"
);
},
{
closed = 1;
nodes = (
"369 383 OFFCURVE",
"362 380 OFFCURVE",
"356 370 CURVE SMOOTH",
"347 353 OFFCURVE",
"343 340 OFFCURVE",
"352 340 CURVE SMOOTH",
"369 340 OFFCURVE",
"396 383 OFFCURVE",
"375 383 CURVE SMOOTH"
);
}
);
width = 600;
}
);
unicode = 00F7;
},
{
glyphname = equal;
lastChange = "2016-09-28 02:45:47 +0200";
layers = (
{
layerId = "248CDC77-21EA-41B6-93B8-E98A9208AB16";
name = Regular;
paths = (
{
closed = 1;
nodes = (
"290 350 OFFCURVE",
"349 359 OFFCURVE",
"420 359 CURVE SMOOTH",
"460 359 OFFCURVE",
"455 343 OFFCURVE",
"452 338 CURVE",
"387 343 OFFCURVE",
"327 339 OFFCURVE",
"286 337 CURVE",
"280 337 OFFCURVE",
"274 343 OFFCURVE",
"278 346 CURVE"
);
},
{
closed = 1;
nodes = (
"266 268 OFFCURVE",
"316 277 OFFCURVE",
"396 277 CURVE SMOOTH",
"435 277 OFFCURVE",
"430 260 OFFCURVE",
"427 256 CURVE",
"362 260 OFFCURVE",
"303 256 OFFCURVE",
"262 254 CURVE",
"255 255 OFFCURVE",
"249 261 OFFCURVE",
"253 264 CURVE"
);
}
);
width = 600;
}
);
unicode = 003D;
},
{
glyphname = greater;
lastChange = "2016-10-03 01:14:08 +0200";
layers = (
{
layerId = "248CDC77-21EA-41B6-93B8-E98A9208AB16";
name = Regular;
paths = (
{
closed = 1;
nodes = (
"282 328 OFFCURVE",
"385 271 OFFCURVE",
"441 222 CURVE",
"448 215 OFFCURVE",
"436 200 OFFCURVE",
"429 199 CURVE SMOOTH",
"361 188 OFFCURVE",
"244 141 OFFCURVE",
"199 116 CURVE",
"192 113 OFFCURVE",
"193 123 OFFCURVE",
"198 127 CURVE",
"222 145 OFFCURVE",
"341 202 OFFCURVE",
"419 215 CURVE",
"375 247 OFFCURVE",
"298 292 OFFCURVE",
"246 309 CURVE",
"240 313 OFFCURVE",
"246 328 OFFCURVE",
"264 328 CURVE SMOOTH"
);
}
);
width = 600;
}
);
unicode = 003E;
},
{
glyphname = less;
lastChange = "2016-10-03 01:13:10 +0200";
layers = (
{
layerId = "248CDC77-21EA-41B6-93B8-E98A9208AB16";
name = Regular;
paths = (
{
closed = 1;
nodes = (
"338 315 OFFCURVE",
"177 244 OFFCURVE",
"121 195 CURVE",
"114 188 OFFCURVE",
"112 171 OFFCURVE",
"118 170 CURVE SMOOTH",
"191 155 OFFCURVE",
"268 122 OFFCURVE",
"313 96 CURVE",
"320 94 OFFCURVE",
"319 103 OFFCURVE",
"313 108 CURVE",
"293 121 OFFCURVE",
"213 167 OFFCURVE",
"136 182 CURVE",
"179 214 OFFCURVE",
"318 281 OFFCURVE",
"352 292 CURVE",
"359 296 OFFCURVE",
"370 315 OFFCURVE",
"357 315 CURVE SMOOTH"
);
}
);
width = 600;
}
);
unicode = 003C;
},
{
glyphname = micro;
lastChange = "2016-10-03 01:18:46 +0200";
layers = (
{
layerId = "248CDC77-21EA-41B6-93B8-E98A9208AB16";
name = Regular;
paths = (
{
closed = 1;
nodes = (
"95 1 OFFCURVE",
"85 -4 OFFCURVE",
"85 4 CURVE SMOOTH",
"85 9 OFFCURVE",
"198 213 OFFCURVE",
"271 342 CURVE",
"305 411 OFFCURVE",
"329 447 OFFCURVE",
"330 448 CURVE SMOOTH",
"338 453 OFFCURVE",
"351 438 OFFCURVE",
"346 421 CURVE",
"336 400 OFFCURVE",
"294 342 OFFCURVE",
"287 332 CURVE SMOOTH",
"281 321 OFFCURVE",
"239 211 OFFCURVE",
"257 211 CURVE SMOOTH",
"289 211 OFFCURVE",
"384 340 OFFCURVE",
"384 340 CURVE SMOOTH",
"384 340 OFFCURVE",
"439 443 OFFCURVE",
"448 443 CURVE SMOOTH",
"457 443 OFFCURVE",
"465 430 OFFCURVE",
"458 415 CURVE SMOOTH",
"456 409 OFFCURVE",
"436 377 OFFCURVE",
"406 337 CURVE",
"370 265 OFFCURVE",
"347 208 OFFCURVE",
"357 208 CURVE SMOOTH",
"380 208 OFFCURVE",
"446 287 OFFCURVE",
"461 306 CURVE",
"482 306 OFFCURVE",
"396 200 OFFCURVE",
"356 200 CURVE SMOOTH",
"321 200 OFFCURVE",
"366 291 OFFCURVE",
"366 291 CURVE SMOOTH",
"366 291 OFFCURVE",
"296 203 OFFCURVE",
"257 203 CURVE SMOOTH",
"225 203 OFFCURVE",
"249 274 OFFCURVE",
"249 274 CURVE SMOOTH",
"249 274 OFFCURVE",
"102 14 OFFCURVE",
"98 8 CURVE SMOOTH"
);
}
);
width = 600;
}
);
unicode = 00B5;
},
{
glyphname = minus;
lastChange = "2016-09-30 02:59:32 +0200";
layers = (
{
layerId = "248CDC77-21EA-41B6-93B8-E98A9208AB16";
name = Regular;
paths = (
{
closed = 1;
nodes = (
"324 381 OFFCURVE",
"392 390 OFFCURVE",
"454 390 CURVE SMOOTH",
"493 390 OFFCURVE",
"488 373 OFFCURVE",
"485 369 CURVE",
"420 373 OFFCURVE",
"361 369 OFFCURVE",
"320 367 CURVE",
"313 368 OFFCURVE",
"307 374 OFFCURVE",
"311 377 CURVE"
);
}
);
width = 600;
}
);
unicode = 2212;
},
{
glyphname = multiply;
lastChange = "2016-10-03 02:14:17 +0200";
layers = (
{
layerId = "248CDC77-21EA-41B6-93B8-E98A9208AB16";
name = Regular;
paths = (
{
closed = 1;
nodes = (
"369 255 OFFCURVE",
"313 344 OFFCURVE",
"294 386 CURVE",
"286 394 OFFCURVE",
"272 376 OFFCURVE",
"275 367 CURVE SMOOTH",
"284 346 OFFCURVE",
"349 243 OFFCURVE",
"431 199 CURVE SMOOTH",
"437 197 OFFCURVE",
"447 202 OFFCURVE",
"444 206 CURVE"
);
},
{
closed = 1;
nodes = (
"279 257 OFFCURVE",
"395 367 OFFCURVE",
"435 386 CURVE",
"460 394 OFFCURVE",
"463 378 OFFCURVE",
"457 374 CURVE",
"413 352 OFFCURVE",
"307 262 OFFCURVE",
"262 209 CURVE",
"254 201 OFFCURVE",
"243 204 OFFCURVE",
"246 210 CURVE"
);
}
);
width = 600;
}
);
unicode = 00D7;
},
{
glyphname = percent;
lastChange = "2016-10-03 02:28:36 +0200";
layers = (
{
layerId = "248CDC77-21EA-41B6-93B8-E98A9208AB16";
name = Regular;
paths = (
{
closed = 1;
nodes = (
"397 262 OFFCURVE",
"366 227 OFFCURVE",
"366 190 CURVE SMOOTH",
"366 166 OFFCURVE",
"382 147 OFFCURVE",
"409 147 CURVE SMOOTH",
"437 147 OFFCURVE",
"478 178 OFFCURVE",
"478 223 CURVE SMOOTH",
"478 246 OFFCURVE",
"464 262 OFFCURVE",
"437 262 CURVE SMOOTH"
);
},
{
closed = 1;
nodes = (
"393 158 OFFCURVE",
"381 167 OFFCURVE",
"381 187 CURVE SMOOTH",
"381 223 OFFCURVE",
"413 252 OFFCURVE",
"435 252 CURVE SMOOTH",
"456 252 OFFCURVE",
"462 236 OFFCURVE",
"462 222 CURVE SMOOTH",
"462 193 OFFCURVE",
"436 158 OFFCURVE",
"409 158 CURVE SMOOTH"
);
},
{
closed = 1;
nodes = (
"247 425 OFFCURVE",
"216 390 OFFCURVE",
"216 353 CURVE SMOOTH",
"216 329 OFFCURVE",
"231 310 OFFCURVE",
"259 310 CURVE SMOOTH",
"286 310 OFFCURVE",
"327 341 OFFCURVE",
"327 386 CURVE SMOOTH",
"327 409 OFFCURVE",
"313 425 OFFCURVE",
"286 425 CURVE SMOOTH"
);
},
{
closed = 1;
nodes = (
"242 321 OFFCURVE",
"231 330 OFFCURVE",
"231 350 CURVE SMOOTH",
"231 384 OFFCURVE",
"260 415 OFFCURVE",
"284 415 CURVE SMOOTH",
"305 415 OFFCURVE",
"311 399 OFFCURVE",
"311 385 CURVE SMOOTH",
"311 356 OFFCURVE",
"285 321 OFFCURVE",
"258 321 CURVE SMOOTH"
);
},
{
closed = 1;
nodes = (
"466 407 OFFCURVE",
"330 298 OFFCURVE",
"165 129 CURVE SMOOTH",
"156 119 OFFCURVE",
"170 119 OFFCURVE",
"177 124 CURVE",
"308 251 OFFCURVE",
"413 341 OFFCURVE",
"509 420 CURVE",
"516 427 OFFCURVE",
"507 436 OFFCURVE",
"488 426 CURVE"
);
}
);
width = 600;
}
);
unicode = 0025;
},
{
glyphname = plus;
lastChange = "2016-10-03 01:36:59 +0200";
layers = (
{
layerId = "248CDC77-21EA-41B6-93B8-E98A9208AB16";
name = Regular;
paths = (
{
closed = 1;
nodes = (
"392 385 OFFCURVE",
"372 391 OFFCURVE",
"357 370 CURVE",
"334 332 OFFCURVE",
"277 198 OFFCURVE",
"268 158 CURVE SMOOTH",
"266 148 OFFCURVE",
"284 156 OFFCURVE",
"286 162 CURVE",
"312 236 OFFCURVE",
"365 335 OFFCURVE",
"390 378 CURVE"
);
},
{
closed = 1;
nodes = (
"193 277 OFFCURVE",
"193 258 OFFCURVE",
"200 258 CURVE",
"273 265 OFFCURVE",
"372 266 OFFCURVE",
"444 265 CURVE",
"450 265 OFFCURVE",
"460 275 OFFCURVE",
"452 278 CURVE",
"414 282 OFFCURVE",
"313 285 OFFCURVE",
"225 279 CURVE SMOOTH"
);
}
);
width = 600;
}
);
unicode = 002B;
},
{
glyphname = ampersand;
lastChange = "2016-10-03 01:19:08 +0200";
layers = (
{
layerId = "248CDC77-21EA-41B6-93B8-E98A9208AB16";
name = Regular;
paths = (
{
closed = 1;
nodes = (
"360 245 OFFCURVE",
"390 241 OFFCURVE",
"390 193 CURVE SMOOTH",
"390 120 OFFCURVE",
"313 0 OFFCURVE",
"176 0 CURVE SMOOTH",
"136 0 OFFCURVE",
"95 17 OFFCURVE",
"95 70 CURVE SMOOTH",
"95 196 OFFCURVE",
"400 319 OFFCURVE",
"400 416 CURVE SMOOTH",
"400 442 OFFCURVE",
"385 455 OFFCURVE",
"360 455 CURVE SMOOTH",
"299 455 OFFCURVE",
"250 406 OFFCURVE",
"250 306 CURVE SMOOTH",
"250 179 OFFCURVE",
"359 51 OFFCURVE",
"418 14 CURVE",
"390 -23 OFFCURVE",
"230 154 OFFCURVE",
"230 308 CURVE SMOOTH",
"230 475 OFFCURVE",
"415 506 OFFCURVE",
"415 407 CURVE SMOOTH",
"415 295 OFFCURVE",
"115 175 OFFCURVE",
"115 66 CURVE SMOOTH",
"115 29 OFFCURVE",
"143 9 OFFCURVE",
"184 9 CURVE SMOOTH",
"279 9 OFFCURVE",
"369 113 OFFCURVE",
"369 196 CURVE SMOOTH",
"369 224 OFFCURVE",
"362 228 OFFCURVE",
"358 235 CURVE"
);
}
);
width = 600;
}
);
unicode = 0026;
},
{
glyphname = at;
lastChange = "2016-09-28 02:29:35 +0200";
layers = (
{
layerId = "248CDC77-21EA-41B6-93B8-E98A9208AB16";
name = Regular;
paths = (
{
closed = 1;
nodes = (
"190 10 OFFCURVE",
"154 69 OFFCURVE",
"155 144 CURVE SMOOTH",
"156 269 OFFCURVE",
"277 438 OFFCURVE",
"418 438 CURVE SMOOTH",
"502 438 OFFCURVE",
"517 384 OFFCURVE",
"517 337 CURVE SMOOTH",
"517 212 OFFCURVE",
"395 90 OFFCURVE",
"335 90 CURVE SMOOTH",
"313 90 OFFCURVE",
"337 179 OFFCURVE",
"439 325 CURVE",
"439 325 OFFCURVE",
"437 342 OFFCURVE",
"429 342 CURVE SMOOTH",
"421 342 OFFCURVE",
"390 289 OFFCURVE",
"371 251 CURVE",
"391 304 OFFCURVE",
"397 342 OFFCURVE",
"368 342 CURVE SMOOTH",
"274 342 OFFCURVE",
"175 94 OFFCURVE",
"245 94 CURVE SMOOTH",
"269 94 OFFCURVE",
"303 132 OFFCURVE",
"328 170 CURVE",
"306 110 OFFCURVE",
"314 82 OFFCURVE",
"335 82 CURVE SMOOTH",
"407 82 OFFCURVE",
"536 197 OFFCURVE",
"536 335 CURVE SMOOTH",
"536 405 OFFCURVE",
"492 447 OFFCURVE",
"422 447 CURVE SMOOTH",
"233 447 OFFCURVE",
"130 258 OFFCURVE",
"130 144 CURVE SMOOTH",
"130 66 OFFCURVE",
"176 0 OFFCURVE",
"256 0 CURVE SMOOTH",
"314 0 OFFCURVE",
"345 29 OFFCURVE",
"334 34 CURVE",
"318 25 OFFCURVE",
"293 10 OFFCURVE",
"253 10 CURVE SMOOTH"
);
},
{
closed = 1;
nodes = (
"206 103 OFFCURVE",
"313 331 OFFCURVE",
"367 331 CURVE SMOOTH",
"395 331 OFFCURVE",
"358 233 OFFCURVE",
"343 206 CURVE",
"303 141 OFFCURVE",
"263 103 OFFCURVE",
"246 103 CURVE SMOOTH"
);
}
);
width = 600;
}
);
unicode = 0040;
},
{
glyphname = bar;
lastChange = "2016-09-22 09:26:43 +0200";
layers = (
{
guideLines = (
{
angle = 60;
position = "{79, 244}";
}
);
layerId = "248CDC77-21EA-41B6-93B8-E98A9208AB16";
name = Regular;
paths = (
{
closed = 1;
nodes = (
"-212 -260 LINE",
"-203 -263 LINE",
"352 697 LINE",
"342 700 LINE"
);
}
);
width = 112;
}
);
unicode = 007C;
},
{
glyphname = copyright;
lastChange = "2016-10-03 01:21:46 +0200";
layers = (
{
layerId = "248CDC77-21EA-41B6-93B8-E98A9208AB16";
name = Regular;
paths = (
{
closed = 1;
nodes = (
"457 608 OFFCURVE",
"407 557 OFFCURVE",
"407 503 CURVE SMOOTH",
"407 470 OFFCURVE",
"434 448 OFFCURVE",
"469 448 CURVE SMOOTH",
"509 448 OFFCURVE",
"579 490 OFFCURVE",
"579 555 CURVE SMOOTH",
"579 588 OFFCURVE",
"550 608 OFFCURVE",
"522 608 CURVE SMOOTH"
);
},
{
closed = 1;
nodes = (
"442 455 OFFCURVE",
"422 469 OFFCURVE",
"422 502 CURVE SMOOTH",
"422 560 OFFCURVE",
"479 601 OFFCURVE",
"518 601 CURVE SMOOTH",
"551 601 OFFCURVE",
"564 577 OFFCURVE",
"564 556 CURVE SMOOTH",
"564 509 OFFCURVE",
"515 455 OFFCURVE",
"466 455 CURVE SMOOTH"
);
},
{
closed = 1;
nodes = (
"477 572 OFFCURVE",
"457 537 OFFCURVE",
"457 513 CURVE SMOOTH",
"458 500 OFFCURVE",
"464 490 OFFCURVE",
"477 490 CURVE SMOOTH",
"501 490 OFFCURVE",
"515 514 OFFCURVE",
"507 514 CURVE",
"502 509 OFFCURVE",
"490 498 OFFCURVE",
"478 498 CURVE SMOOTH",
"471 498 OFFCURVE",
"468 504 OFFCURVE",
"468 512 CURVE SMOOTH",
"468 532 OFFCURVE",
"486 564 OFFCURVE",
"509 564 CURVE SMOOTH",
"521 564 OFFCURVE",
"521 552 OFFCURVE",
"519 546 CURVE",
"522 543 OFFCURVE",
"528 547 OFFCURVE",
"528 557 CURVE SMOOTH",
"528 563 OFFCURVE",
"523 572 OFFCURVE",
"509 572 CURVE SMOOTH"
);
}
);
width = 600;
}
);
unicode = 00A9;
},
{
glyphname = dagger;
lastChange = "2016-09-28 02:34:50 +0200";
layers = (
{
layerId = "248CDC77-21EA-41B6-93B8-E98A9208AB16";
name = Regular;
paths = (
{
closed = 1;
nodes = (
"502 540 OFFCURVE",
"472 545 OFFCURVE",
"459 526 CURVE SMOOTH",
"411 454 OFFCURVE",
"250 86 OFFCURVE",
"250 64 CURVE SMOOTH",
"250 56 OFFCURVE",
"262 61 OFFCURVE",
"266 66 CURVE",
"280 103 OFFCURVE",
"417 412 OFFCURVE",
"494 527 CURVE"
);
},
{
closed = 1;
nodes = (
"311 444 OFFCURVE",
"331 424 OFFCURVE",
"336 424 CURVE SMOOTH",
"345 424 OFFCURVE",
"403 426 OFFCURVE",
"524 426 CURVE SMOOTH",
"541 426 OFFCURVE",
"536 437 OFFCURVE",
"526 440 CURVE",
"449 445 OFFCURVE",
"378 447 OFFCURVE",
"337 445 CURVE SMOOTH"
);
}
);
width = 600;
}
);
unicode = 2020;
},
{
glyphname = degree;
lastChange = "2016-09-28 02:31:45 +0200";
layers = (
{
layerId = "248CDC77-21EA-41B6-93B8-E98A9208AB16";
name = Regular;
paths = (
{
closed = 1;
nodes = (
"461 570 OFFCURVE",
"428 537 OFFCURVE",
"428 501 CURVE SMOOTH",
"428 479 OFFCURVE",
"446 465 OFFCURVE",
"469 465 CURVE SMOOTH",
"495 465 OFFCURVE",
"540 493 OFFCURVE",
"540 535 CURVE SMOOTH",
"540 557 OFFCURVE",
"522 570 OFFCURVE",
"504 570 CURVE SMOOTH"
);
},
{
closed = 1;
nodes = (
"452 472 OFFCURVE",
"441 481 OFFCURVE",
"442 501 CURVE SMOOTH",
"442 536 OFFCURVE",
"476 564 OFFCURVE",
"500 564 CURVE SMOOTH",
"521 564 OFFCURVE",
"527 549 OFFCURVE",
"527 535 CURVE SMOOTH",
"527 506 OFFCURVE",
"495 472 OFFCURVE",
"468 472 CURVE SMOOTH"
);
}
);
width = 600;
}
);
unicode = 00B0;
},
{
glyphname = published;
lastChange = "2016-09-30 02:58:47 +0200";
layers = (
{
layerId = "248CDC77-21EA-41B6-93B8-E98A9208AB16";
name = Regular;
paths = (
{
closed = 1;
nodes = (
"449 610 OFFCURVE",
"400 559 OFFCURVE",
"400 505 CURVE SMOOTH",
"400 472 OFFCURVE",
"427 450 OFFCURVE",
"461 450 CURVE SMOOTH",
"501 450 OFFCURVE",
"571 492 OFFCURVE",
"571 557 CURVE SMOOTH",
"571 590 OFFCURVE",
"543 610 OFFCURVE",
"514 610 CURVE SMOOTH"
);
},
{
closed = 1;
nodes = (
"434 457 OFFCURVE",
"414 471 OFFCURVE",
"414 504 CURVE SMOOTH",
"414 562 OFFCURVE",
"471 603 OFFCURVE",
"510 603 CURVE SMOOTH",
"543 603 OFFCURVE",
"557 579 OFFCURVE",
"557 558 CURVE SMOOTH",
"557 512 OFFCURVE",
"507 457 OFFCURVE",
"458 457 CURVE SMOOTH"
);
},
{
closed = 1;
nodes = (
"471 562 OFFCURVE",
"457 540 OFFCURVE",
"439 495 CURVE",
"440 492 OFFCURVE",
"446 493 OFFCURVE",
"450 499 CURVE SMOOTH",
"453 505 OFFCURVE",
"476 553 OFFCURVE",
"491 573 CURVE",
"488 579 OFFCURVE",
"480 576 OFFCURVE",
"476 569 CURVE SMOOTH"
);
},
{
closed = 1;
nodes = (
"524 512 OFFCURVE",
"542 573 OFFCURVE",
"511 573 CURVE SMOOTH",
"498 573 OFFCURVE",
"485 564 OFFCURVE",
"474 548 CURVE SMOOTH",
"462 531 OFFCURVE",
"464 531 OFFCURVE",
"474 543 CURVE SMOOTH",
"485 555 OFFCURVE",
"496 564 OFFCURVE",
"508 564 CURVE SMOOTH",
"528 564 OFFCURVE",
"509 520 OFFCURVE",
"483 520 CURVE SMOOTH",
"477 520 OFFCURVE",
"474 524 OFFCURVE",
"473 529 CURVE",
"468 527 OFFCURVE",
"467 512 OFFCURVE",
"484 512 CURVE SMOOTH"
);
}
);
width = 600;
}
);
unicode = 2117;
},
{
glyphname = registered;
lastChange = "2016-09-30 02:58:26 +0200";
layers = (
{
layerId = "248CDC77-21EA-41B6-93B8-E98A9208AB16";
name = Regular;
paths = (
{
closed = 1;
nodes = (
"428 609 OFFCURVE",
"379 558 OFFCURVE",
"379 505 CURVE SMOOTH",
"379 471 OFFCURVE",
"406 449 OFFCURVE",
"440 449 CURVE SMOOTH",
"480 449 OFFCURVE",
"550 492 OFFCURVE",
"550 557 CURVE SMOOTH",
"550 589 OFFCURVE",
"522 609 OFFCURVE",
"493 609 CURVE SMOOTH"
);
},
{
closed = 1;
nodes = (
"413 457 OFFCURVE",
"393 470 OFFCURVE",
"393 504 CURVE SMOOTH",
"393 561 OFFCURVE",
"450 603 OFFCURVE",
"489 603 CURVE SMOOTH",
"522 603 OFFCURVE",
"535 579 OFFCURVE",
"535 558 CURVE SMOOTH",
"535 511 OFFCURVE",
"486 457 OFFCURVE",
"437 457 CURVE SMOOTH"
);
},
{
closed = 1;
nodes = (
"448 562 OFFCURVE",
"432 540 OFFCURVE",
"414 495 CURVE",
"415 492 OFFCURVE",
"421 493 OFFCURVE",
"425 499 CURVE SMOOTH",
"428 504 OFFCURVE",
"452 552 OFFCURVE",
"468 573 CURVE",
"465 579 OFFCURVE",
"456 575 OFFCURVE",
"452 569 CURVE SMOOTH"
);
},
{
closed = 1;
nodes = (
"476 572 OFFCURVE",
"462 563 OFFCURVE",
"449 548 CURVE SMOOTH",
"435 532 OFFCURVE",
"439 530 OFFCURVE",
"449 542 CURVE SMOOTH",
"460 555 OFFCURVE",
"473 563 OFFCURVE",
"486 563 CURVE SMOOTH",
"491 563 OFFCURVE",
"497 560 OFFCURVE",
"497 554 CURVE SMOOTH",
"497 542 OFFCURVE",
"475 529 OFFCURVE",
"449 531 CURVE",
"449 510 OFFCURVE",
"477 483 OFFCURVE",
"485 493 CURVE",
"469 504 OFFCURVE",
"462 520 OFFCURVE",
"461 525 CURVE",
"480 522 OFFCURVE",
"507 535 OFFCURVE",
"507 554 CURVE SMOOTH",
"507 565 OFFCURVE",
"498 572 OFFCURVE",
"488 572 CURVE SMOOTH"
);
}
);
width = 600;
}
);
unicode = 00AE;
},
{
glyphname = section;
lastChange = "2016-10-03 01:17:55 +0200";
layers = (
{
layerId = "248CDC77-21EA-41B6-93B8-E98A9208AB16";
name = Regular;
paths = (
{
closed = 1;
nodes = (
"441 398 OFFCURVE",
"444 386 OFFCURVE",
"462 386 CURVE SMOOTH",
"509 386 OFFCURVE",
"547 427 OFFCURVE",
"547 463 CURVE SMOOTH",
"547 504 OFFCURVE",
"510 530 OFFCURVE",
"440 530 CURVE SMOOTH",
"359 530 OFFCURVE",
"298 477 OFFCURVE",
"298 432 CURVE SMOOTH",
"298 389 OFFCURVE",
"329 373 OFFCURVE",
"349 364 CURVE",
"271 356 OFFCURVE",
"215 302 OFFCURVE",
"215 261 CURVE SMOOTH",
"215 161 OFFCURVE",
"359 187 OFFCURVE",
"359 99 CURVE SMOOTH",
"359 63 OFFCURVE",
"308 10 OFFCURVE",
"232 10 CURVE SMOOTH",
"184 10 OFFCURVE",
"137 35 OFFCURVE",
"137 79 CURVE SMOOTH",
"137 109 OFFCURVE",
"164 144 OFFCURVE",
"221 144 CURVE",
"224 151 OFFCURVE",
"218 157 OFFCURVE",
"203 157 CURVE SMOOTH",
"144 157 OFFCURVE",
"117 110 OFFCURVE",
"117 79 CURVE SMOOTH",
"117 33 OFFCURVE",
"161 0 OFFCURVE",
"231 0 CURVE SMOOTH",
"328 0 OFFCURVE",
"380 58 OFFCURVE",
"380 105 CURVE SMOOTH",
"380 143 OFFCURVE",
"352 171 OFFCURVE",
"319 182 CURVE",
"412 174 OFFCURVE",
"481 229 OFFCURVE",
"481 288 CURVE SMOOTH",
"481 331 OFFCURVE",
"446 360 OFFCURVE",
"384 371 CURVE",
"355 375 OFFCURVE",
"316 396 OFFCURVE",
"316 432 CURVE SMOOTH",
"316 474 OFFCURVE",
"373 521 OFFCURVE",
"444 521 CURVE SMOOTH",
"496 521 OFFCURVE",
"530 502 OFFCURVE",
"530 465 CURVE SMOOTH",
"530 434 OFFCURVE",
"496 399 OFFCURVE",
"445 399 CURVE"
);
},
{
closed = 1;
nodes = (
"457 243 OFFCURVE",
"409 194 OFFCURVE",
"326 194 CURVE SMOOTH",
"282 194 OFFCURVE",
"237 214 OFFCURVE",
"237 259 CURVE SMOOTH",
"237 300 OFFCURVE",
"294 353 OFFCURVE",
"370 356 CURVE SMOOTH",
"398 356 OFFCURVE",
"457 339 OFFCURVE",
"457 289 CURVE SMOOTH"
);
}
);
width = 600;
}
);
unicode = 00A7;
},
{
glyphname = servicemark;
lastChange = "2016-10-03 01:20:17 +0200";
layers = (
{
layerId = "248CDC77-21EA-41B6-93B8-E98A9208AB16";
name = Regular;
paths = (
{
closed = 1;
nodes = (
"702 549 LINE",
"699 590 LINE",
"698 593 OFFCURVE",
"688 604 OFFCURVE",
"683 593 CURVE SMOOTH",
"672 571 OFFCURVE",
"671 571 OFFCURVE",
"641 506 CURVE",
"639 501 OFFCURVE",
"650 501 OFFCURVE",
"655 510 CURVE SMOOTH",
"660 518 OFFCURVE",
"672 538 OFFCURVE",
"688 569 CURVE",
"688 559 OFFCURVE",
"689 544 OFFCURVE",
"689 542 CURVE SMOOTH",
"690 536 OFFCURVE",
"696 532 OFFCURVE",
"699 534 CURVE",
"712 544 OFFCURVE",
"725 556 OFFCURVE",
"741 570 CURVE",
"735 559 OFFCURVE",
"730 547 OFFCURVE",
"710 503 CURVE",
"707 499 OFFCURVE",
"719 498 OFFCURVE",
"724 507 CURVE SMOOTH",
"729 516 OFFCURVE",
"758 569 OFFCURVE",
"764 585 CURVE",
"764 588 OFFCURVE",
"759 601 OFFCURVE",
"753 595 CURVE SMOOTH"
);
},
{
closed = 1;
nodes = (
"630 565 OFFCURVE",
"629 557 OFFCURVE",
"637 557 CURVE SMOOTH",
"646 557 OFFCURVE",
"657 563 OFFCURVE",
"657 578 CURVE SMOOTH",
"657 587 OFFCURVE",
"649 598 OFFCURVE",
"627 598 CURVE SMOOTH",
"606 598 OFFCURVE",
"592 586 OFFCURVE",
"592 570 CURVE SMOOTH",
"592 547 OFFCURVE",
"621 542 OFFCURVE",
"621 528 CURVE SMOOTH",
"621 520 OFFCURVE",
"614 510 OFFCURVE",
"596 510 CURVE SMOOTH",
"588 510 OFFCURVE",
"580 515 OFFCURVE",
"580 523 CURVE SMOOTH",
"580 531 OFFCURVE",
"587 534 OFFCURVE",
"590 535 CURVE",
"590 535 LINE",
"590 535 LINE SMOOTH",
"591 536 OFFCURVE",
"590 540 OFFCURVE",
"586 540 CURVE SMOOTH",
"577 540 OFFCURVE",
"568 532 OFFCURVE",
"568 521 CURVE SMOOTH",
"568 509 OFFCURVE",
"580 499 OFFCURVE",
"595 499 CURVE SMOOTH",
"629 499 OFFCURVE",
"634 520 OFFCURVE",
"634 529 CURVE SMOOTH",
"634 549 OFFCURVE",
"606 552 OFFCURVE",
"606 570 CURVE SMOOTH",
"606 580 OFFCURVE",
"618 588 OFFCURVE",
"630 588 CURVE SMOOTH",
"639 588 OFFCURVE",
"646 584 OFFCURVE",
"646 577 CURVE SMOOTH",
"646 570 OFFCURVE",
"641 565 OFFCURVE",
"634 565 CURVE SMOOTH"
);
}
);
width = 981;
}
);
leftMetricsKey = S;
rightMetricsKey = M;
unicode = 2120;
},
{
glyphname = trademark;
lastChange = "2016-10-03 01:21:29 +0200";
layers = (
{
layerId = "248CDC77-21EA-41B6-93B8-E98A9208AB16";
name = Regular;
paths = (
{
closed = 1;
nodes = (
"593 567 OFFCURVE",
"594 575 OFFCURVE",
"564 510 CURVE SMOOTH",
"562 505 OFFCURVE",
"573 504 OFFCURVE",
"579 512 CURVE SMOOTH",
"584 521 OFFCURVE",
"599 549 OFFCURVE",
"623 589 CURVE",
"623 593 OFFCURVE",
"609 600 OFFCURVE",
"604 589 CURVE SMOOTH"
);
},
{
closed = 1;
nodes = (
"646 599 OFFCURVE",
"635 599 OFFCURVE",
"562 598 CURVE",
"555 597 OFFCURVE",
"561 582 OFFCURVE",
"573 582 CURVE SMOOTH",
"583 582 OFFCURVE",
"614 585 OFFCURVE",
"653 587 CURVE",
"661 588 OFFCURVE",
"664 599 OFFCURVE",
"658 599 CURVE SMOOTH"
);
},
{
closed = 1;
nodes = (
"694 553 LINE",
"691 594 LINE",
"690 596 OFFCURVE",
"681 607 OFFCURVE",
"675 597 CURVE SMOOTH",
"665 575 OFFCURVE",
"663 575 OFFCURVE",
"633 510 CURVE",
"631 505 OFFCURVE",
"642 505 OFFCURVE",
"648 514 CURVE SMOOTH",
"652 521 OFFCURVE",
"665 541 OFFCURVE",
"680 572 CURVE",
"681 563 OFFCURVE",
"682 548 OFFCURVE",
"682 545 CURVE SMOOTH",
"682 540 OFFCURVE",
"689 536 OFFCURVE",
"692 538 CURVE",
"704 548 OFFCURVE",
"717 560 OFFCURVE",
"733 574 CURVE",
"727 563 OFFCURVE",
"722 551 OFFCURVE",
"702 507 CURVE",
"700 503 OFFCURVE",
"711 502 OFFCURVE",
"717 510 CURVE SMOOTH",
"722 519 OFFCURVE",
"750 573 OFFCURVE",
"756 589 CURVE",
"756 592 OFFCURVE",
"751 604 OFFCURVE",
"745 599 CURVE SMOOTH"
);
}
);
width = 981;
}
);
leftMetricsKey = T;
rightMetricsKey = M;
unicode = 2122;
},
